{"glyphs":{"0":{"ha":926,"x_min":31,"x_max":895,"o":"m 463 -100 q 231 -28 329 -100 q 83 179 134 45 q 31 494 31 313 q 83 809 31 674 q 231 1015 134 943 q 463 1088 329 1088 q 694 1015 597 1088 q 843 809 792 943 q 895 494 895 674 q 843 179 895 313 q 694 -28 792 45 q 463 -100 597 -100 m 463 100 q 616 207 560 100 q 671 494 671 313 q 616 781 671 674 q 463 887 560 887 q 310 781 366 887 q 255 494 255 674 q 310 207 255 313 q 463 100 366 100 z "},"1":{"ha":926,"x_min":193,"x_max":648,"o":"m 208 880 l 193 1073 l 579 1073 q 648 1003 648 1073 l 648 -85 l 424 -85 l 424 880 l 208 880 z "},"2":{"ha":926,"x_min":62,"x_max":872,"o":"m 494 502 q 588 627 559 573 q 617 733 617 682 q 572 845 617 802 q 455 887 526 887 q 315 847 375 887 q 208 725 255 807 l 62 849 q 463 1088 193 1088 q 660 1042 574 1088 q 793 917 745 997 q 841 733 841 836 q 800 556 841 633 q 656 370 759 480 l 401 108 l 856 108 l 872 -85 l 131 -85 q 62 -15 62 -85 l 62 46 l 494 502 z "},"3":{"ha":926,"x_min":46,"x_max":852,"o":"m 424 -100 q 206 -59 302 -100 q 46 62 110 -19 l 193 208 q 283 130 222 160 q 417 100 344 100 q 572 154 511 100 q 633 293 633 207 q 571 434 633 381 q 401 486 509 486 q 339 481 373 486 q 285 471 304 477 l 285 594 l 532 880 l 123 880 l 108 1073 l 772 1073 q 841 1003 841 1073 l 841 941 l 563 625 q 711 577 645 620 q 815 458 778 534 q 849 285 852 383 q 799 84 852 171 q 649 -52 747 -3 q 424 -100 551 -100 z "},"4":{"ha":926,"x_min":8,"x_max":918,"o":"m 401 1073 l 648 1073 l 278 386 l 556 386 l 556 648 l 772 648 l 772 386 l 918 386 l 918 193 l 772 193 l 772 -85 l 556 -85 l 556 193 l 77 193 q 8 262 8 193 l 8 324 l 401 1073 z "},"5":{"ha":926,"x_min":46,"x_max":864,"o":"m 424 -100 q 206 -59 302 -100 q 46 62 110 -19 l 193 208 q 283 130 222 160 q 417 100 344 100 q 579 155 517 100 q 640 301 640 210 q 581 447 640 392 q 432 502 522 502 q 224 432 306 502 l 116 540 l 170 1073 l 802 1073 l 802 880 l 347 880 l 324 640 q 486 671 375 671 q 691 621 606 671 q 820 485 776 571 q 864 293 864 400 q 807 93 864 182 q 650 -49 750 3 q 424 -100 549 -100 z "},"6":{"ha":926,"x_min":46,"x_max":880,"o":"m 463 -100 q 250 -47 346 -100 q 100 98 154 6 q 46 301 46 190 q 154 610 46 454 l 471 1073 l 725 1073 l 448 679 q 517 687 469 684 q 696 638 613 685 q 829 505 779 591 q 880 309 880 420 q 824 105 880 199 q 673 -45 769 11 q 463 -100 577 -100 m 463 100 q 606 160 549 100 q 664 309 664 221 q 606 452 664 395 q 463 509 549 509 q 323 453 377 509 q 270 309 270 397 q 324 160 270 221 q 463 100 378 100 z "},"7":{"ha":926,"x_min":69,"x_max":856,"o":"m 85 880 l 69 1073 l 787 1073 q 856 1003 856 1073 l 856 941 l 463 -85 l 231 -85 l 617 880 l 85 880 z "},"8":{"ha":926,"x_min":62,"x_max":864,"o":"m 463 -100 q 252 -56 343 -100 q 111 65 160 -12 q 62 239 62 142 q 111 415 62 338 q 247 532 160 492 q 146 632 184 568 q 108 772 108 696 q 154 935 108 863 q 279 1048 199 1008 q 463 1088 360 1088 q 645 1048 566 1088 q 767 936 724 1008 q 810 772 810 864 q 776 630 810 694 q 679 532 742 566 q 815 415 765 492 q 864 239 864 338 q 813 66 864 144 q 671 -56 762 -12 q 463 -100 580 -100 m 463 610 q 568 651 526 610 q 610 756 610 693 q 568 861 610 819 q 463 903 526 903 q 358 861 400 903 q 316 756 316 819 q 358 651 316 693 q 463 610 400 610 m 463 100 q 596 147 545 100 q 648 270 648 194 q 596 393 648 346 q 463 440 545 440 q 329 393 381 440 q 278 270 278 346 q 329 147 278 194 q 463 100 381 100 z "},"9":{"ha":926,"x_min":46,"x_max":880,"o":"m 486 309 q 417 301 465 304 q 235 350 321 302 q 98 483 150 397 q 46 679 46 569 q 102 883 46 789 q 253 1032 157 977 q 463 1088 349 1088 q 676 1035 580 1088 q 826 890 772 981 q 880 687 880 798 q 854 532 880 605 q 772 378 829 458 l 455 -85 l 201 -85 l 486 309 m 463 478 q 606 535 549 478 q 664 679 664 593 q 606 827 664 767 q 463 887 549 887 q 324 827 378 887 q 270 679 270 767 q 323 535 270 591 q 463 478 377 478 z "}," ":{"ha":432,"x_min":0,"x_max":0,"o":""}," ":{"ha":432,"x_min":0,"x_max":0,"o":""},"A":{"ha":1127,"x_min":8,"x_max":1119,"o":"m 656 1073 l 1119 -85 l 880 -85 l 795 131 l 324 131 l 239 -85 l 8 -85 l 471 1073 l 656 1073 m 563 756 l 394 316 l 725 316 l 563 756 z "},"B":{"ha":988,"x_min":93,"x_max":949,"o":"m 556 1073 q 745 1032 664 1073 q 868 922 826 991 q 910 772 910 853 q 872 635 910 698 q 764 532 833 573 q 900 412 852 486 q 949 247 949 338 q 904 78 949 153 q 771 -41 858 3 q 563 -85 684 -85 l 162 -85 q 93 -15 93 -85 l 93 1073 l 556 1073 m 316 610 l 532 610 q 645 645 603 610 q 687 748 687 681 q 645 852 687 816 q 532 887 603 887 l 316 887 l 316 610 m 316 100 l 556 100 q 680 146 634 100 q 725 262 725 191 q 680 383 725 335 q 556 432 634 432 l 316 432 l 316 100 z "},"C":{"ha":1073,"x_min":39,"x_max":1065,"o":"m 625 -100 q 324 -22 458 -100 q 114 194 190 57 q 39 494 39 330 q 114 794 39 657 q 324 1009 190 931 q 625 1088 458 1088 q 1057 918 887 1088 l 903 772 q 625 880 807 880 q 436 832 519 880 q 308 696 353 784 q 262 494 262 608 q 308 292 262 380 q 436 156 353 204 q 625 108 519 108 q 910 224 807 108 l 1065 69 q 625 -100 895 -100 z "},"D":{"ha":1173,"x_min":93,"x_max":1142,"o":"m 540 1073 q 846 997 708 1073 q 1063 789 983 921 q 1142 494 1142 657 q 1064 198 1142 330 q 851 -9 986 66 q 548 -85 716 -85 l 162 -85 q 93 -15 93 -85 l 93 1073 l 540 1073 m 316 116 l 540 116 q 735 162 651 116 q 865 294 819 208 q 910 494 910 380 q 863 691 910 605 q 731 824 816 776 q 540 872 647 872 l 316 872 l 316 116 z "},"E":{"ha":941,"x_min":93,"x_max":903,"o":"m 887 1073 l 887 872 l 316 872 l 316 602 l 841 602 l 841 409 l 316 409 l 316 116 l 887 116 l 903 -85 l 162 -85 q 93 -15 93 -85 l 93 1073 l 887 1073 z "},"F":{"ha":903,"x_min":93,"x_max":864,"o":"m 864 1073 l 864 872 l 316 872 l 316 586 l 841 586 l 841 394 l 316 394 l 316 -85 l 93 -85 l 93 1073 l 864 1073 z "},"G":{"ha":1227,"x_min":39,"x_max":1196,"o":"m 625 -100 q 331 -21 466 -100 q 117 194 196 59 q 39 494 39 330 q 118 793 39 657 q 336 1008 198 929 q 640 1088 474 1088 q 899 1037 784 1088 q 1096 887 1014 986 l 949 733 q 817 842 897 804 q 640 880 738 880 q 448 829 534 880 q 312 691 361 779 q 262 494 262 603 q 309 292 262 380 q 439 157 356 205 q 625 108 522 108 q 848 174 762 108 q 957 363 934 241 l 610 363 l 610 556 l 1196 556 l 1196 525 q 1123 184 1196 326 q 922 -29 1051 43 q 625 -100 793 -100 z "},"H":{"ha":1134,"x_min":93,"x_max":1042,"o":"m 316 1073 l 316 610 l 818 610 l 818 1073 l 1042 1073 l 1042 -85 l 818 -85 l 818 417 l 316 417 l 316 -85 l 93 -85 l 93 1073 l 316 1073 z "},"I":{"ha":409,"x_min":93,"x_max":316,"o":"m 316 1073 l 316 -85 l 93 -85 l 93 1073 l 316 1073 z "},"J":{"ha":795,"x_min":8,"x_max":718,"o":"m 324 -100 q 143 -59 224 -100 q 8 54 62 -19 l 162 193 q 324 108 222 108 q 447 157 400 108 q 494 293 494 207 l 494 1073 l 718 1073 l 718 309 q 669 94 718 187 q 532 -49 620 2 q 324 -100 443 -100 z "},"K":{"ha":1080,"x_min":93,"x_max":1073,"o":"m 316 1073 l 316 548 l 779 1073 l 1057 1073 l 556 517 l 1073 -85 l 787 -85 l 316 486 l 316 -85 l 93 -85 l 93 1073 l 316 1073 z "},"L":{"ha":864,"x_min":93,"x_max":849,"o":"m 316 1073 l 316 116 l 833 116 l 849 -85 l 162 -85 q 93 -15 93 -85 l 93 1073 l 316 1073 z "},"M":{"ha":1343,"x_min":93,"x_max":1250,"o":"m 255 1073 l 671 394 l 1096 1073 l 1181 1073 q 1250 1003 1250 1073 l 1250 -85 l 1026 -85 l 1026 602 l 748 154 l 594 154 l 316 610 l 316 -85 l 93 -85 l 93 1073 l 255 1073 z "},"N":{"ha":1142,"x_min":93,"x_max":1049,"o":"m 247 1073 l 826 324 l 826 1073 l 1049 1073 l 1049 -85 l 887 -85 l 316 664 l 316 -85 l 93 -85 l 93 1073 l 247 1073 z "},"O":{"ha":1265,"x_min":39,"x_max":1227,"o":"m 633 -100 q 333 -21 469 -100 q 118 194 198 59 q 39 494 39 330 q 118 793 39 657 q 333 1008 198 929 q 633 1088 469 1088 q 932 1008 796 1088 q 1147 793 1068 929 q 1227 494 1227 657 q 1147 194 1227 330 q 932 -21 1068 59 q 633 -100 796 -100 m 633 108 q 822 156 739 108 q 950 292 904 204 q 995 494 995 380 q 950 693 995 605 q 822 830 904 781 q 633 880 739 880 q 442 830 526 880 q 310 693 358 781 q 262 494 262 605 q 309 292 262 380 q 441 157 356 205 q 633 108 526 108 z "},"P":{"ha":965,"x_min":93,"x_max":934,"o":"m 548 1073 q 744 1028 656 1073 q 883 901 832 983 q 934 710 934 819 q 883 519 934 600 q 744 392 832 437 q 548 347 656 347 l 316 347 l 316 -85 l 93 -85 l 93 1073 l 548 1073 m 316 525 l 525 525 q 658 575 606 525 q 710 710 710 625 q 658 839 710 790 q 525 887 606 887 l 316 887 l 316 525 z "},"Q":{"ha":1296,"x_min":39,"x_max":1289,"o":"m 633 -100 q 333 -21 469 -100 q 118 194 198 59 q 39 494 39 330 q 118 793 39 657 q 333 1008 198 929 q 633 1088 469 1088 q 932 1008 796 1088 q 1147 793 1068 929 q 1227 494 1227 657 q 1199 306 1227 397 q 1119 139 1171 215 l 1289 -31 l 1150 -170 l 980 8 q 821 -73 910 -45 q 633 -100 731 -100 m 633 108 q 826 162 731 108 l 625 363 l 764 494 l 957 301 q 1003 494 1003 383 q 955 693 1003 605 q 823 830 907 781 q 633 880 739 880 q 442 830 526 880 q 310 693 358 781 q 262 494 262 605 q 309 292 262 380 q 441 157 356 205 q 633 108 526 108 z "},"R":{"ha":1003,"x_min":93,"x_max":995,"o":"m 548 1073 q 742 1029 657 1073 q 872 907 826 985 q 918 733 918 829 q 834 507 918 596 q 610 401 750 418 l 995 -85 l 725 -85 l 355 401 l 316 401 l 316 -85 l 93 -85 l 93 1073 l 548 1073 m 316 571 l 525 571 q 650 614 605 571 q 694 733 694 657 q 649 843 694 799 q 525 887 603 887 l 316 887 l 316 571 z "},"S":{"ha":887,"x_min":8,"x_max":849,"o":"m 432 -100 q 192 -53 295 -100 q 8 93 90 -6 l 162 239 q 280 133 216 167 q 440 100 344 100 q 579 137 526 100 q 633 231 633 173 q 603 316 633 282 q 531 369 574 349 q 409 417 488 389 q 242 485 306 451 q 131 584 177 519 q 85 756 85 650 q 136 933 85 858 q 276 1048 187 1008 q 478 1088 366 1088 q 685 1043 590 1088 q 841 926 781 998 l 694 779 q 591 863 642 838 q 471 887 540 887 q 351 858 394 887 q 309 772 309 829 q 336 698 309 727 q 404 650 363 668 q 517 610 446 633 q 688 535 623 571 q 801 431 753 500 q 849 247 849 361 q 738 -8 849 85 q 432 -100 628 -100 z "},"T":{"ha":980,"x_min":8,"x_max":972,"o":"m 23 872 l 8 1073 l 972 1073 l 972 872 l 602 872 l 602 -85 l 378 -85 l 378 872 l 23 872 z "},"U":{"ha":1096,"x_min":77,"x_max":1011,"o":"m 548 -100 q 306 -41 414 -100 q 138 124 199 19 q 77 363 77 230 l 77 1073 l 301 1073 l 301 355 q 371 175 301 242 q 548 108 441 108 q 721 174 654 108 q 787 355 787 241 l 787 1073 l 1011 1073 l 1011 363 q 951 124 1011 230 q 786 -41 892 19 q 548 -100 681 -100 z "},"V":{"ha":1103,"x_min":8,"x_max":1096,"o":"m 247 1073 l 556 262 l 856 1073 l 1096 1073 l 640 -85 l 463 -85 l 8 1073 l 247 1073 z "},"W":{"ha":1574,"x_min":15,"x_max":1566,"o":"m 231 1073 l 471 301 l 710 1073 l 872 1073 l 1103 301 l 1343 1073 l 1566 1073 l 1188 -85 l 1026 -85 l 787 687 l 556 -85 l 386 -85 l 15 1073 l 231 1073 z "},"X":{"ha":1111,"x_min":8,"x_max":1103,"o":"m 31 1073 l 293 1073 l 563 671 l 826 1073 l 1080 1073 l 702 517 l 1103 -85 l 841 -85 l 556 355 l 262 -85 l 8 -85 l 424 509 l 31 1073 z "},"Y":{"ha":1065,"x_min":8,"x_max":1057,"o":"m 8 1073 l 262 1073 l 532 625 l 802 1073 l 1057 1073 l 648 417 l 648 -85 l 424 -85 l 424 409 l 8 1073 z "},"Z":{"ha":934,"x_min":31,"x_max":895,"o":"m 602 872 l 69 872 l 54 1073 l 826 1073 q 895 1003 895 1073 l 895 910 l 324 116 l 880 116 l 895 -85 l 100 -85 q 31 -15 31 -85 l 31 77 l 602 872 z "},"a":{"ha":918,"x_min":23,"x_max":841,"o":"m 401 -100 q 208 -45 295 -100 q 73 106 122 11 q 23 316 23 202 q 73 524 23 431 q 208 671 122 617 q 401 725 295 725 q 530 700 469 725 q 633 633 591 674 l 633 710 l 841 710 l 841 -85 l 633 -85 l 633 -8 q 530 -75 591 -49 q 401 -100 469 -100 m 440 100 q 583 162 526 100 q 640 316 640 224 q 584 467 640 409 q 440 525 528 525 q 296 467 352 525 q 239 316 239 409 q 296 162 239 224 q 440 100 353 100 z "},"b":{"ha":918,"x_min":69,"x_max":895,"o":"m 285 1103 l 285 640 q 509 725 370 725 q 704 671 616 725 q 844 524 793 617 q 895 316 895 431 q 843 106 895 202 q 704 -45 792 11 q 509 -100 616 -100 q 386 -76 443 -100 q 285 -8 329 -51 l 285 -85 l 69 -85 l 69 1103 l 285 1103 m 471 100 q 614 162 557 100 q 671 316 671 224 q 615 467 671 409 q 471 525 559 525 q 326 467 383 525 q 270 316 270 409 q 327 162 270 224 q 471 100 384 100 z "},"c":{"ha":756,"x_min":23,"x_max":756,"o":"m 448 -100 q 233 -45 330 -100 q 79 106 136 11 q 23 316 23 202 q 79 527 23 434 q 231 673 134 620 q 448 725 329 725 q 748 594 630 725 l 617 455 q 448 525 548 525 q 299 466 360 525 q 239 316 239 407 q 267 207 239 256 q 343 129 295 157 q 448 100 390 100 q 543 121 498 100 q 617 177 588 142 l 756 39 q 617 -63 696 -26 q 448 -100 539 -100 z "},"d":{"ha":918,"x_min":23,"x_max":841,"o":"m 409 -100 q 215 -45 302 -100 q 75 106 127 11 q 23 316 23 202 q 74 524 23 431 q 214 671 125 617 q 409 725 302 725 q 633 640 535 725 l 633 1103 l 841 1103 l 841 -85 l 633 -85 l 633 -8 q 532 -76 590 -51 q 409 -100 475 -100 m 440 100 q 583 162 526 100 q 640 316 640 224 q 584 467 640 409 q 440 525 528 525 q 296 467 352 525 q 239 316 239 409 q 296 162 239 224 q 440 100 353 100 z "},"e":{"ha":841,"x_min":23,"x_max":826,"o":"m 448 -100 q 229 -46 326 -100 q 78 103 133 8 q 23 316 23 198 q 77 524 23 431 q 225 671 131 617 q 432 725 318 725 q 632 674 542 725 q 774 532 722 622 q 826 332 826 441 q 821 289 826 313 q 810 239 816 265 l 231 239 q 306 125 248 165 q 448 85 364 85 q 640 162 574 85 l 772 39 q 629 -63 713 -26 q 448 -100 545 -100 m 432 548 q 302 509 356 548 q 231 401 248 471 l 617 401 q 432 548 583 548 z "},"f":{"ha":640,"x_min":-15,"x_max":741,"o":"m 0 517 l -15 710 l 177 710 l 177 795 q 219 961 177 887 q 336 1076 261 1034 q 509 1119 410 1119 q 636 1093 580 1119 q 741 1019 691 1068 l 610 887 q 573 911 593 904 q 517 918 552 918 q 426 889 458 918 q 394 802 394 860 l 394 710 l 625 710 l 625 517 l 394 517 l 394 -85 l 177 -85 l 177 517 l 0 517 z "},"g":{"ha":903,"x_min":23,"x_max":833,"o":"m 394 -62 q 203 -10 287 -62 q 71 131 119 42 q 23 332 23 221 q 71 532 23 443 q 203 674 119 622 q 394 725 287 725 q 617 640 532 725 l 617 710 l 833 710 l 833 -39 q 779 -245 833 -156 q 626 -383 724 -335 q 401 -432 528 -432 q 178 -388 275 -432 q 23 -262 82 -344 l 162 -123 q 264 -206 208 -181 q 401 -231 319 -231 q 559 -184 502 -231 q 617 -46 617 -137 l 617 23 q 394 -62 532 -62 m 432 131 q 576 188 519 131 q 633 332 633 245 q 576 475 633 418 q 432 532 519 532 q 292 476 346 532 q 239 332 239 420 q 292 188 239 244 q 432 131 346 131 z "},"h":{"ha":872,"x_min":69,"x_max":818,"o":"m 285 1103 l 285 633 q 386 701 329 676 q 509 725 443 725 q 667 685 597 725 q 778 575 738 645 q 818 417 818 505 l 818 -85 l 602 -85 l 602 370 q 559 487 602 441 q 448 532 517 532 q 332 486 378 532 q 285 370 285 440 l 285 -85 l 69 -85 l 69 1103 l 285 1103 z "},"i":{"ha":363,"x_min":62,"x_max":301,"o":"m 177 833 q 94 869 127 833 q 62 957 62 904 q 94 1045 62 1009 q 177 1080 127 1080 q 265 1045 230 1080 q 301 957 301 1009 q 265 869 301 904 q 177 833 230 833 m 285 710 l 285 -85 l 69 -85 l 69 710 l 285 710 z "},"j":{"ha":370,"x_min":-239,"x_max":324,"o":"m 201 833 q 113 869 148 833 q 77 957 77 904 q 113 1045 77 1009 q 201 1080 148 1080 q 289 1045 253 1080 q 324 957 324 1009 q 289 869 324 904 q 201 833 253 833 m 8 -432 q -133 -406 -76 -432 q -239 -324 -190 -380 l -100 -193 q -61 -223 -83 -215 q -8 -231 -39 -231 q 64 -208 35 -231 q 93 -139 93 -184 l 93 710 l 301 710 l 301 -139 q 262 -295 301 -228 q 157 -397 224 -361 q 8 -432 90 -432 z "},"k":{"ha":818,"x_min":69,"x_max":841,"o":"m 285 1103 l 285 347 l 571 710 l 818 710 l 509 332 l 841 -85 l 579 -85 l 285 301 l 285 -85 l 69 -85 l 69 1103 l 285 1103 z "},"l":{"ha":355,"x_min":69,"x_max":285,"o":"m 285 1103 l 285 -85 l 69 -85 l 69 1103 l 285 1103 z "},"m":{"ha":1373,"x_min":69,"x_max":1319,"o":"m 285 710 l 285 640 q 385 703 326 681 q 509 725 444 725 q 647 696 585 725 q 748 610 708 667 q 1003 725 841 725 q 1164 688 1093 725 q 1278 581 1236 651 q 1319 417 1319 511 l 1319 -85 l 1103 -85 l 1103 386 q 1059 493 1103 454 q 949 532 1015 532 q 843 493 884 532 q 802 386 802 454 l 802 -85 l 586 -85 l 586 386 q 546 493 586 454 q 440 532 505 532 q 329 493 373 532 q 285 386 285 454 l 285 -85 l 69 -85 l 69 710 l 285 710 z "},"n":{"ha":872,"x_min":69,"x_max":818,"o":"m 285 710 l 285 633 q 388 700 327 674 q 517 725 449 725 q 672 683 603 725 q 779 569 741 640 q 818 417 818 498 l 818 -85 l 602 -85 l 602 370 q 559 487 602 441 q 448 532 517 532 q 332 486 378 532 q 285 370 285 440 l 285 -85 l 69 -85 l 69 710 l 285 710 z "},"o":{"ha":887,"x_min":23,"x_max":864,"o":"m 440 -100 q 227 -45 323 -100 q 77 106 131 11 q 23 316 23 202 q 77 524 23 431 q 227 671 131 617 q 440 725 323 725 q 654 671 557 725 q 808 524 752 617 q 864 316 864 431 q 808 106 864 202 q 654 -45 752 11 q 440 -100 557 -100 m 440 100 q 590 161 532 100 q 648 316 648 222 q 588 466 648 407 q 440 525 528 525 q 296 467 352 525 q 239 316 239 409 q 296 162 239 224 q 440 100 353 100 z "},"p":{"ha":918,"x_min":69,"x_max":895,"o":"m 285 710 l 285 640 q 509 725 370 725 q 704 671 616 725 q 844 524 793 617 q 895 316 895 431 q 843 106 895 202 q 704 -45 792 11 q 509 -100 616 -100 q 285 -15 370 -100 l 285 -409 l 69 -409 l 69 710 l 285 710 m 471 100 q 614 162 557 100 q 671 316 671 224 q 615 467 671 409 q 471 525 559 525 q 326 467 383 525 q 270 316 270 409 q 327 162 270 224 q 471 100 384 100 z "},"q":{"ha":918,"x_min":23,"x_max":841,"o":"m 401 -100 q 208 -45 295 -100 q 73 106 122 11 q 23 316 23 202 q 73 524 23 431 q 208 671 122 617 q 401 725 295 725 q 530 700 469 725 q 633 633 591 674 l 633 710 l 841 710 l 841 -409 l 633 -409 l 633 -8 q 530 -75 591 -49 q 401 -100 469 -100 m 440 100 q 583 162 526 100 q 640 316 640 224 q 584 467 640 409 q 440 525 528 525 q 296 467 352 525 q 239 316 239 409 q 296 162 239 224 q 440 100 353 100 z "},"r":{"ha":664,"x_min":69,"x_max":679,"o":"m 285 710 l 285 640 q 494 725 358 725 q 679 648 613 725 l 540 494 q 440 532 502 532 q 327 486 369 532 q 285 355 285 440 l 285 -85 l 69 -85 l 69 710 l 285 710 z "},"s":{"ha":679,"x_min":0,"x_max":664,"o":"m 340 -100 q 147 -62 236 -100 q 0 46 59 -23 l 131 177 q 340 85 213 85 q 420 101 392 85 q 448 147 448 117 q 416 199 448 182 q 309 239 384 216 q 181 279 233 256 q 91 349 128 301 q 54 478 54 397 q 135 660 54 594 q 355 725 216 725 q 664 594 565 725 l 532 463 q 451 526 497 505 q 355 548 406 548 q 282 532 309 548 q 255 486 255 515 q 286 440 255 455 q 386 409 318 424 q 524 361 471 384 q 617 288 577 338 q 656 154 656 238 q 570 -31 656 39 q 340 -100 485 -100 z "},"t":{"ha":586,"x_min":-8,"x_max":586,"o":"m 8 517 l -8 710 l 185 710 l 185 1034 l 401 1034 l 401 710 l 586 710 l 586 517 l 401 517 l 401 -85 l 185 -85 l 185 517 l 8 517 z "},"u":{"ha":818,"x_min":54,"x_max":764,"o":"m 409 -100 q 226 -54 307 -100 q 100 74 145 -8 q 54 255 54 156 l 54 710 l 270 710 l 270 255 q 305 140 270 179 q 409 100 340 100 q 513 140 478 100 q 548 255 548 179 l 548 710 l 764 710 l 764 255 q 718 71 764 151 q 593 -55 673 -9 q 409 -100 512 -100 z "},"v":{"ha":810,"x_min":-23,"x_max":826,"o":"m 216 710 l 409 208 l 602 710 l 826 710 l 486 -85 l 332 -85 l -23 710 l 216 710 z "},"w":{"ha":1211,"x_min":-15,"x_max":1227,"o":"m 201 710 l 363 231 l 525 710 l 687 710 l 849 231 l 1011 710 l 1227 710 l 934 -85 l 772 -85 l 610 378 l 440 -85 l 285 -85 l -15 710 l 201 710 z "},"x":{"ha":810,"x_min":-8,"x_max":818,"o":"m 8 710 l 262 710 l 409 478 l 563 710 l 802 710 l 540 324 l 818 -85 l 563 -85 l 401 170 l 231 -85 l -8 -85 l 278 324 l 8 710 z "},"y":{"ha":818,"x_min":-8,"x_max":826,"o":"m -8 710 l 224 710 l 401 208 l 594 710 l 826 710 l 471 -85 l 332 -409 l 100 -409 l 285 -15 l -8 710 z "},"z":{"ha":718,"x_min":15,"x_max":694,"o":"m 386 525 l 54 525 l 39 710 l 625 710 q 694 640 694 710 l 694 586 l 324 108 l 679 108 l 694 -85 l 85 -85 q 15 -15 15 -85 l 15 39 l 386 525 z "},"ㄱ":{"ha":1296,"x_min":185,"x_max":1111,"o":"m 1111 139 l 910 139 l 910 648 l 185 648 l 185 833 l 1111 833 l 1111 139 z "},"ﾡ":{"ha":1296,"x_min":185,"x_max":1111,"o":"m 1111 139 l 910 139 l 910 648 l 185 648 l 185 833 l 1111 833 l 1111 139 z "},"ㄲ":{"ha":1296,"x_min":131,"x_max":1157,"o":"m 617 139 l 417 139 l 417 648 l 131 648 l 131 833 l 617 833 l 617 139 m 1157 139 l 957 139 l 957 648 l 687 648 l 687 833 l 1157 833 l 1157 139 z "},"ﾢ":{"ha":1296,"x_min":131,"x_max":1157,"o":"m 617 139 l 417 139 l 417 648 l 131 648 l 131 833 l 617 833 l 617 139 m 1157 139 l 957 139 l 957 648 l 687 648 l 687 833 l 1157 833 l 1157 139 z "},"ㄳ":{"ha":1296,"x_min":131,"x_max":1296,"o":"m 617 281 q 785 454 722 356 q 849 694 849 552 l 849 833 l 1049 833 l 1049 694 q 1117 451 1049 548 q 1296 278 1184 355 l 1157 131 q 1044 231 1096 181 q 949 353 992 282 q 856 226 907 281 q 748 123 806 171 l 617 255 l 617 139 l 417 139 l 417 648 l 131 648 l 131 833 l 617 833 l 617 281 z "},"ﾣ":{"ha":1296,"x_min":131,"x_max":1296,"o":"m 617 281 q 785 454 722 356 q 849 694 849 552 l 849 833 l 1049 833 l 1049 694 q 1117 451 1049 548 q 1296 278 1184 355 l 1157 131 q 1044 231 1096 181 q 949 353 992 282 q 856 226 907 281 q 748 123 806 171 l 617 255 l 617 139 l 417 139 l 417 648 l 131 648 l 131 833 l 617 833 l 617 281 z "},"ㄴ":{"ha":1296,"x_min":185,"x_max":1127,"o":"m 386 833 l 386 332 l 1111 332 l 1127 139 l 255 139 q 185 208 185 139 l 185 833 l 386 833 z "},"ﾤ":{"ha":1296,"x_min":185,"x_max":1127,"o":"m 386 833 l 386 332 l 1111 332 l 1127 139 l 255 139 q 185 208 185 139 l 185 833 l 386 833 z "},"ㄵ":{"ha":1296,"x_min":147,"x_max":1265,"o":"m 1142 139 q 1034 227 1090 173 q 932 352 978 281 q 828 222 886 278 q 718 131 770 167 l 636 224 l 640 170 q 216 139 492 139 q 147 201 151 139 l 147 833 l 347 833 l 347 324 q 625 347 494 324 l 630 292 q 779 437 716 350 q 841 617 841 523 l 841 648 l 640 648 l 640 833 l 1219 833 l 1219 648 l 1026 648 l 1026 617 q 1098 423 1026 512 q 1265 278 1170 333 l 1142 139 z "},"ﾥ":{"ha":1296,"x_min":147,"x_max":1265,"o":"m 1142 139 q 1034 227 1090 173 q 932 352 978 281 q 828 222 886 278 q 718 131 770 167 l 636 224 l 640 170 q 216 139 492 139 q 147 201 151 139 l 147 833 l 347 833 l 347 324 q 625 347 494 324 l 630 292 q 779 437 716 350 q 841 617 841 523 l 841 648 l 640 648 l 640 833 l 1219 833 l 1219 648 l 1026 648 l 1026 617 q 1098 423 1026 512 q 1265 278 1170 333 l 1142 139 z "},"ㄶ":{"ha":1296,"x_min":147,"x_max":1235,"o":"m 147 833 l 347 833 l 347 324 q 610 347 491 324 l 625 170 q 216 139 454 142 q 147 201 151 139 l 147 833 m 1011 926 l 1011 802 l 1235 802 l 1235 625 l 610 625 l 610 802 l 826 802 l 826 926 l 1011 926 m 918 116 q 775 147 838 116 q 676 232 711 177 q 640 355 640 287 q 676 478 640 423 q 775 563 711 532 q 918 594 838 594 q 1062 563 998 594 q 1160 478 1125 532 q 1196 355 1196 423 q 1160 232 1196 287 q 1062 147 1125 177 q 918 116 998 116 m 918 270 q 991 295 963 270 q 1019 355 1019 319 q 991 415 1019 390 q 918 440 963 440 q 846 415 873 440 q 818 355 818 390 q 846 295 818 319 q 918 270 873 270 z "},"ﾦ":{"ha":1296,"x_min":147,"x_max":1235,"o":"m 147 833 l 347 833 l 347 324 q 610 347 491 324 l 625 170 q 216 139 454 142 q 147 201 151 139 l 147 833 m 1011 926 l 1011 802 l 1235 802 l 1235 625 l 610 625 l 610 802 l 826 802 l 826 926 l 1011 926 m 918 116 q 775 147 838 116 q 676 232 711 177 q 640 355 640 287 q 676 478 640 423 q 775 563 711 532 q 918 594 838 594 q 1062 563 998 594 q 1160 478 1125 532 q 1196 355 1196 423 q 1160 232 1196 287 q 1062 147 1125 177 q 918 116 998 116 m 918 270 q 991 295 963 270 q 1019 355 1019 319 q 991 415 1019 390 q 918 440 963 440 q 846 415 873 440 q 818 355 818 390 q 846 295 818 319 q 918 270 873 270 z "},"ㄷ":{"ha":1296,"x_min":185,"x_max":1127,"o":"m 1111 833 l 1111 648 l 386 648 l 386 324 l 1111 324 l 1127 139 l 255 139 q 185 208 185 139 l 185 833 l 1111 833 z "},"ﾧ":{"ha":1296,"x_min":185,"x_max":1127,"o":"m 1111 833 l 1111 648 l 386 648 l 386 324 l 1111 324 l 1127 139 l 255 139 q 185 208 185 139 l 185 833 l 1111 833 z "},"ㄸ":{"ha":1296,"x_min":116,"x_max":1188,"o":"m 602 833 l 602 648 l 301 648 l 301 327 q 617 355 494 335 l 625 170 q 185 139 466 145 q 116 208 116 139 l 116 833 l 602 833 m 1181 833 l 1181 648 l 856 648 l 856 332 l 1188 332 l 1188 147 l 671 147 l 671 833 l 1181 833 z "},"ﾨ":{"ha":1296,"x_min":116,"x_max":1188,"o":"m 602 833 l 602 648 l 301 648 l 301 327 q 617 355 494 335 l 625 170 q 185 139 466 145 q 116 208 116 139 l 116 833 l 602 833 m 1181 833 l 1181 648 l 856 648 l 856 332 l 1188 332 l 1188 147 l 671 147 l 671 833 l 1181 833 z "},"ㄹ":{"ha":1296,"x_min":139,"x_max":1181,"o":"m 1157 833 l 1157 401 l 340 401 l 340 316 l 1165 316 l 1181 139 l 208 139 q 139 208 139 139 l 139 571 l 957 571 l 957 656 l 139 656 l 139 833 l 1157 833 z "},"ﾩ":{"ha":1296,"x_min":139,"x_max":1181,"o":"m 1157 833 l 1157 401 l 340 401 l 340 316 l 1165 316 l 1181 139 l 208 139 q 139 208 139 139 l 139 571 l 957 571 l 957 656 l 139 656 l 139 833 l 1157 833 z "},"ㄺ":{"ha":1296,"x_min":139,"x_max":1157,"o":"m 139 833 l 633 833 l 633 401 l 340 401 l 340 315 q 756 347 588 319 l 772 177 q 535 149 671 157 q 208 139 400 140 q 139 208 139 139 l 139 571 l 440 571 l 440 656 l 139 656 l 139 833 m 1157 139 l 957 139 l 957 640 l 694 640 l 694 833 l 1157 833 l 1157 139 z "},"ﾪ":{"ha":1296,"x_min":139,"x_max":1157,"o":"m 139 833 l 633 833 l 633 401 l 340 401 l 340 315 q 756 347 588 319 l 772 177 q 535 149 671 157 q 208 139 400 140 q 139 208 139 139 l 139 571 l 440 571 l 440 656 l 139 656 l 139 833 m 1157 139 l 957 139 l 957 640 l 694 640 l 694 833 l 1157 833 l 1157 139 z "},"ㄻ":{"ha":1296,"x_min":139,"x_max":1157,"o":"m 1157 833 l 1157 139 l 694 139 l 694 833 l 1157 833 m 980 316 l 980 656 l 872 656 l 872 316 l 980 316 m 139 833 l 633 833 l 633 401 l 340 401 l 340 316 q 656 340 526 316 l 671 170 q 474 145 583 151 q 208 139 364 139 q 139 208 139 139 l 139 571 l 440 571 l 440 656 l 139 656 l 139 833 z "},"ﾫ":{"ha":1296,"x_min":139,"x_max":1157,"o":"m 1157 833 l 1157 139 l 694 139 l 694 833 l 1157 833 m 980 316 l 980 656 l 872 656 l 872 316 l 980 316 m 139 833 l 633 833 l 633 401 l 340 401 l 340 316 q 656 340 526 316 l 671 170 q 474 145 583 151 q 208 139 364 139 q 139 208 139 139 l 139 571 l 440 571 l 440 656 l 139 656 l 139 833 z "},"ㄼ":{"ha":1296,"x_min":139,"x_max":1157,"o":"m 139 833 l 633 833 l 633 401 l 340 401 l 340 309 q 656 332 526 309 l 671 170 q 474 145 583 151 q 208 139 364 139 q 139 208 139 139 l 139 571 l 440 571 l 440 679 l 139 679 l 139 833 m 872 833 l 872 648 l 980 648 l 980 833 l 1157 833 l 1157 139 l 694 139 l 694 833 l 872 833 m 980 316 l 980 478 l 872 478 l 872 316 l 980 316 z "},"ﾬ":{"ha":1296,"x_min":139,"x_max":1157,"o":"m 139 833 l 633 833 l 633 401 l 340 401 l 340 309 q 656 332 526 309 l 671 170 q 474 145 583 151 q 208 139 364 139 q 139 208 139 139 l 139 571 l 440 571 l 440 679 l 139 679 l 139 833 m 872 833 l 872 648 l 980 648 l 980 833 l 1157 833 l 1157 139 l 694 139 l 694 833 l 872 833 m 980 316 l 980 478 l 872 478 l 872 316 l 980 316 z "},"ㄽ":{"ha":1296,"x_min":139,"x_max":1289,"o":"m 1049 849 l 1049 694 q 1121 443 1049 559 q 1289 270 1193 327 l 1142 131 q 1047 223 1099 164 q 952 356 995 282 q 856 215 909 275 q 756 123 804 154 l 651 230 l 656 170 q 468 145 573 151 q 208 139 363 139 q 139 208 139 139 l 139 571 l 440 571 l 440 656 l 139 656 l 139 833 l 633 833 l 633 401 l 340 401 l 340 318 q 640 340 492 319 l 645 281 q 790 456 731 344 q 849 694 849 568 l 849 849 l 1049 849 z "},"ﾭ":{"ha":1296,"x_min":139,"x_max":1289,"o":"m 1049 849 l 1049 694 q 1121 443 1049 559 q 1289 270 1193 327 l 1142 131 q 1047 223 1099 164 q 952 356 995 282 q 856 215 909 275 q 756 123 804 154 l 651 230 l 656 170 q 468 145 573 151 q 208 139 363 139 q 139 208 139 139 l 139 571 l 440 571 l 440 656 l 139 656 l 139 833 l 633 833 l 633 401 l 340 401 l 340 318 q 640 340 492 319 l 645 281 q 790 456 731 344 q 849 694 849 568 l 849 849 l 1049 849 z "},"ㄾ":{"ha":1296,"x_min":139,"x_max":1181,"o":"m 139 833 l 633 833 l 633 401 l 340 401 l 340 316 q 656 340 526 316 l 671 170 q 473 145 583 151 q 208 139 363 139 q 139 208 139 139 l 139 571 l 440 571 l 440 656 l 139 656 l 139 833 m 1165 833 l 1165 656 l 887 656 l 887 571 l 1157 571 l 1157 401 l 887 401 l 887 316 l 1181 316 l 1181 139 l 702 139 l 702 833 l 1165 833 z "},"ﾮ":{"ha":1296,"x_min":139,"x_max":1181,"o":"m 139 833 l 633 833 l 633 401 l 340 401 l 340 316 q 656 340 526 316 l 671 170 q 473 145 583 151 q 208 139 363 139 q 139 208 139 139 l 139 571 l 440 571 l 440 656 l 139 656 l 139 833 m 1165 833 l 1165 656 l 887 656 l 887 571 l 1157 571 l 1157 401 l 887 401 l 887 316 l 1181 316 l 1181 139 l 702 139 l 702 833 l 1165 833 z "},"ㄿ":{"ha":1296,"x_min":139,"x_max":1188,"o":"m 739 340 l 735 648 l 671 648 l 671 833 l 1181 833 l 1181 648 l 1125 648 l 1120 340 l 1188 340 l 1188 154 l 694 154 l 694 340 l 739 340 m 139 833 l 633 833 l 633 401 l 340 401 l 340 309 q 656 332 534 309 l 671 170 q 478 145 588 151 q 208 139 367 139 q 139 208 139 139 l 139 571 l 440 571 l 440 656 l 139 656 l 139 833 m 958 340 l 963 648 l 897 648 l 901 340 l 958 340 z "},"ﾯ":{"ha":1296,"x_min":139,"x_max":1188,"o":"m 739 340 l 735 648 l 671 648 l 671 833 l 1181 833 l 1181 648 l 1125 648 l 1120 340 l 1188 340 l 1188 154 l 694 154 l 694 340 l 739 340 m 139 833 l 633 833 l 633 401 l 340 401 l 340 309 q 656 332 534 309 l 671 170 q 478 145 588 151 q 208 139 367 139 q 139 208 139 139 l 139 571 l 440 571 l 440 656 l 139 656 l 139 833 m 958 340 l 963 648 l 897 648 l 901 340 l 958 340 z "},"ㅀ":{"ha":1296,"x_min":139,"x_max":1227,"o":"m 1042 926 l 1042 810 l 1227 810 l 1227 625 l 664 625 l 664 810 l 841 810 l 841 926 l 1042 926 m 941 123 q 758 188 830 123 q 687 355 687 252 q 758 522 687 458 q 941 586 830 586 q 1124 522 1052 586 q 1196 355 1196 458 q 1124 188 1196 252 q 941 123 1052 123 m 941 285 q 997 306 975 285 q 1019 355 1019 326 q 997 404 1019 384 q 941 424 975 424 q 886 404 907 424 q 864 355 864 384 q 886 306 864 326 q 941 285 907 285 m 139 833 l 633 833 l 633 401 l 340 401 l 340 310 q 656 340 522 307 l 671 170 q 340 139 532 134 q 285 139 313 136 q 208 139 248 136 q 139 208 139 139 l 139 571 l 440 571 l 440 656 l 139 656 l 139 833 z "},"ﾰ":{"ha":1296,"x_min":139,"x_max":1227,"o":"m 1042 926 l 1042 810 l 1227 810 l 1227 625 l 664 625 l 664 810 l 841 810 l 841 926 l 1042 926 m 941 123 q 758 188 830 123 q 687 355 687 252 q 758 522 687 458 q 941 586 830 586 q 1124 522 1052 586 q 1196 355 1196 458 q 1124 188 1196 252 q 941 123 1052 123 m 941 285 q 997 306 975 285 q 1019 355 1019 326 q 997 404 1019 384 q 941 424 975 424 q 886 404 907 424 q 864 355 864 384 q 886 306 864 326 q 941 285 907 285 m 139 833 l 633 833 l 633 401 l 340 401 l 340 310 q 656 340 522 307 l 671 170 q 340 139 532 134 q 285 139 313 136 q 208 139 248 136 q 139 208 139 139 l 139 571 l 440 571 l 440 656 l 139 656 l 139 833 z "},"ㅁ":{"ha":1296,"x_min":177,"x_max":1111,"o":"m 1111 833 l 1111 139 l 247 139 q 177 208 177 139 l 177 833 l 1111 833 m 910 324 l 910 648 l 378 648 l 378 324 l 910 324 z "},"ﾱ":{"ha":1296,"x_min":177,"x_max":1111,"o":"m 1111 833 l 1111 139 l 247 139 q 177 208 177 139 l 177 833 l 1111 833 m 910 324 l 910 648 l 378 648 l 378 324 l 910 324 z "},"ㅂ":{"ha":1296,"x_min":185,"x_max":1111,"o":"m 386 833 l 386 648 l 910 648 l 910 833 l 1111 833 l 1111 139 l 255 139 q 185 208 185 139 l 185 833 l 386 833 m 910 316 l 910 478 l 386 478 l 386 316 l 910 316 z "},"ﾲ":{"ha":1296,"x_min":185,"x_max":1111,"o":"m 386 833 l 386 648 l 910 648 l 910 833 l 1111 833 l 1111 139 l 255 139 q 185 208 185 139 l 185 833 l 386 833 m 910 316 l 910 478 l 386 478 l 386 316 l 910 316 z "},"ㅃ":{"ha":1296,"x_min":162,"x_max":1134,"o":"m 347 833 l 347 648 l 563 648 l 563 833 l 741 833 l 741 648 l 949 648 l 949 833 l 1134 833 l 1134 139 l 231 139 q 162 208 162 139 l 162 833 l 347 833 m 563 324 l 563 478 l 347 478 l 347 324 l 563 324 m 949 324 l 949 478 l 741 478 l 741 324 l 949 324 z "},"ﾳ":{"ha":1296,"x_min":162,"x_max":1134,"o":"m 347 833 l 347 648 l 563 648 l 563 833 l 741 833 l 741 648 l 949 648 l 949 833 l 1134 833 l 1134 139 l 231 139 q 162 208 162 139 l 162 833 l 347 833 m 563 324 l 563 478 l 347 478 l 347 324 l 563 324 m 949 324 l 949 478 l 741 478 l 741 324 l 949 324 z "},"ㅄ":{"ha":1296,"x_min":139,"x_max":1289,"o":"m 316 833 l 316 648 l 455 648 l 455 833 l 633 833 l 633 267 q 787 450 725 340 q 849 694 849 560 l 849 841 l 1049 841 l 1049 694 q 1117 444 1049 554 q 1289 262 1185 333 l 1142 123 q 949 349 1017 231 q 756 116 878 221 l 633 239 l 633 139 l 139 139 l 139 833 l 316 833 m 455 309 l 455 494 l 316 494 l 316 309 l 455 309 z "},"ﾴ":{"ha":1296,"x_min":139,"x_max":1289,"o":"m 316 833 l 316 648 l 455 648 l 455 833 l 633 833 l 633 267 q 787 450 725 340 q 849 694 849 560 l 849 841 l 1049 841 l 1049 694 q 1117 444 1049 554 q 1289 262 1185 333 l 1142 123 q 949 349 1017 231 q 756 116 878 221 l 633 239 l 633 139 l 139 139 l 139 833 l 316 833 m 455 309 l 455 494 l 316 494 l 316 309 l 455 309 z "},"ㅅ":{"ha":1296,"x_min":139,"x_max":1157,"o":"m 756 833 l 756 733 q 813 544 756 625 q 953 407 869 463 q 1157 293 1037 352 l 1057 123 q 648 420 776 239 q 239 116 520 239 l 139 285 q 428 470 316 364 q 540 733 540 576 l 540 833 l 756 833 z "},"ﾵ":{"ha":1296,"x_min":139,"x_max":1157,"o":"m 756 833 l 756 733 q 813 544 756 625 q 953 407 869 463 q 1157 293 1037 352 l 1057 123 q 648 420 776 239 q 239 116 520 239 l 139 285 q 428 470 316 364 q 540 733 540 576 l 540 833 l 756 833 z "},"ㅆ":{"ha":1296,"x_min":15,"x_max":1281,"o":"m 15 278 q 285 733 285 458 l 285 833 l 486 833 l 486 733 q 532 534 486 628 q 648 370 577 440 q 765 534 719 440 q 810 733 810 628 l 810 833 l 1011 833 l 1011 733 q 1281 285 1011 460 l 1150 123 q 906 386 991 231 q 779 218 850 290 q 648 116 707 145 q 518 221 588 150 q 392 386 448 292 q 154 116 313 236 l 15 278 z "},"ﾶ":{"ha":1296,"x_min":15,"x_max":1281,"o":"m 15 278 q 285 733 285 458 l 285 833 l 486 833 l 486 733 q 532 534 486 628 q 648 370 577 440 q 765 534 719 440 q 810 733 810 628 l 810 833 l 1011 833 l 1011 733 q 1281 285 1011 460 l 1150 123 q 906 386 991 231 q 779 218 850 290 q 648 116 707 145 q 518 221 588 150 q 392 386 448 292 q 154 116 313 236 l 15 278 z "},"ㅇ":{"ha":1296,"x_min":162,"x_max":1134,"o":"m 648 116 q 397 163 508 116 q 224 295 285 210 q 162 486 162 380 q 224 677 162 593 q 397 809 285 762 q 648 856 508 856 q 900 809 789 856 q 1073 677 1011 762 q 1134 486 1134 593 q 1073 295 1134 380 q 900 163 1011 210 q 648 116 789 116 m 648 316 q 831 364 759 316 q 903 486 903 412 q 831 608 903 560 q 648 656 759 656 q 463 609 532 656 q 394 486 394 562 q 465 364 394 412 q 648 316 537 316 z "},"ﾷ":{"ha":1296,"x_min":162,"x_max":1134,"o":"m 648 116 q 397 163 508 116 q 224 295 285 210 q 162 486 162 380 q 224 677 162 593 q 397 809 285 762 q 648 856 508 856 q 900 809 789 856 q 1073 677 1011 762 q 1134 486 1134 593 q 1073 295 1134 380 q 900 163 1011 210 q 648 116 789 116 m 648 316 q 831 364 759 316 q 903 486 903 412 q 831 608 903 560 q 648 656 759 656 q 463 609 532 656 q 394 486 394 562 q 465 364 394 412 q 648 316 537 316 z "},"ㅈ":{"ha":1296,"x_min":62,"x_max":1242,"o":"m 62 270 q 396 417 256 330 q 540 648 535 505 l 131 648 l 131 833 l 1173 833 l 1173 648 l 756 648 q 900 421 761 505 q 1242 278 1040 338 l 1127 123 q 855 228 972 173 q 653 383 738 284 q 443 219 566 279 q 177 116 319 159 l 62 270 z "},"ﾸ":{"ha":1296,"x_min":62,"x_max":1242,"o":"m 62 270 q 396 417 256 330 q 540 648 535 505 l 131 648 l 131 833 l 1173 833 l 1173 648 l 756 648 q 900 421 761 505 q 1242 278 1040 338 l 1127 123 q 855 228 972 173 q 653 383 738 284 q 443 219 566 279 q 177 116 319 159 l 62 270 z "},"ㅉ":{"ha":1296,"x_min":46,"x_max":1250,"o":"m 46 270 q 235 414 156 321 q 316 623 315 508 l 316 640 l 316 648 l 123 648 l 108 833 l 633 833 l 633 648 l 502 648 l 502 640 q 500 610 502 620 q 542 468 502 531 q 650 353 582 406 q 802 623 801 474 l 802 640 l 802 648 l 671 648 l 671 833 l 1181 833 l 1181 648 l 980 648 l 980 640 l 980 625 q 1063 417 981 509 q 1250 270 1144 324 l 1142 131 q 889 358 972 235 q 778 229 841 287 q 648 131 715 171 q 520 227 583 170 q 410 352 457 284 q 154 123 324 227 l 46 270 z "},"ﾹ":{"ha":1296,"x_min":46,"x_max":1250,"o":"m 46 270 q 235 414 156 321 q 316 623 315 508 l 316 640 l 316 648 l 123 648 l 108 833 l 633 833 l 633 648 l 502 648 l 502 640 q 500 610 502 620 q 542 468 502 531 q 650 353 582 406 q 802 623 801 474 l 802 640 l 802 648 l 671 648 l 671 833 l 1181 833 l 1181 648 l 980 648 l 980 640 l 980 625 q 1063 417 981 509 q 1250 270 1144 324 l 1142 131 q 889 358 972 235 q 778 229 841 287 q 648 131 715 171 q 520 227 583 170 q 410 352 457 284 q 154 123 324 227 l 46 270 z "},"ㅊ":{"ha":1296,"x_min":62,"x_max":1242,"o":"m 756 918 l 756 787 l 1173 787 l 1173 602 l 762 602 q 863 469 782 535 q 1049 353 944 403 q 1242 285 1154 304 l 1127 123 q 873 229 1006 159 q 651 398 739 299 q 430 224 563 296 q 177 116 296 151 l 62 278 q 253 347 150 296 q 435 466 356 398 q 534 602 514 534 l 131 602 l 131 787 l 540 787 l 540 918 l 756 918 z "},"ﾺ":{"ha":1296,"x_min":62,"x_max":1242,"o":"m 756 918 l 756 787 l 1173 787 l 1173 602 l 762 602 q 863 469 782 535 q 1049 353 944 403 q 1242 285 1154 304 l 1127 123 q 873 229 1006 159 q 651 398 739 299 q 430 224 563 296 q 177 116 296 151 l 62 278 q 253 347 150 296 q 435 466 356 398 q 534 602 514 534 l 131 602 l 131 787 l 540 787 l 540 918 l 756 918 z "},"ㅋ":{"ha":1296,"x_min":116,"x_max":1157,"o":"m 1157 139 l 972 139 l 972 355 q 570 315 798 329 q 131 301 343 301 l 116 486 q 568 495 333 486 q 972 522 802 505 l 972 648 l 139 648 l 139 833 l 1157 833 l 1157 139 z "},"ﾻ":{"ha":1296,"x_min":116,"x_max":1157,"o":"m 1157 139 l 972 139 l 972 355 q 570 315 798 329 q 131 301 343 301 l 116 486 q 568 495 333 486 q 972 522 802 505 l 972 648 l 139 648 l 139 833 l 1157 833 l 1157 139 z "},"ㅌ":{"ha":1296,"x_min":139,"x_max":1188,"o":"m 1165 833 l 1165 656 l 340 656 l 340 571 l 1157 571 l 1157 401 l 340 401 l 340 316 l 1173 316 l 1188 139 l 208 139 q 139 208 139 139 l 139 833 l 1165 833 z "},"ﾼ":{"ha":1296,"x_min":139,"x_max":1188,"o":"m 1165 833 l 1165 656 l 340 656 l 340 571 l 1157 571 l 1157 401 l 340 401 l 340 316 l 1173 316 l 1188 139 l 208 139 q 139 208 139 139 l 139 833 l 1165 833 z "},"ㅍ":{"ha":1296,"x_min":116,"x_max":1181,"o":"m 335 324 l 321 648 l 139 648 l 139 833 l 1157 833 l 1157 648 l 992 648 l 977 324 l 1181 324 l 1181 139 l 116 139 l 116 324 l 335 324 m 776 324 l 792 648 l 522 648 l 535 324 l 776 324 z "},"ﾽ":{"ha":1296,"x_min":116,"x_max":1181,"o":"m 335 324 l 321 648 l 139 648 l 139 833 l 1157 833 l 1157 648 l 992 648 l 977 324 l 1181 324 l 1181 139 l 116 139 l 116 324 l 335 324 m 776 324 l 792 648 l 522 648 l 535 324 l 776 324 z "},"ㅎ":{"ha":1296,"x_min":108,"x_max":1196,"o":"m 648 116 q 265 175 392 116 q 139 355 139 235 q 265 535 139 475 q 648 594 392 594 q 1031 535 904 594 q 1157 355 1157 475 q 1031 175 1157 235 q 648 116 904 116 m 648 270 q 882 292 799 270 q 965 355 965 315 q 882 417 965 395 q 648 440 799 440 q 421 417 503 440 q 340 355 340 395 q 421 292 340 315 q 648 270 503 270 m 748 903 l 748 810 l 1196 810 l 1196 656 l 108 656 l 108 810 l 548 810 l 548 903 l 748 903 z "},"ﾾ":{"ha":1296,"x_min":108,"x_max":1196,"o":"m 648 116 q 265 175 392 116 q 139 355 139 235 q 265 535 139 475 q 648 594 392 594 q 1031 535 904 594 q 1157 355 1157 475 q 1031 175 1157 235 q 648 116 904 116 m 648 270 q 882 292 799 270 q 965 355 965 315 q 882 417 965 395 q 648 440 799 440 q 421 417 503 440 q 340 355 340 395 q 421 292 340 315 q 648 270 503 270 m 748 903 l 748 810 l 1196 810 l 1196 656 l 108 656 l 108 810 l 548 810 l 548 903 l 748 903 z "},"ㅏ":{"ha":1296,"x_min":463,"x_max":841,"o":"m 671 1157 l 671 694 l 841 694 l 841 494 l 671 494 l 671 -162 l 463 -162 l 463 1157 l 671 1157 z "},"ￂ":{"ha":1296,"x_min":463,"x_max":841,"o":"m 671 1157 l 671 694 l 841 694 l 841 494 l 671 494 l 671 -162 l 463 -162 l 463 1157 l 671 1157 z "},"ㅐ":{"ha":1296,"x_min":401,"x_max":903,"o":"m 594 1157 l 594 687 l 710 687 l 710 1157 l 903 1157 l 903 -162 l 710 -162 l 710 478 l 594 478 l 594 -162 l 401 -162 l 401 1157 l 594 1157 z "},"ￃ":{"ha":1296,"x_min":401,"x_max":903,"o":"m 594 1157 l 594 687 l 710 687 l 710 1157 l 903 1157 l 903 -162 l 710 -162 l 710 478 l 594 478 l 594 -162 l 401 -162 l 401 1157 l 594 1157 z "},"ㅑ":{"ha":1296,"x_min":463,"x_max":841,"o":"m 671 1157 l 671 880 l 841 880 l 841 679 l 671 679 l 671 478 l 841 478 l 841 278 l 671 278 l 671 -162 l 463 -162 l 463 1157 l 671 1157 z "},"ￄ":{"ha":1296,"x_min":463,"x_max":841,"o":"m 671 1157 l 671 880 l 841 880 l 841 679 l 671 679 l 671 478 l 841 478 l 841 278 l 671 278 l 671 -162 l 463 -162 l 463 1157 l 671 1157 z "},"ㅒ":{"ha":1296,"x_min":394,"x_max":895,"o":"m 586 1157 l 586 880 l 702 880 l 702 1157 l 895 1157 l 895 -162 l 702 -162 l 702 278 l 586 278 l 586 -162 l 394 -162 l 394 1157 l 586 1157 m 702 463 l 702 694 l 586 694 l 586 463 l 702 463 z "},"ￅ":{"ha":1296,"x_min":394,"x_max":895,"o":"m 586 1157 l 586 880 l 702 880 l 702 1157 l 895 1157 l 895 -162 l 702 -162 l 702 278 l 586 278 l 586 -162 l 394 -162 l 394 1157 l 586 1157 m 702 463 l 702 694 l 586 694 l 586 463 l 702 463 z "},"ㅓ":{"ha":1296,"x_min":386,"x_max":910,"o":"m 702 710 l 702 1157 l 910 1157 l 910 -162 l 702 -162 l 702 509 l 386 509 l 386 710 l 702 710 z "},"ￆ":{"ha":1296,"x_min":386,"x_max":910,"o":"m 702 710 l 702 1157 l 910 1157 l 910 -162 l 702 -162 l 702 509 l 386 509 l 386 710 l 702 710 z "},"ㅔ":{"ha":1296,"x_min":324,"x_max":980,"o":"m 509 710 l 509 1157 l 702 1157 l 702 -162 l 509 -162 l 509 509 l 324 509 l 324 710 l 509 710 m 980 1157 l 980 -162 l 787 -162 l 787 1157 l 980 1157 z "},"ￇ":{"ha":1296,"x_min":324,"x_max":980,"o":"m 509 710 l 509 1157 l 702 1157 l 702 -162 l 509 -162 l 509 509 l 324 509 l 324 710 l 509 710 m 980 1157 l 980 -162 l 787 -162 l 787 1157 l 980 1157 z "},"ㅕ":{"ha":1296,"x_min":401,"x_max":903,"o":"m 903 1157 l 903 -162 l 694 -162 l 694 278 l 401 278 l 401 478 l 694 478 l 694 679 l 401 679 l 401 880 l 694 880 l 694 1157 l 903 1157 z "},"ￊ":{"ha":1296,"x_min":401,"x_max":903,"o":"m 903 1157 l 903 -162 l 694 -162 l 694 278 l 401 278 l 401 478 l 694 478 l 694 679 l 401 679 l 401 880 l 694 880 l 694 1157 l 903 1157 z "},"ㅖ":{"ha":1296,"x_min":324,"x_max":972,"o":"m 972 1157 l 972 -162 l 779 -162 l 779 1157 l 972 1157 m 694 1157 l 694 -162 l 502 -162 l 502 278 l 324 278 l 324 478 l 502 478 l 502 679 l 324 679 l 324 880 l 502 880 l 502 1157 l 694 1157 z "},"ￋ":{"ha":1296,"x_min":324,"x_max":972,"o":"m 972 1157 l 972 -162 l 779 -162 l 779 1157 l 972 1157 m 694 1157 l 694 -162 l 502 -162 l 502 278 l 324 278 l 324 478 l 502 478 l 502 679 l 324 679 l 324 880 l 502 880 l 502 1157 l 694 1157 z "},"ㅗ":{"ha":1296,"x_min":39,"x_max":1265,"o":"m 548 309 l 548 826 l 756 826 l 756 309 l 1265 309 l 1265 139 l 39 139 l 39 309 l 548 309 z "},"ￌ":{"ha":1296,"x_min":39,"x_max":1265,"o":"m 548 309 l 548 826 l 756 826 l 756 309 l 1265 309 l 1265 139 l 39 139 l 39 309 l 548 309 z "},"ㅘ":{"ha":1296,"x_min":39,"x_max":1296,"o":"m 1150 1150 l 1150 671 l 1296 671 l 1296 463 l 1150 463 l 1150 -162 l 965 -162 l 965 1150 l 1150 1150 m 548 455 l 548 173 q 903 208 790 188 l 903 23 q 596 -8 799 6 q 255 -23 394 -23 l 39 -23 l 39 162 l 255 162 l 363 164 l 363 455 l 548 455 z "},"ￍ":{"ha":1296,"x_min":39,"x_max":1296,"o":"m 1150 1150 l 1150 671 l 1296 671 l 1296 463 l 1150 463 l 1150 -162 l 965 -162 l 965 1150 l 1150 1150 m 548 455 l 548 173 q 903 208 790 188 l 903 23 q 596 -8 799 6 q 255 -23 394 -23 l 39 -23 l 39 162 l 255 162 l 363 164 l 363 455 l 548 455 z "},"ㅙ":{"ha":1296,"x_min":15,"x_max":1242,"o":"m 918 1150 l 918 671 l 1065 671 l 1065 1150 l 1242 1150 l 1242 -162 l 1065 -162 l 1065 463 l 918 463 l 918 -162 l 741 -162 l 741 1150 l 918 1150 m 417 455 l 417 177 q 679 208 557 188 l 679 23 q 404 -9 568 5 q 108 -23 241 -23 l 15 -23 l 15 162 l 108 162 q 255 167 176 162 l 255 455 l 417 455 z "},"ￎ":{"ha":1296,"x_min":15,"x_max":1242,"o":"m 918 1150 l 918 671 l 1065 671 l 1065 1150 l 1242 1150 l 1242 -162 l 1065 -162 l 1065 463 l 918 463 l 918 -162 l 741 -162 l 741 1150 l 918 1150 m 417 455 l 417 177 q 679 208 557 188 l 679 23 q 404 -9 568 5 q 108 -23 241 -23 l 15 -23 l 15 162 l 108 162 q 255 167 176 162 l 255 455 l 417 455 z "},"ㅚ":{"ha":1296,"x_min":39,"x_max":1196,"o":"m 548 455 l 548 173 q 903 208 789 188 l 903 23 q 603 -8 798 6 q 270 -23 407 -23 l 39 -23 l 39 162 l 270 162 l 363 164 l 363 455 l 548 455 m 1196 1150 l 1196 -162 l 995 -162 l 995 1150 l 1196 1150 z "},"ￏ":{"ha":1296,"x_min":39,"x_max":1196,"o":"m 548 455 l 548 173 q 903 208 789 188 l 903 23 q 603 -8 798 6 q 270 -23 407 -23 l 39 -23 l 39 162 l 270 162 l 363 164 l 363 455 l 548 455 m 1196 1150 l 1196 -162 l 995 -162 l 995 1150 l 1196 1150 z "},"ㅛ":{"ha":1296,"x_min":39,"x_max":1265,"o":"m 324 309 l 324 826 l 525 826 l 525 309 l 779 309 l 779 826 l 972 826 l 972 309 l 1265 309 l 1265 139 l 39 139 l 39 309 l 324 309 z "},"ￒ":{"ha":1296,"x_min":39,"x_max":1265,"o":"m 324 309 l 324 826 l 525 826 l 525 309 l 779 309 l 779 826 l 972 826 l 972 309 l 1265 309 l 1265 139 l 39 139 l 39 309 l 324 309 z "},"ㅜ":{"ha":1296,"x_min":39,"x_max":1265,"o":"m 1265 826 l 1265 648 l 756 648 l 756 139 l 548 139 l 548 648 l 39 648 l 39 826 l 1265 826 z "},"ￓ":{"ha":1296,"x_min":39,"x_max":1265,"o":"m 1265 826 l 1265 648 l 756 648 l 756 139 l 548 139 l 548 648 l 39 648 l 39 826 l 1265 826 z "},"ㅝ":{"ha":1296,"x_min":46,"x_max":1204,"o":"m 1003 208 l 1003 1157 l 1204 1157 l 1204 -162 l 1003 -162 l 1003 62 l 648 62 l 648 208 l 1003 208 m 185 486 q 603 500 389 486 q 941 532 818 514 l 941 347 q 559 312 787 326 l 532 -162 l 332 -162 l 358 304 l 185 301 l 46 301 l 46 486 l 185 486 z "},"ￔ":{"ha":1296,"x_min":46,"x_max":1204,"o":"m 1003 208 l 1003 1157 l 1204 1157 l 1204 -162 l 1003 -162 l 1003 62 l 648 62 l 648 208 l 1003 208 m 185 486 q 603 500 389 486 q 941 532 818 514 l 941 347 q 559 312 787 326 l 532 -162 l 332 -162 l 358 304 l 185 301 l 46 301 l 46 486 l 185 486 z "},"ㅞ":{"ha":1296,"x_min":23,"x_max":1242,"o":"m 1242 1150 l 1242 -162 l 1080 -162 l 1080 1150 l 1242 1150 m 949 1150 l 949 -162 l 787 -162 l 787 -8 l 532 -8 l 532 116 l 787 116 l 787 1150 l 949 1150 m 139 363 q 454 375 284 363 q 733 409 623 387 l 733 255 q 435 219 616 231 l 417 -162 l 247 -162 l 264 210 l 139 208 l 23 208 l 23 363 l 139 363 z "},"ￕ":{"ha":1296,"x_min":23,"x_max":1242,"o":"m 1242 1150 l 1242 -162 l 1080 -162 l 1080 1150 l 1242 1150 m 949 1150 l 949 -162 l 787 -162 l 787 -8 l 532 -8 l 532 116 l 787 116 l 787 1150 l 949 1150 m 139 363 q 454 375 284 363 q 733 409 623 387 l 733 255 q 435 219 616 231 l 417 -162 l 247 -162 l 264 210 l 139 208 l 23 208 l 23 363 l 139 363 z "},"ㅟ":{"ha":1296,"x_min":39,"x_max":1204,"o":"m 177 486 q 591 500 381 486 q 926 532 801 514 l 926 363 q 552 327 775 341 l 525 -162 l 340 -162 l 367 319 l 177 316 l 39 316 l 39 486 l 177 486 m 1204 1157 l 1204 -162 l 1003 -162 l 1003 1157 l 1204 1157 z "},"ￖ":{"ha":1296,"x_min":39,"x_max":1204,"o":"m 177 486 q 591 500 381 486 q 926 532 801 514 l 926 363 q 552 327 775 341 l 525 -162 l 340 -162 l 367 319 l 177 316 l 39 316 l 39 486 l 177 486 m 1204 1157 l 1204 -162 l 1003 -162 l 1003 1157 l 1204 1157 z "},"ㅠ":{"ha":1296,"x_min":39,"x_max":1265,"o":"m 1265 826 l 1265 640 l 988 640 l 988 139 l 787 139 l 787 640 l 509 640 l 509 139 l 316 139 l 316 640 l 39 640 l 39 826 l 1265 826 z "},"ￗ":{"ha":1296,"x_min":39,"x_max":1265,"o":"m 1265 826 l 1265 640 l 988 640 l 988 139 l 787 139 l 787 640 l 509 640 l 509 139 l 316 139 l 316 640 l 39 640 l 39 826 l 1265 826 z "},"ㅡ":{"ha":1296,"x_min":46,"x_max":1258,"o":"m 1242 579 l 1258 394 l 46 394 l 46 579 l 1242 579 z "},"ￚ":{"ha":1296,"x_min":46,"x_max":1258,"o":"m 1242 579 l 1258 394 l 46 394 l 46 579 l 1242 579 z "},"ㅢ":{"ha":1296,"x_min":46,"x_max":1204,"o":"m 177 154 q 583 169 350 154 q 926 201 815 184 l 926 15 q 583 -16 815 -2 q 177 -31 350 -31 l 46 -31 l 46 154 l 177 154 m 1204 1157 l 1204 -162 l 1003 -162 l 1003 1157 l 1204 1157 z "},"ￛ":{"ha":1296,"x_min":46,"x_max":1204,"o":"m 177 154 q 583 169 350 154 q 926 201 815 184 l 926 15 q 583 -16 815 -2 q 177 -31 350 -31 l 46 -31 l 46 154 l 177 154 m 1204 1157 l 1204 -162 l 1003 -162 l 1003 1157 l 1204 1157 z "},"ㅣ":{"ha":1296,"x_min":548,"x_max":756,"o":"m 756 1157 l 756 -162 l 548 -162 l 548 1157 l 756 1157 z "},"ￜ":{"ha":1296,"x_min":548,"x_max":756,"o":"m 756 1157 l 756 -162 l 548 -162 l 548 1157 l 756 1157 z "},"ᄀ":{"ha":1296,"x_min":15,"x_max":741,"o":"m 671 1065 q 741 995 741 1065 q 577 396 724 636 q 154 15 431 156 l 15 162 q 374 451 244 272 q 529 880 505 631 l 77 880 l 62 1065 l 671 1065 z "},"ᄁ":{"ha":1296,"x_min":-8,"x_max":849,"o":"m 448 1065 q 377 495 448 750 q 170 62 307 239 l -8 162 q 175 478 106 296 q 256 880 244 660 l 69 880 l 54 1065 l 448 1065 m 787 1065 q 849 995 849 1060 q 775 413 843 679 q 571 -23 708 147 l 394 85 q 573 435 502 222 q 656 880 645 648 l 486 880 l 486 1065 l 787 1065 z "},"ᄂ":{"ha":1296,"x_min":85,"x_max":810,"o":"m 293 1073 l 293 270 q 795 316 566 276 l 810 123 q 154 62 549 69 q 85 131 85 62 l 85 1073 l 293 1073 z "},"ᄃ":{"ha":1296,"x_min":85,"x_max":833,"o":"m 741 1065 l 741 880 l 293 880 l 293 258 q 818 309 585 259 l 833 116 q 520 79 699 94 q 154 62 341 63 q 85 131 85 62 l 85 1065 l 741 1065 z "},"ᄄ":{"ha":1296,"x_min":69,"x_max":903,"o":"m 417 1065 l 417 880 l 270 880 l 270 247 q 409 262 350 252 l 417 85 q 139 62 299 66 q 69 131 69 62 l 69 1065 l 417 1065 m 849 1065 l 849 880 l 664 880 l 664 244 q 887 278 801 252 l 903 108 q 699 74 819 86 q 463 62 579 62 l 463 1065 l 849 1065 z "},"ᄅ":{"ha":1296,"x_min":62,"x_max":849,"o":"m 671 1065 q 741 995 741 1065 l 741 486 l 270 486 l 270 258 q 833 309 559 262 l 849 116 q 139 62 594 66 q 69 131 69 62 l 69 671 l 540 671 l 540 880 l 77 880 l 62 1065 l 671 1065 z "},"ᄆ":{"ha":1296,"x_min":69,"x_max":756,"o":"m 687 1065 q 756 995 756 1065 l 756 62 l 139 62 q 69 131 69 62 l 69 1065 l 687 1065 m 270 880 l 270 247 l 556 247 l 556 880 l 270 880 z "},"ᄇ":{"ha":1296,"x_min":69,"x_max":756,"o":"m 270 1073 l 270 741 l 556 741 l 556 1073 l 756 1073 l 756 62 l 139 62 q 69 131 69 62 l 69 1073 l 270 1073 m 556 247 l 556 556 l 270 556 l 270 247 l 556 247 z "},"ᄈ":{"ha":1296,"x_min":69,"x_max":856,"o":"m 262 1073 l 262 741 l 378 741 l 378 1073 l 556 1073 l 556 741 l 671 741 l 671 1073 l 856 1073 l 856 62 l 139 62 q 69 131 69 62 l 69 1073 l 262 1073 m 378 247 l 378 556 l 262 556 l 262 247 l 378 247 m 671 247 l 671 556 l 556 556 l 556 247 l 671 247 z "},"ᄉ":{"ha":1296,"x_min":-23,"x_max":856,"o":"m 517 1080 l 517 802 q 613 443 517 608 q 856 170 710 278 l 718 23 q 557 187 637 86 q 418 410 477 287 q 283 184 361 285 q 123 15 205 82 l -23 162 q 219 438 122 270 q 316 802 316 606 l 316 1080 l 517 1080 z "},"ᄊ":{"ha":1296,"x_min":-39,"x_max":965,"o":"m -39 123 q 123 421 62 242 q 185 787 185 600 l 185 1073 l 355 1073 l 355 787 q 385 564 355 674 q 463 361 415 454 q 541 564 511 454 q 571 787 571 674 l 571 1073 l 748 1073 l 748 787 q 805 428 748 596 q 965 139 861 261 l 826 31 q 654 315 719 151 q 463 23 579 139 q 276 313 349 137 q 108 15 211 131 l -39 123 z "},"ᄋ":{"ha":1296,"x_min":23,"x_max":756,"o":"m 394 15 q 23 556 23 15 q 394 1103 23 1103 q 664 965 573 1103 q 756 556 756 827 q 394 15 756 15 m 394 193 q 556 556 556 193 q 394 918 556 918 q 224 556 224 918 q 394 193 224 193 z "},"ᄌ":{"ha":1296,"x_min":-23,"x_max":856,"o":"m -23 162 q 219 438 122 270 q 316 802 316 606 l 316 880 l 46 880 l 31 1065 l 795 1065 l 795 880 l 517 880 l 517 802 q 613 443 517 608 q 856 170 710 278 l 718 23 q 557 187 637 86 q 418 410 477 287 q 283 184 361 285 q 123 15 205 82 l -23 162 z "},"ᄍ":{"ha":1296,"x_min":-39,"x_max":965,"o":"m -39 123 q 123 421 62 242 q 185 787 185 600 l 185 880 l 15 880 l 0 1065 l 448 1065 l 448 880 l 355 880 l 355 787 q 385 564 355 674 q 463 361 415 454 q 541 564 511 454 q 571 787 571 674 l 571 880 l 486 880 l 486 1065 l 910 1065 l 910 880 l 748 880 l 748 787 q 805 428 748 596 q 965 139 861 261 l 826 31 q 654 315 719 151 q 463 23 579 139 q 276 313 349 137 q 108 15 211 131 l -39 123 z "},"ᄎ":{"ha":1296,"x_min":-15,"x_max":856,"o":"m -15 162 q 226 397 136 265 q 316 718 316 528 l 316 810 l 31 810 l 15 995 l 316 995 l 316 1181 l 517 1181 l 517 995 l 810 995 l 810 810 l 517 810 l 517 718 q 609 403 517 529 q 856 170 701 276 l 718 23 q 417 356 525 162 q 283 165 361 252 q 123 15 205 79 l -15 162 z "},"ᄏ":{"ha":1296,"x_min":15,"x_max":741,"o":"m 23 671 q 266 681 139 671 q 495 710 394 690 q 526 880 517 785 l 77 880 l 62 1065 l 671 1065 q 741 995 741 1065 q 574 386 724 633 q 139 0 424 139 l 15 170 q 426 534 296 293 q 229 498 332 511 q 46 486 127 486 l 23 671 z "},"ᄐ":{"ha":1296,"x_min":85,"x_max":856,"o":"m 779 1065 l 779 880 l 293 880 l 293 671 l 756 671 l 756 486 l 293 486 l 293 265 q 595 279 449 267 q 841 309 741 290 l 856 116 q 535 79 724 94 q 154 62 346 63 q 85 131 85 62 l 85 1065 l 779 1065 z "},"ᄑ":{"ha":1296,"x_min":23,"x_max":880,"o":"m 833 1065 l 833 880 l 702 880 l 694 270 q 864 293 798 279 l 880 116 q 495 77 741 93 q 23 62 250 62 l 23 247 l 185 248 l 170 880 l 39 880 l 23 1065 l 833 1065 m 494 256 l 502 880 l 370 880 l 386 252 l 494 256 z "},"ᄒ":{"ha":1296,"x_min":8,"x_max":826,"o":"m 517 1181 l 517 995 l 826 995 l 826 810 l 23 810 l 8 995 l 316 995 l 316 1181 l 517 1181 m 417 -15 q 157 83 253 -15 q 62 355 62 182 q 106 555 62 469 q 230 687 150 640 q 417 733 310 733 q 603 687 523 733 q 728 555 684 640 q 772 355 772 469 q 676 83 772 182 q 417 -15 580 -15 m 417 162 q 533 215 488 162 q 579 355 579 269 q 533 495 579 441 q 417 548 488 548 q 300 495 346 548 q 255 355 255 441 q 300 215 255 269 q 417 162 346 162 z "},"ᅡ":{"ha":1296,"x_min":941,"x_max":1319,"o":"m 1150 1157 l 1150 694 l 1319 694 l 1319 494 l 1150 494 l 1150 -162 l 941 -162 l 941 1157 l 1150 1157 z "},"ᅢ":{"ha":1296,"x_min":718,"x_max":1219,"o":"m 910 1157 l 910 687 l 1026 687 l 1026 1157 l 1219 1157 l 1219 -162 l 1026 -162 l 1026 478 l 910 478 l 910 -162 l 718 -162 l 718 1157 l 910 1157 z "},"ᅣ":{"ha":1296,"x_min":941,"x_max":1319,"o":"m 1150 1157 l 1150 880 l 1319 880 l 1319 679 l 1150 679 l 1150 478 l 1319 478 l 1319 278 l 1150 278 l 1150 -162 l 941 -162 l 941 1157 l 1150 1157 z "},"ᅤ":{"ha":1296,"x_min":718,"x_max":1219,"o":"m 910 1157 l 910 880 l 1026 880 l 1026 1157 l 1219 1157 l 1219 -162 l 1026 -162 l 1026 278 l 910 278 l 910 -162 l 718 -162 l 718 1157 l 910 1157 m 1026 463 l 1026 694 l 910 694 l 910 463 l 1026 463 z "},"ᅥ":{"ha":1296,"x_min":671,"x_max":1196,"o":"m 988 710 l 988 1157 l 1196 1157 l 1196 -162 l 988 -162 l 988 509 l 671 509 l 671 710 l 988 710 z "},"ᅦ":{"ha":1296,"x_min":563,"x_max":1219,"o":"m 748 710 l 748 1157 l 941 1157 l 941 -162 l 748 -162 l 748 509 l 563 509 l 563 710 l 748 710 m 1219 1157 l 1219 -162 l 1026 -162 l 1026 1157 l 1219 1157 z "},"ᅧ":{"ha":1296,"x_min":694,"x_max":1196,"o":"m 1196 1157 l 1196 -162 l 988 -162 l 988 278 l 694 278 l 694 478 l 988 478 l 988 679 l 694 679 l 694 880 l 988 880 l 988 1157 l 1196 1157 z "},"ᅨ":{"ha":1296,"x_min":571,"x_max":1219,"o":"m 1219 1157 l 1219 -162 l 1026 -162 l 1026 1157 l 1219 1157 m 941 1157 l 941 -162 l 748 -162 l 748 278 l 571 278 l 571 478 l 748 478 l 748 679 l 571 679 l 571 880 l 748 880 l 748 1157 l 941 1157 z "},"ᅩ":{"ha":1296,"x_min":39,"x_max":1265,"o":"m 548 93 l 548 432 l 756 432 l 756 93 l 1265 93 l 1265 -77 l 39 -77 l 39 93 l 548 93 z "},"ᅪ":{"ha":1296,"x_min":39,"x_max":1296,"o":"m 1150 1150 l 1150 671 l 1296 671 l 1296 463 l 1150 463 l 1150 -162 l 965 -162 l 965 1150 l 1150 1150 m 548 455 l 548 173 q 903 208 790 188 l 903 23 q 596 -8 799 6 q 255 -23 394 -23 l 39 -23 l 39 162 l 255 162 l 363 164 l 363 455 l 548 455 z "},"ᅫ":{"ha":1296,"x_min":15,"x_max":1242,"o":"m 918 1150 l 918 671 l 1065 671 l 1065 1150 l 1242 1150 l 1242 -162 l 1065 -162 l 1065 463 l 918 463 l 918 -162 l 741 -162 l 741 1150 l 918 1150 m 417 455 l 417 177 q 679 208 557 188 l 679 23 q 404 -9 568 5 q 108 -23 241 -23 l 15 -23 l 15 162 l 108 162 q 255 167 176 162 l 255 455 l 417 455 z "},"ᅬ":{"ha":1296,"x_min":39,"x_max":1196,"o":"m 548 455 l 548 173 q 903 208 789 188 l 903 23 q 603 -8 798 6 q 270 -23 407 -23 l 39 -23 l 39 162 l 270 162 l 363 164 l 363 455 l 548 455 m 1196 1150 l 1196 -162 l 995 -162 l 995 1150 l 1196 1150 z "},"ᅭ":{"ha":1296,"x_min":39,"x_max":1265,"o":"m 324 93 l 324 432 l 525 432 l 525 93 l 779 93 l 779 432 l 972 432 l 972 93 l 1265 93 l 1265 -77 l 39 -77 l 39 93 l 324 93 z "},"ᅮ":{"ha":1296,"x_min":39,"x_max":1265,"o":"m 1265 340 l 1265 162 l 756 162 l 756 -170 l 548 -170 l 548 162 l 39 162 l 39 340 l 1265 340 z "},"ᅯ":{"ha":1296,"x_min":46,"x_max":1204,"o":"m 1003 208 l 1003 1157 l 1204 1157 l 1204 -162 l 1003 -162 l 1003 62 l 648 62 l 648 208 l 1003 208 m 185 486 q 603 500 389 486 q 941 532 818 514 l 941 347 q 559 312 787 326 l 532 -162 l 332 -162 l 358 304 l 185 301 l 46 301 l 46 486 l 185 486 z "},"ᅰ":{"ha":1296,"x_min":23,"x_max":1242,"o":"m 1242 1150 l 1242 -162 l 1080 -162 l 1080 1150 l 1242 1150 m 949 1150 l 949 -162 l 787 -162 l 787 -8 l 532 -8 l 532 116 l 787 116 l 787 1150 l 949 1150 m 139 363 q 454 375 284 363 q 733 409 623 387 l 733 255 q 435 219 616 231 l 417 -162 l 247 -162 l 264 210 l 139 208 l 23 208 l 23 363 l 139 363 z "},"ᅱ":{"ha":1296,"x_min":39,"x_max":1204,"o":"m 177 486 q 591 500 381 486 q 926 532 801 514 l 926 363 q 552 327 775 341 l 525 -162 l 340 -162 l 367 319 l 177 316 l 39 316 l 39 486 l 177 486 m 1204 1157 l 1204 -162 l 1003 -162 l 1003 1157 l 1204 1157 z "},"ᅲ":{"ha":1296,"x_min":39,"x_max":1265,"o":"m 1265 340 l 1265 154 l 988 154 l 988 -170 l 787 -170 l 787 154 l 509 154 l 509 -170 l 316 -170 l 316 154 l 39 154 l 39 340 l 1265 340 z "},"ᅳ":{"ha":1296,"x_min":46,"x_max":1258,"o":"m 1242 116 l 1258 -69 l 46 -69 l 46 116 l 1242 116 z "},"ᅴ":{"ha":1296,"x_min":46,"x_max":1204,"o":"m 177 154 q 583 169 350 154 q 926 201 815 184 l 926 15 q 583 -16 815 -2 q 177 -31 350 -31 l 46 -31 l 46 154 l 177 154 m 1204 1157 l 1204 -162 l 1003 -162 l 1003 1157 l 1204 1157 z "},"ᅵ":{"ha":1296,"x_min":988,"x_max":1196,"o":"m 1196 1157 l 1196 -162 l 988 -162 l 988 1157 l 1196 1157 z "},"ᆨ":{"ha":1296,"x_min":139,"x_max":1142,"o":"m 1142 -170 l 957 -170 l 957 116 l 139 116 l 139 278 l 1142 278 l 1142 -170 z "},"ᆩ":{"ha":1296,"x_min":139,"x_max":1157,"o":"m 625 -162 l 424 -162 l 424 177 l 139 177 l 139 347 l 625 347 l 625 -162 m 1157 -162 l 957 -162 l 957 177 l 679 177 l 679 347 l 1157 347 l 1157 -162 z "},"ᆪ":{"ha":1296,"x_min":139,"x_max":1312,"o":"m 625 2 q 856 301 856 99 l 856 347 l 1057 347 l 1057 301 l 1057 282 q 1121 114 1057 185 q 1312 -8 1185 43 l 1219 -170 q 955 29 1056 -97 q 694 -170 853 -100 l 625 -48 l 625 -162 l 424 -162 l 424 177 l 139 177 l 139 347 l 625 347 l 625 2 z "},"ᆫ":{"ha":1296,"x_min":162,"x_max":1165,"o":"m 347 270 l 347 15 l 1165 15 l 1165 -147 l 162 -147 l 162 270 l 347 270 z "},"ᆬ":{"ha":1296,"x_min":139,"x_max":1312,"o":"m 324 386 l 324 15 l 625 15 l 625 2 q 852 247 824 86 l 648 247 l 648 386 l 1265 386 l 1265 247 l 1059 247 q 1133 101 1069 164 q 1312 -8 1198 39 l 1219 -170 q 955 29 1056 -97 q 694 -170 853 -100 l 625 -48 l 625 -162 l 139 -162 l 139 386 l 324 386 z "},"ᆭ":{"ha":1296,"x_min":185,"x_max":1219,"o":"m 679 0 q 752 133 679 82 q 941 185 826 185 q 1123 133 1051 185 q 1196 0 1196 80 q 1123 -133 1196 -80 q 941 -185 1051 -185 q 752 -133 826 -185 q 679 0 679 -82 m 826 0 q 855 -56 826 -35 q 941 -77 884 -77 q 1019 -56 988 -77 q 1049 0 1049 -34 q 1019 56 1049 34 q 941 77 988 77 q 855 56 884 77 q 826 0 826 35 m 833 370 l 833 455 l 1042 455 l 1042 370 l 1219 370 l 1219 231 l 664 231 l 664 370 l 833 370 m 370 409 l 370 15 l 671 15 l 671 -162 l 185 -162 l 185 409 l 370 409 z "},"ᆮ":{"ha":1296,"x_min":154,"x_max":1157,"o":"m 1150 309 l 1150 170 l 340 170 l 340 -15 l 1157 -15 l 1157 -162 l 154 -162 l 154 309 l 1150 309 z "},"ᆯ":{"ha":1296,"x_min":154,"x_max":1165,"o":"m 1150 424 l 1150 69 l 340 69 l 340 -46 l 1165 -46 l 1165 -170 l 154 -170 l 154 185 l 965 185 l 965 301 l 154 301 l 154 424 l 1150 424 z "},"ᆰ":{"ha":1296,"x_min":139,"x_max":1204,"o":"m 625 440 l 625 85 l 293 85 l 293 -31 l 625 -31 l 625 -162 l 139 -162 l 139 201 l 471 201 l 471 316 l 139 316 l 139 440 l 625 440 m 1204 -162 l 1003 -162 l 1003 270 l 725 270 l 725 440 l 1204 440 l 1204 -162 z "},"ᆱ":{"ha":1296,"x_min":139,"x_max":1157,"o":"m 625 440 l 625 85 l 293 85 l 293 -31 l 625 -31 l 625 -162 l 139 -162 l 139 201 l 471 201 l 471 316 l 139 316 l 139 440 l 625 440 m 1157 440 l 1157 -162 l 679 -162 l 679 440 l 1157 440 m 833 301 l 833 -23 l 1003 -23 l 1003 301 l 833 301 z "},"ᆲ":{"ha":1296,"x_min":139,"x_max":1157,"o":"m 625 440 l 625 85 l 293 85 l 293 -31 l 625 -31 l 625 -162 l 139 -162 l 139 201 l 471 201 l 471 316 l 139 316 l 139 440 l 625 440 m 833 440 l 833 278 l 1003 278 l 1003 440 l 1157 440 l 1157 -162 l 679 -162 l 679 440 l 833 440 m 1003 -8 l 1003 139 l 833 139 l 833 -8 l 1003 -8 z "},"ᆳ":{"ha":1296,"x_min":139,"x_max":1343,"o":"m 625 440 l 625 85 l 293 85 l 293 -31 l 625 -31 l 625 -162 l 139 -162 l 139 201 l 471 201 l 471 316 l 139 316 l 139 440 l 625 440 m 664 -8 q 903 301 903 88 l 903 440 l 1103 440 l 1103 301 q 1343 -8 1103 100 l 1250 -170 q 1115 -86 1179 -136 q 1003 28 1051 -35 q 891 -86 955 -35 q 756 -170 827 -136 l 664 -8 z "},"ᆴ":{"ha":1296,"x_min":139,"x_max":1157,"o":"m 625 440 l 625 85 l 293 85 l 293 -31 l 625 -31 l 625 -162 l 139 -162 l 139 201 l 471 201 l 471 316 l 139 316 l 139 440 l 625 440 m 1157 440 l 1157 316 l 826 316 l 826 201 l 1142 201 l 1142 85 l 826 85 l 826 -31 l 1157 -31 l 1157 -162 l 679 -162 l 679 440 l 1157 440 z "},"ᆵ":{"ha":1296,"x_min":139,"x_max":1181,"o":"m 625 440 l 625 85 l 293 85 l 293 -31 l 625 -31 l 625 -162 l 139 -162 l 139 201 l 471 201 l 471 316 l 139 316 l 139 440 l 625 440 m 1181 440 l 1181 316 l 1119 316 l 1119 -31 l 1181 -31 l 1181 -162 l 679 -162 l 679 -31 l 741 -31 l 741 316 l 679 316 l 679 440 l 1181 440 m 872 316 l 872 -31 l 988 -31 l 988 316 l 872 316 z "},"ᆶ":{"ha":1296,"x_min":139,"x_max":1219,"o":"m 679 0 q 752 133 679 82 q 941 185 826 185 q 1123 133 1051 185 q 1196 0 1196 80 q 1123 -133 1196 -80 q 941 -185 1051 -185 q 752 -133 826 -185 q 679 0 679 -82 m 826 0 q 855 -56 826 -35 q 941 -77 884 -77 q 1019 -56 988 -77 q 1049 0 1049 -34 q 1019 56 1049 34 q 941 77 988 77 q 855 56 884 77 q 826 0 826 35 m 833 370 l 833 455 l 1042 455 l 1042 370 l 1219 370 l 1219 231 l 664 231 l 664 370 l 833 370 m 625 440 l 625 85 l 293 85 l 293 -31 l 625 -31 l 625 -162 l 139 -162 l 139 201 l 471 201 l 471 316 l 139 316 l 139 440 l 625 440 z "},"ᆷ":{"ha":1296,"x_min":170,"x_max":1142,"o":"m 1142 394 l 1142 -162 l 170 -162 l 170 394 l 1142 394 m 949 0 l 949 231 l 370 231 l 370 0 l 949 0 z "},"ᆸ":{"ha":1296,"x_min":162,"x_max":1134,"o":"m 363 394 l 363 247 l 941 247 l 941 394 l 1134 394 l 1134 -162 l 162 -162 l 162 394 l 363 394 m 941 -23 l 941 116 l 363 116 l 363 -23 l 941 -23 z "},"ᆹ":{"ha":1296,"x_min":139,"x_max":1319,"o":"m 1227 -170 q 966 31 1063 -97 q 850 -84 917 -32 q 710 -170 784 -136 l 625 -22 l 625 -162 l 139 -162 l 139 394 l 293 394 l 293 247 l 471 247 l 471 394 l 625 394 l 625 -5 q 872 301 872 93 l 872 394 l 1065 394 l 1065 301 q 1319 -8 1065 102 l 1227 -170 m 471 -23 l 471 116 l 293 116 l 293 -23 l 471 -23 z "},"ᆺ":{"ha":1296,"x_min":69,"x_max":1227,"o":"m 756 347 l 756 301 q 827 158 756 221 q 1005 56 898 96 q 1227 0 1113 17 l 1165 -170 q 881 -96 1023 -153 q 651 54 739 -39 q 421 -96 563 -39 q 139 -170 279 -153 l 69 0 q 296 56 187 17 q 477 158 406 96 q 548 301 548 221 l 548 347 l 756 347 z "},"ᆻ":{"ha":1296,"x_min":46,"x_max":1258,"o":"m 46 -8 q 241 122 165 42 q 316 301 316 202 l 316 370 l 486 370 l 486 301 q 648 39 486 151 q 810 301 810 151 l 810 370 l 988 370 l 988 301 q 1062 121 988 201 q 1258 -8 1136 42 l 1165 -170 q 1017 -79 1086 -133 q 900 42 948 -25 q 648 -170 813 -77 q 400 43 485 -77 q 284 -78 352 -23 q 139 -170 216 -133 l 46 -8 z "},"ᆼ":{"ha":1296,"x_min":139,"x_max":1157,"o":"m 139 93 q 201 240 139 177 q 377 336 262 302 q 648 370 492 370 q 1023 296 889 370 q 1157 93 1157 221 q 1023 -110 1157 -35 q 648 -185 889 -185 q 377 -151 492 -185 q 201 -55 262 -117 q 139 93 139 8 m 340 93 q 421 2 340 35 q 648 -31 503 -31 q 879 2 793 -31 q 965 93 965 35 q 878 188 965 151 q 648 224 792 224 q 423 188 506 224 q 340 93 340 151 z "},"ᆽ":{"ha":1296,"x_min":100,"x_max":1196,"o":"m 100 -23 q 387 66 258 0 q 542 231 515 133 l 162 231 l 162 394 l 1134 394 l 1134 231 l 762 231 q 914 66 789 133 q 1196 -23 1039 0 l 1134 -170 q 867 -100 1000 -153 q 651 35 735 -48 q 432 -101 566 -49 q 162 -170 298 -153 l 100 -23 z "},"ᆾ":{"ha":1296,"x_min":100,"x_max":1196,"o":"m 748 478 l 748 386 l 1134 386 l 1134 231 l 755 231 q 910 66 781 133 q 1196 -23 1039 0 l 1134 -170 q 863 -102 995 -153 q 648 35 731 -51 q 433 -102 565 -51 q 162 -170 301 -153 l 100 -23 q 388 66 261 0 q 542 231 515 133 l 162 231 l 162 386 l 548 386 l 548 478 l 748 478 z "},"ᆿ":{"ha":1296,"x_min":162,"x_max":1134,"o":"m 1134 -162 l 926 -162 l 926 0 l 185 0 l 185 139 l 926 139 l 926 255 l 162 255 l 162 394 l 1134 394 l 1134 -162 z "},"ᇀ":{"ha":1296,"x_min":162,"x_max":1134,"o":"m 1134 316 l 363 316 l 363 201 l 1119 201 l 1119 85 l 363 85 l 363 -31 l 1134 -31 l 1134 -162 l 162 -162 l 162 440 l 1134 440 l 1134 316 z "},"ᇁ":{"ha":1296,"x_min":139,"x_max":1157,"o":"m 1134 231 l 988 231 l 988 0 l 1157 0 l 1157 -162 l 139 -162 l 139 0 l 316 0 l 316 231 l 162 231 l 162 394 l 1134 394 l 1134 231 m 787 0 l 787 231 l 509 231 l 509 0 l 787 0 z "},"ᇂ":{"ha":1296,"x_min":162,"x_max":1134,"o":"m 185 15 q 306 158 185 108 q 648 208 427 208 q 992 158 873 208 q 1111 15 1111 108 q 992 -134 1111 -83 q 648 -185 873 -185 q 307 -131 429 -185 q 185 15 185 -77 m 386 15 q 448 -49 380 -29 q 648 -69 515 -69 q 846 -49 779 -69 q 918 15 912 -29 q 845 74 912 56 q 648 93 778 93 q 386 15 375 93 m 556 409 l 556 486 l 741 486 l 741 409 l 1134 409 l 1134 255 l 162 255 l 162 409 l 556 409 z "},"가":{"ha":1296,"x_min":15,"x_max":1319,"o":"m 671 1065 q 741 995 741 1065 q 577 396 724 636 q 154 15 431 156 l 15 162 q 374 451 244 272 q 529 880 505 631 l 77 880 l 62 1065 l 671 1065 m 1150 1157 l 1150 694 l 1319 694 l 1319 494 l 1150 494 l 1150 -162 l 941 -162 l 941 1157 l 1150 1157 z "},"각":{"ha":1296,"x_min":15,"x_max":1319,"o":"m 694 1111 q 764 1042 764 1111 q 561 607 741 773 q 93 394 381 441 l 15 586 q 360 708 239 625 q 517 926 481 790 l 77 926 l 62 1111 l 694 1111 m 1150 1157 l 1150 903 l 1319 903 l 1319 718 l 1150 718 l 1150 394 l 941 394 l 941 1157 l 1150 1157 m 1150 -170 l 941 -170 l 941 139 l 162 139 l 162 324 l 1150 324 l 1150 -170 z "},"갂":{"ha":1296,"x_min":0,"x_max":0,"o":""},"갃":{"ha":1296,"x_min":0,"x_max":0,"o":""},"간":{"ha":1296,"x_min":15,"x_max":1319,"o":"m 694 1111 q 764 1042 764 1111 q 563 606 742 775 q 93 370 384 437 l 15 556 q 363 698 242 608 q 520 926 485 789 l 77 926 l 62 1111 l 694 1111 m 1150 1157 l 1150 849 l 1319 849 l 1319 664 l 1150 664 l 1150 162 l 941 162 l 941 1157 l 1150 1157 m 394 293 l 394 46 l 1165 46 l 1181 -147 l 255 -147 q 185 -77 185 -147 l 185 293 l 394 293 z "},"갅":{"ha":1296,"x_min":0,"x_max":0,"o":""},"갆":{"ha":1296,"x_min":0,"x_max":0,"o":""},"갇":{"ha":1296,"x_min":15,"x_max":1327,"o":"m 694 1111 q 764 1042 764 1111 q 566 633 742 778 q 93 440 390 489 l 15 625 q 360 735 242 665 q 515 926 478 806 l 77 926 l 62 1111 l 694 1111 m 1150 1157 l 1150 926 l 1327 926 l 1327 741 l 1150 741 l 1150 440 l 941 440 l 941 1157 l 1150 1157 m 1150 370 l 1150 185 l 394 185 l 394 23 l 1157 23 l 1173 -162 l 255 -162 q 185 -93 185 -162 l 185 370 l 1150 370 z "},"갈":{"ha":1296,"x_min":15,"x_max":1327,"o":"m 694 1111 q 764 1042 764 1111 q 560 672 736 809 q 93 486 384 535 l 15 671 q 344 769 227 708 q 505 926 461 830 l 77 926 l 62 1111 l 694 1111 m 1150 1157 l 1150 949 l 1327 949 l 1327 764 l 1150 764 l 1150 525 l 941 525 l 941 1157 l 1150 1157 m 185 455 l 1150 455 l 1150 62 l 386 62 l 386 0 l 1157 0 l 1173 -170 l 255 -170 q 185 -100 185 -170 l 185 224 l 949 224 l 949 285 l 185 285 l 185 455 z "},"갉":{"ha":1296,"x_min":15,"x_max":1327,"o":"m 694 1111 q 764 1042 764 1111 q 560 672 736 809 q 93 486 384 535 l 15 671 q 344 769 227 708 q 505 926 461 830 l 77 926 l 62 1111 l 694 1111 m 1150 1157 l 1150 949 l 1327 949 l 1327 764 l 1150 764 l 1150 525 l 941 525 l 941 1157 l 1150 1157 m 139 455 l 633 455 l 633 62 l 340 62 l 340 -9 q 756 23 588 -5 l 772 -131 q 535 -160 671 -151 q 208 -170 400 -168 q 139 -100 139 -170 l 139 224 l 432 224 l 432 293 l 139 293 l 139 455 m 1150 -185 l 941 -185 l 941 262 l 694 262 l 694 455 l 1150 455 l 1150 -185 z "},"갊":{"ha":1296,"x_min":15,"x_max":1327,"o":"m 694 1111 q 764 1042 764 1111 q 560 672 736 809 q 93 486 384 535 l 15 671 q 344 769 227 708 q 505 926 461 830 l 77 926 l 62 1111 l 694 1111 m 1150 1157 l 1150 949 l 1327 949 l 1327 764 l 1150 764 l 1150 525 l 941 525 l 941 1157 l 1150 1157 m 1150 455 l 1150 -170 l 694 -170 l 694 455 l 1150 455 m 965 8 l 965 278 l 880 278 l 880 8 l 965 8 m 139 455 l 625 455 l 625 77 l 340 77 l 340 2 q 640 23 492 3 l 656 -139 q 468 -164 573 -157 q 208 -170 363 -170 q 139 -100 139 -170 l 139 224 l 432 224 l 432 285 l 139 285 l 139 455 z "},"갋":{"ha":1296,"x_min":15,"x_max":1327,"o":"m 694 1111 q 764 1042 764 1111 q 560 672 736 809 q 93 486 384 535 l 15 671 q 344 769 227 708 q 505 926 461 830 l 77 926 l 62 1111 l 694 1111 m 1150 1157 l 1150 949 l 1327 949 l 1327 764 l 1150 764 l 1150 525 l 941 525 l 941 1157 l 1150 1157 m 139 455 l 625 455 l 625 77 l 340 77 l 340 2 q 640 23 492 3 l 656 -139 q 468 -164 573 -157 q 208 -170 363 -170 q 139 -100 139 -170 l 139 224 l 432 224 l 432 285 l 139 285 l 139 455 m 880 455 l 880 316 l 965 316 l 965 455 l 1150 455 l 1150 -170 l 694 -170 l 694 455 l 880 455 m 965 15 l 965 131 l 880 131 l 880 15 l 965 15 z "},"갌":{"ha":1296,"x_min":0,"x_max":0,"o":""},"갍":{"ha":1296,"x_min":0,"x_max":0,"o":""},"갎":{"ha":1296,"x_min":0,"x_max":0,"o":""},"갏":{"ha":1296,"x_min":0,"x_max":0,"o":""},"감":{"ha":1296,"x_min":15,"x_max":1327,"o":"m 694 1111 q 764 1042 764 1111 q 566 633 742 778 q 93 440 390 489 l 15 625 q 360 735 242 665 q 515 926 478 806 l 77 926 l 62 1111 l 694 1111 m 1150 1157 l 1150 926 l 1327 926 l 1327 741 l 1150 741 l 1150 440 l 941 440 l 941 1157 l 1150 1157 m 1150 370 l 1150 -162 l 255 -162 q 185 -93 185 -162 l 185 370 l 1150 370 m 941 23 l 941 185 l 394 185 l 394 23 l 941 23 z "},"갑":{"ha":1296,"x_min":15,"x_max":1327,"o":"m 694 1111 q 764 1042 764 1111 q 566 633 742 778 q 93 440 390 489 l 15 625 q 360 735 242 665 q 515 926 478 806 l 77 926 l 62 1111 l 694 1111 m 1150 1157 l 1150 926 l 1327 926 l 1327 741 l 1150 741 l 1150 440 l 941 440 l 941 1157 l 1150 1157 m 394 386 l 394 285 l 941 285 l 941 386 l 1150 386 l 1150 -162 l 255 -162 q 185 -93 185 -162 l 185 386 l 394 386 m 941 23 l 941 108 l 394 108 l 394 23 l 941 23 z "},"값":{"ha":1296,"x_min":15,"x_max":1327,"o":"m 694 1111 q 764 1042 764 1111 q 566 633 742 778 q 93 440 390 489 l 15 625 q 360 735 242 665 q 515 926 478 806 l 77 926 l 62 1111 l 694 1111 m 1150 1157 l 1150 926 l 1327 926 l 1327 741 l 1150 741 l 1150 440 l 941 440 l 941 1157 l 1150 1157 m 316 386 l 316 285 l 455 285 l 455 386 l 633 386 l 633 -23 q 787 111 725 25 q 849 316 849 198 l 849 394 l 1049 394 l 1049 316 q 1117 108 1049 193 q 1289 -23 1185 23 l 1142 -177 q 951 5 1025 -105 q 858 -108 909 -60 q 756 -185 807 -156 l 633 -48 l 633 -162 l 208 -162 q 139 -93 139 -162 l 139 386 l 316 386 m 455 8 l 455 123 l 316 123 l 316 8 l 455 8 z "},"갓":{"ha":1296,"x_min":15,"x_max":1319,"o":"m 694 1111 q 764 1042 764 1111 q 563 606 742 775 q 93 370 384 437 l 15 556 q 363 698 242 608 q 520 926 485 789 l 77 926 l 62 1111 l 694 1111 m 1150 1157 l 1150 903 l 1319 903 l 1319 718 l 1150 718 l 1150 324 l 941 324 l 941 1157 l 1150 1157 m 764 440 l 764 370 q 840 204 764 281 q 1027 73 917 127 q 1242 -8 1137 19 l 1142 -177 q 880 -69 1014 -140 q 662 110 747 2 q 444 -75 576 -3 q 185 -185 313 -147 l 85 -15 q 299 66 188 11 q 487 201 410 122 q 563 370 563 281 l 563 440 l 764 440 z "},"갔":{"ha":1296,"x_min":15,"x_max":1319,"o":"m 694 1111 q 764 1042 764 1111 q 561 607 741 773 q 93 394 381 441 l 15 586 q 360 708 239 625 q 517 926 481 790 l 77 926 l 62 1111 l 694 1111 m 1150 1157 l 1150 903 l 1319 903 l 1319 718 l 1150 718 l 1150 394 l 941 394 l 941 1157 l 1150 1157 m 39 -39 q 241 105 157 14 q 324 309 324 196 l 324 370 l 502 370 l 502 301 q 549 161 502 228 q 671 39 596 94 q 794 161 747 94 q 841 301 841 228 l 841 370 l 1019 370 l 1019 301 q 1105 105 1019 194 q 1304 -31 1191 15 l 1188 -177 q 927 48 1020 -93 q 804 -92 875 -29 q 671 -185 733 -154 q 539 -90 606 -150 q 418 45 471 -31 q 301 -90 369 -32 q 162 -185 233 -148 l 39 -39 z "},"강":{"ha":1296,"x_min":15,"x_max":1319,"o":"m 694 1111 q 764 1042 764 1111 q 561 607 741 773 q 93 394 381 441 l 15 586 q 360 708 239 625 q 517 926 481 790 l 77 926 l 62 1111 l 694 1111 m 1150 1157 l 1150 903 l 1319 903 l 1319 718 l 1150 718 l 1150 394 l 941 394 l 941 1157 l 1150 1157 m 671 -185 q 292 -110 421 -185 q 162 100 162 -35 q 292 311 162 236 q 671 386 421 386 q 1049 310 917 386 q 1181 100 1181 235 q 1049 -110 1181 -34 q 671 -185 917 -185 m 671 0 q 876 27 802 0 q 949 100 949 54 q 876 174 949 147 q 671 201 802 201 q 458 174 529 201 q 386 100 386 148 q 458 26 386 52 q 671 0 529 0 z "},"갖":{"ha":1296,"x_min":15,"x_max":1327,"o":"m 694 1111 q 764 1042 764 1111 q 566 633 742 778 q 93 440 390 489 l 15 625 q 360 735 242 665 q 515 926 478 806 l 77 926 l 62 1111 l 694 1111 m 1150 1157 l 1150 926 l 1327 926 l 1327 741 l 1150 741 l 1150 440 l 941 440 l 941 1157 l 1150 1157 m 93 -15 q 358 59 228 8 q 542 185 488 110 l 177 185 l 177 370 l 1173 370 l 1173 185 l 801 185 q 982 64 853 113 q 1250 -8 1111 15 l 1134 -177 q 674 49 813 -96 q 465 -96 593 -39 q 208 -185 338 -153 l 93 -15 z "},"갗":{"ha":1296,"x_min":15,"x_max":1327,"o":"m 694 1111 q 764 1042 764 1111 q 566 633 742 778 q 93 440 390 489 l 15 625 q 360 735 242 665 q 515 926 478 806 l 77 926 l 62 1111 l 694 1111 m 1150 1157 l 1150 926 l 1327 926 l 1327 741 l 1150 741 l 1150 440 l 941 440 l 941 1157 l 1150 1157 m 772 455 l 772 347 l 1173 347 l 1173 162 l 792 162 q 960 52 838 91 q 1250 -15 1082 12 l 1119 -177 q 674 19 807 -113 q 224 -185 537 -120 l 93 -23 q 380 46 255 5 q 551 162 505 88 l 177 162 l 177 347 l 571 347 l 571 455 l 772 455 z "},"갘":{"ha":1296,"x_min":0,"x_max":0,"o":""},"같":{"ha":1296,"x_min":15,"x_max":1327,"o":"m 694 1111 q 764 1042 764 1111 q 560 672 736 809 q 93 486 384 535 l 15 671 q 344 769 227 708 q 505 926 461 830 l 77 926 l 62 1111 l 694 1111 m 1150 1157 l 1150 949 l 1327 949 l 1327 764 l 1150 764 l 1150 525 l 941 525 l 941 1157 l 1150 1157 m 1157 455 l 1157 285 l 386 285 l 386 224 l 1150 224 l 1150 62 l 386 62 l 386 0 l 1165 0 l 1181 -170 l 255 -170 q 185 -100 185 -170 l 185 455 l 1157 455 z "},"갚":{"ha":1296,"x_min":15,"x_max":1327,"o":"m 694 1111 q 764 1042 764 1111 q 566 633 742 778 q 93 440 390 489 l 15 625 q 360 735 242 665 q 515 926 478 806 l 77 926 l 62 1111 l 694 1111 m 1150 1157 l 1150 926 l 1327 926 l 1327 741 l 1150 741 l 1150 440 l 941 440 l 941 1157 l 1150 1157 m 356 23 l 346 185 l 177 185 l 177 370 l 1157 370 l 1157 185 l 1005 185 l 994 23 l 1173 23 l 1188 -162 l 154 -162 l 154 23 l 356 23 m 793 23 l 804 185 l 546 185 l 557 23 l 793 23 z "},"갛":{"ha":1296,"x_min":15,"x_max":1327,"o":"m 694 1111 q 764 1042 764 1111 q 560 672 736 809 q 93 486 384 535 l 15 671 q 344 769 227 708 q 505 926 461 830 l 77 926 l 62 1111 l 694 1111 m 1150 1157 l 1150 949 l 1327 949 l 1327 764 l 1150 764 l 1150 525 l 941 525 l 941 1157 l 1150 1157 m 671 -185 q 315 -131 437 -185 q 193 31 193 -77 q 315 193 193 139 q 671 247 437 247 q 1028 193 906 247 q 1150 31 1150 139 q 1028 -131 1150 -77 q 671 -185 906 -185 m 671 -23 q 863 -10 801 -23 q 926 31 926 3 q 863 72 926 59 q 671 85 801 85 q 479 72 542 85 q 417 31 417 59 q 479 -10 417 3 q 671 -23 542 -23 m 779 509 l 779 448 l 1181 448 l 1181 278 l 162 278 l 162 448 l 563 448 l 563 509 l 779 509 z "},"개":{"ha":1296,"x_min":-15,"x_max":1219,"o":"m 556 1065 q 617 995 617 1060 q 487 392 606 620 q 139 15 367 164 l -15 147 q 285 431 173 255 q 420 880 398 608 l 54 880 l 39 1065 l 556 1065 m 910 1157 l 910 687 l 1026 687 l 1026 1157 l 1219 1157 l 1219 -162 l 1026 -162 l 1026 478 l 910 478 l 910 -162 l 718 -162 l 718 1157 l 910 1157 z "},"객":{"ha":1296,"x_min":0,"x_max":1219,"o":"m 556 1111 q 617 1042 617 1106 q 463 605 600 764 q 93 370 326 446 l 0 532 q 407 926 349 639 l 54 926 l 39 1111 l 556 1111 m 910 1157 l 910 903 l 1026 903 l 1026 1157 l 1219 1157 l 1219 394 l 1026 394 l 1026 718 l 910 718 l 910 394 l 718 394 l 718 1157 l 910 1157 m 1219 -170 l 1019 -170 l 1019 139 l 177 139 l 177 324 l 1219 324 l 1219 -170 z "},"갞":{"ha":1296,"x_min":0,"x_max":0,"o":""},"갟":{"ha":1296,"x_min":0,"x_max":0,"o":""},"갠":{"ha":1296,"x_min":0,"x_max":1242,"o":"m 556 1111 q 617 1042 617 1106 q 459 578 600 759 q 93 324 318 397 l 0 486 q 277 654 174 540 q 409 926 380 767 l 54 926 l 39 1111 l 556 1111 m 910 1157 l 910 849 l 1026 849 l 1026 1157 l 1219 1157 l 1219 208 l 1026 208 l 1026 664 l 910 664 l 910 208 l 718 208 l 718 1157 l 910 1157 m 409 293 l 409 46 l 1227 46 l 1242 -147 l 270 -147 q 201 -77 201 -147 l 201 293 l 409 293 z "},"갡":{"ha":1296,"x_min":0,"x_max":0,"o":""},"갢":{"ha":1296,"x_min":0,"x_max":0,"o":""},"갣":{"ha":1296,"x_min":0,"x_max":1242,"o":"m 556 1111 q 617 1042 617 1106 q 465 620 600 770 q 93 394 329 471 l 0 556 q 276 700 176 610 q 406 926 377 790 l 54 926 l 39 1111 l 556 1111 m 910 1157 l 910 926 l 1026 926 l 1026 1157 l 1219 1157 l 1219 432 l 1026 432 l 1026 741 l 910 741 l 910 432 l 718 432 l 718 1157 l 910 1157 m 1219 370 l 1219 185 l 394 185 l 394 23 l 1227 23 l 1242 -162 l 255 -162 q 185 -93 185 -162 l 185 370 l 1219 370 z "},"갤":{"ha":1296,"x_min":0,"x_max":1242,"o":"m 617 1111 q 548 786 617 918 q 364 576 478 654 q 93 440 250 497 l 0 602 q 262 735 162 656 q 398 926 363 813 l 46 926 l 46 1111 l 617 1111 m 910 1157 l 910 949 l 1026 949 l 1026 1157 l 1219 1157 l 1219 525 l 1026 525 l 1026 764 l 910 764 l 910 525 l 718 525 l 718 1157 l 910 1157 m 1219 455 l 1219 62 l 394 62 l 394 0 l 1227 0 l 1242 -170 l 270 -170 q 201 -100 201 -170 l 201 224 l 1019 224 l 1019 285 l 201 285 l 201 455 l 1219 455 z "},"갥":{"ha":1296,"x_min":0,"x_max":0,"o":""},"갦":{"ha":1296,"x_min":0,"x_max":0,"o":""},"갧":{"ha":1296,"x_min":0,"x_max":0,"o":""},"갨":{"ha":1296,"x_min":0,"x_max":0,"o":""},"갩":{"ha":1296,"x_min":0,"x_max":0,"o":""},"갪":{"ha":1296,"x_min":0,"x_max":0,"o":""},"갫":{"ha":1296,"x_min":0,"x_max":0,"o":""},"갬":{"ha":1296,"x_min":0,"x_max":1219,"o":"m 556 1111 q 617 1042 617 1106 q 465 620 600 770 q 93 394 329 471 l 0 556 q 276 700 176 610 q 406 926 377 790 l 54 926 l 39 1111 l 556 1111 m 910 1157 l 910 926 l 1026 926 l 1026 1157 l 1219 1157 l 1219 432 l 1026 432 l 1026 741 l 910 741 l 910 432 l 718 432 l 718 1157 l 910 1157 m 1219 370 l 1219 -162 l 270 -162 q 201 -93 201 -162 l 201 370 l 1219 370 m 1003 23 l 1003 185 l 409 185 l 409 23 l 1003 23 z "},"갭":{"ha":1296,"x_min":0,"x_max":1219,"o":"m 556 1111 q 617 1042 617 1106 q 465 620 600 770 q 93 394 329 471 l 0 556 q 276 700 176 610 q 406 926 377 790 l 54 926 l 39 1111 l 556 1111 m 910 1157 l 910 926 l 1026 926 l 1026 1157 l 1219 1157 l 1219 432 l 1026 432 l 1026 741 l 910 741 l 910 432 l 718 432 l 718 1157 l 910 1157 m 409 386 l 409 285 l 1011 285 l 1011 386 l 1219 386 l 1219 -162 l 270 -162 q 201 -93 201 -162 l 201 386 l 409 386 m 1011 23 l 1011 108 l 409 108 l 409 23 l 1011 23 z "},"갮":{"ha":1296,"x_min":0,"x_max":0,"o":""},"갯":{"ha":1296,"x_min":0,"x_max":1304,"o":"m 556 1111 q 617 1042 617 1106 q 459 578 600 759 q 93 324 318 397 l 0 486 q 277 654 174 540 q 409 926 380 767 l 54 926 l 39 1111 l 556 1111 m 910 1157 l 910 903 l 1026 903 l 1026 1157 l 1219 1157 l 1219 340 l 1026 340 l 1026 718 l 910 718 l 910 417 l 718 417 l 718 1157 l 910 1157 m 826 347 l 826 293 q 971 114 826 190 q 1304 -8 1117 39 l 1204 -177 q 944 -83 1077 -147 q 725 74 812 -20 q 505 -89 639 -23 q 247 -185 372 -154 l 147 -15 q 477 110 329 31 q 625 293 625 190 l 625 347 l 826 347 z "},"갰":{"ha":1296,"x_min":0,"x_max":1389,"o":"m 556 1111 q 617 1042 617 1106 q 463 605 600 764 q 93 370 326 446 l 0 532 q 407 926 349 639 l 54 926 l 39 1111 l 556 1111 m 910 1157 l 910 903 l 1026 903 l 1026 1157 l 1219 1157 l 1219 394 l 1026 394 l 1026 718 l 910 718 l 910 394 l 718 394 l 718 1157 l 910 1157 m 77 -31 q 283 107 204 25 q 363 316 363 190 l 363 370 l 563 370 l 563 316 q 736 40 563 160 q 856 164 810 93 q 903 316 903 235 l 903 370 l 1103 370 l 1103 316 q 1184 109 1103 194 q 1389 -31 1265 23 l 1258 -177 q 1118 -85 1187 -142 q 998 49 1049 -28 q 868 -92 941 -29 q 733 -185 795 -154 q 600 -90 671 -150 q 472 46 528 -29 q 353 -90 421 -31 q 216 -185 284 -150 l 77 -31 z "},"갱":{"ha":1296,"x_min":0,"x_max":1242,"o":"m 556 1111 q 617 1042 617 1106 q 463 605 600 764 q 93 370 326 446 l 0 532 q 407 926 349 639 l 54 926 l 39 1111 l 556 1111 m 910 1157 l 910 903 l 1026 903 l 1026 1157 l 1219 1157 l 1219 417 l 1026 417 l 1026 718 l 910 718 l 910 455 l 718 455 l 718 1157 l 910 1157 m 710 -185 q 317 -110 457 -185 q 177 100 177 -34 q 317 310 177 235 q 710 386 457 386 q 1103 310 963 386 q 1242 100 1242 235 q 1103 -110 1242 -34 q 710 -185 963 -185 m 710 0 q 921 27 847 0 q 995 100 995 54 q 921 174 995 147 q 710 201 847 201 q 498 174 573 201 q 424 100 424 147 q 498 27 424 54 q 710 0 573 0 z "},"갲":{"ha":1296,"x_min":0,"x_max":0,"o":""},"갳":{"ha":1296,"x_min":0,"x_max":0,"o":""},"갴":{"ha":1296,"x_min":0,"x_max":0,"o":""},"갵":{"ha":1296,"x_min":0,"x_max":0,"o":""},"갶":{"ha":1296,"x_min":0,"x_max":0,"o":""},"갷":{"ha":1296,"x_min":0,"x_max":0,"o":""},"갸":{"ha":1296,"x_min":15,"x_max":1319,"o":"m 671 1065 q 741 995 741 1065 q 577 396 724 636 q 154 15 431 156 l 15 162 q 374 451 244 272 q 529 880 505 631 l 77 880 l 62 1065 l 671 1065 m 1150 1157 l 1150 880 l 1319 880 l 1319 679 l 1150 679 l 1150 478 l 1319 478 l 1319 278 l 1150 278 l 1150 -162 l 941 -162 l 941 1157 l 1150 1157 z "},"갹":{"ha":1296,"x_min":15,"x_max":1327,"o":"m 694 1111 q 764 1042 764 1111 q 561 607 741 773 q 93 394 381 441 l 15 586 q 360 708 239 625 q 517 926 481 790 l 77 926 l 62 1111 l 694 1111 m 1150 1157 l 1150 1019 l 1327 1019 l 1327 833 l 1150 833 l 1150 741 l 1327 741 l 1327 556 l 1150 556 l 1150 394 l 941 394 l 941 1157 l 1150 1157 m 1150 -170 l 941 -170 l 941 139 l 162 139 l 162 324 l 1150 324 l 1150 -170 z "},"갺":{"ha":1296,"x_min":0,"x_max":0,"o":""},"갻":{"ha":1296,"x_min":0,"x_max":0,"o":""},"갼":{"ha":1296,"x_min":15,"x_max":1327,"o":"m 694 1111 q 764 1042 764 1111 q 563 606 742 775 q 93 370 384 437 l 15 556 q 363 698 242 608 q 520 926 485 789 l 77 926 l 62 1111 l 694 1111 m 1150 1157 l 1150 1019 l 1327 1019 l 1327 833 l 1150 833 l 1150 741 l 1327 741 l 1327 556 l 1150 556 l 1150 162 l 941 162 l 941 1157 l 1150 1157 m 394 293 l 394 46 l 1165 46 l 1181 -147 l 255 -147 q 185 -77 185 -147 l 185 293 l 394 293 z "},"갽":{"ha":1296,"x_min":0,"x_max":0,"o":""},"갾":{"ha":1296,"x_min":0,"x_max":0,"o":""},"갿":{"ha":1296,"x_min":0,"x_max":0,"o":""},"걀":{"ha":1296,"x_min":15,"x_max":1327,"o":"m 694 1111 q 764 1042 764 1111 q 560 672 736 809 q 93 486 384 535 l 15 671 q 344 769 227 708 q 505 926 461 830 l 77 926 l 62 1111 l 694 1111 m 1150 1157 l 1150 1049 l 1327 1049 l 1327 880 l 1150 880 l 1150 802 l 1327 802 l 1327 633 l 1150 633 l 1150 525 l 941 525 l 941 1157 l 1150 1157 m 185 455 l 1150 455 l 1150 62 l 386 62 l 386 0 l 1157 0 l 1173 -170 l 255 -170 q 185 -100 185 -170 l 185 224 l 949 224 l 949 285 l 185 285 l 185 455 z "},"걁":{"ha":1296,"x_min":0,"x_max":0,"o":""},"걂":{"ha":1296,"x_min":0,"x_max":0,"o":""},"걃":{"ha":1296,"x_min":0,"x_max":0,"o":""},"걄":{"ha":1296,"x_min":0,"x_max":0,"o":""},"걅":{"ha":1296,"x_min":0,"x_max":0,"o":""},"걆":{"ha":1296,"x_min":0,"x_max":0,"o":""},"걇":{"ha":1296,"x_min":0,"x_max":0,"o":""},"걈":{"ha":1296,"x_min":0,"x_max":0,"o":""},"걉":{"ha":1296,"x_min":0,"x_max":0,"o":""},"걊":{"ha":1296,"x_min":0,"x_max":0,"o":""},"걋":{"ha":1296,"x_min":15,"x_max":1327,"o":"m 694 1111 q 764 1042 764 1111 q 563 606 742 775 q 93 370 384 437 l 15 556 q 363 698 242 608 q 520 926 485 789 l 77 926 l 62 1111 l 694 1111 m 1150 1157 l 1150 1019 l 1327 1019 l 1327 833 l 1150 833 l 1150 741 l 1327 741 l 1327 556 l 1150 556 l 1150 324 l 941 324 l 941 1157 l 1150 1157 m 764 440 l 764 370 q 840 204 764 281 q 1027 73 917 127 q 1242 -8 1137 19 l 1142 -177 q 880 -69 1014 -140 q 662 110 747 2 q 444 -75 576 -3 q 185 -185 313 -147 l 85 -15 q 299 66 188 11 q 487 201 410 122 q 563 370 563 281 l 563 440 l 764 440 z "},"걌":{"ha":1296,"x_min":0,"x_max":0,"o":""},"걍":{"ha":1296,"x_min":15,"x_max":1327,"o":"m 694 1111 q 764 1042 764 1111 q 561 607 741 773 q 93 394 381 441 l 15 586 q 360 708 239 625 q 517 926 481 790 l 77 926 l 62 1111 l 694 1111 m 1150 1157 l 1150 1019 l 1327 1019 l 1327 833 l 1150 833 l 1150 741 l 1327 741 l 1327 556 l 1150 556 l 1150 394 l 941 394 l 941 1157 l 1150 1157 m 671 -185 q 292 -110 421 -185 q 162 100 162 -35 q 292 311 162 236 q 671 386 421 386 q 1049 310 917 386 q 1181 100 1181 235 q 1049 -110 1181 -34 q 671 -185 917 -185 m 671 0 q 876 27 802 0 q 949 100 949 54 q 876 174 949 147 q 671 201 802 201 q 458 174 529 201 q 386 100 386 148 q 458 26 386 52 q 671 0 529 0 z "},"걎":{"ha":1296,"x_min":0,"x_max":0,"o":""},"걏":{"ha":1296,"x_min":0,"x_max":0,"o":""},"걐":{"ha":1296,"x_min":0,"x_max":0,"o":""},"걑":{"ha":1296,"x_min":0,"x_max":0,"o":""},"걒":{"ha":1296,"x_min":0,"x_max":0,"o":""},"걓":{"ha":1296,"x_min":0,"x_max":0,"o":""},"걔":{"ha":1296,"x_min":-15,"x_max":1219,"o":"m 556 1065 q 617 995 617 1060 q 487 392 606 620 q 139 15 367 164 l -15 147 q 285 431 173 255 q 420 880 398 608 l 54 880 l 39 1065 l 556 1065 m 910 1157 l 910 880 l 1026 880 l 1026 1157 l 1219 1157 l 1219 -162 l 1026 -162 l 1026 278 l 910 278 l 910 -162 l 718 -162 l 718 1157 l 910 1157 m 1026 463 l 1026 694 l 910 694 l 910 463 l 1026 463 z "},"걕":{"ha":1296,"x_min":0,"x_max":0,"o":""},"걖":{"ha":1296,"x_min":0,"x_max":0,"o":""},"걗":{"ha":1296,"x_min":0,"x_max":0,"o":""},"걘":{"ha":1296,"x_min":0,"x_max":1242,"o":"m 556 1111 q 617 1042 617 1106 q 459 578 600 759 q 93 324 318 397 l 0 486 q 277 654 174 540 q 409 926 380 767 l 54 926 l 39 1111 l 556 1111 m 910 1157 l 910 1019 l 1026 1019 l 1026 1157 l 1219 1157 l 1219 208 l 1026 208 l 1026 556 l 910 556 l 910 208 l 718 208 l 718 1157 l 910 1157 m 409 293 l 409 46 l 1227 46 l 1242 -147 l 270 -147 q 201 -77 201 -147 l 201 293 l 409 293 m 1026 741 l 1026 833 l 910 833 l 910 741 l 1026 741 z "},"걙":{"ha":1296,"x_min":0,"x_max":0,"o":""},"걚":{"ha":1296,"x_min":0,"x_max":0,"o":""},"걛":{"ha":1296,"x_min":0,"x_max":0,"o":""},"걜":{"ha":1296,"x_min":0,"x_max":1242,"o":"m 617 1111 q 548 786 617 918 q 364 576 478 654 q 93 440 250 497 l 0 602 q 262 735 162 656 q 398 926 363 813 l 46 926 l 46 1111 l 617 1111 m 910 1157 l 910 1049 l 1026 1049 l 1026 1157 l 1219 1157 l 1219 525 l 1026 525 l 1026 633 l 910 633 l 910 525 l 718 525 l 718 1157 l 910 1157 m 1219 455 l 1219 62 l 394 62 l 394 0 l 1227 0 l 1242 -170 l 270 -170 q 201 -100 201 -170 l 201 224 l 1019 224 l 1019 285 l 201 285 l 201 455 l 1219 455 m 1026 802 l 1026 880 l 910 880 l 910 802 l 1026 802 z "},"걝":{"ha":1296,"x_min":0,"x_max":0,"o":""},"걞":{"ha":1296,"x_min":0,"x_max":0,"o":""},"걟":{"ha":1296,"x_min":0,"x_max":0,"o":""},"걠":{"ha":1296,"x_min":0,"x_max":0,"o":""},"걡":{"ha":1296,"x_min":0,"x_max":0,"o":""},"걢":{"ha":1296,"x_min":0,"x_max":0,"o":""},"걣":{"ha":1296,"x_min":0,"x_max":0,"o":""},"걤":{"ha":1296,"x_min":0,"x_max":0,"o":""},"걥":{"ha":1296,"x_min":0,"x_max":1219,"o":"m 556 1111 q 617 1042 617 1106 q 465 620 600 770 q 93 394 329 471 l 0 556 q 276 700 176 610 q 406 926 377 790 l 54 926 l 39 1111 l 556 1111 m 910 1157 l 910 1019 l 1026 1019 l 1026 1157 l 1219 1157 l 1219 432 l 1026 432 l 1026 579 l 910 579 l 910 432 l 718 432 l 718 1157 l 910 1157 m 409 386 l 409 285 l 1011 285 l 1011 386 l 1219 386 l 1219 -162 l 270 -162 q 201 -93 201 -162 l 201 386 l 409 386 m 1011 23 l 1011 108 l 409 108 l 409 23 l 1011 23 m 1026 764 l 1026 833 l 910 833 l 910 764 l 1026 764 z "},"걦":{"ha":1296,"x_min":0,"x_max":0,"o":""},"걧":{"ha":1296,"x_min":0,"x_max":0,"o":""},"걨":{"ha":1296,"x_min":0,"x_max":0,"o":""},"걩":{"ha":1296,"x_min":0,"x_max":0,"o":""},"걪":{"ha":1296,"x_min":0,"x_max":0,"o":""},"걫":{"ha":1296,"x_min":0,"x_max":0,"o":""},"걬":{"ha":1296,"x_min":0,"x_max":0,"o":""},"걭":{"ha":1296,"x_min":0,"x_max":0,"o":""},"걮":{"ha":1296,"x_min":0,"x_max":0,"o":""},"걯":{"ha":1296,"x_min":0,"x_max":0,"o":""},"거":{"ha":1296,"x_min":15,"x_max":1196,"o":"m 671 1065 q 741 995 741 1065 q 699 694 735 833 l 988 694 l 988 1157 l 1196 1157 l 1196 -162 l 988 -162 l 988 494 l 664 494 l 664 579 q 154 15 529 207 l 15 162 q 374 451 244 272 q 529 880 505 631 l 77 880 l 62 1065 l 671 1065 z "},"걱":{"ha":1296,"x_min":15,"x_max":1196,"o":"m 694 1111 q 764 1042 764 1111 q 739 903 758 968 l 988 903 l 988 1157 l 1196 1157 l 1196 394 l 988 394 l 988 718 l 671 718 l 671 744 q 438 515 586 603 q 93 394 289 426 l 15 586 q 360 708 239 625 q 517 926 481 790 l 77 926 l 62 1111 l 694 1111 m 1196 -170 l 988 -170 l 988 139 l 177 139 l 177 324 l 1196 324 l 1196 -170 z "},"걲":{"ha":1296,"x_min":0,"x_max":0,"o":""},"걳":{"ha":1296,"x_min":0,"x_max":0,"o":""},"건":{"ha":1296,"x_min":15,"x_max":1227,"o":"m 694 1111 q 764 1042 764 1111 q 727 864 758 952 l 988 864 l 988 1157 l 1196 1157 l 1196 162 l 988 162 l 988 679 l 687 679 l 687 770 q 454 519 606 619 q 93 370 301 418 l 15 556 q 363 698 242 608 q 520 926 485 789 l 77 926 l 62 1111 l 694 1111 m 417 293 l 417 46 l 1211 46 l 1227 -147 l 278 -147 q 208 -77 208 -147 l 208 293 l 417 293 z "},"걵":{"ha":1296,"x_min":0,"x_max":0,"o":""},"걶":{"ha":1296,"x_min":0,"x_max":0,"o":""},"걷":{"ha":1296,"x_min":15,"x_max":1219,"o":"m 694 1111 q 764 1042 764 1111 q 745 926 759 981 l 988 926 l 988 1157 l 1196 1157 l 1196 440 l 988 440 l 988 741 l 694 741 l 694 793 q 93 440 548 515 l 15 625 q 360 735 242 665 q 515 926 478 806 l 77 926 l 62 1111 l 694 1111 m 1196 370 l 1196 185 l 417 185 l 417 23 l 1204 23 l 1219 -162 l 270 -162 q 201 -93 201 -162 l 201 370 l 1196 370 z "},"걸":{"ha":1296,"x_min":15,"x_max":1219,"o":"m 694 1111 q 764 1042 764 1111 q 745 949 758 991 l 988 949 l 988 1157 l 1196 1157 l 1196 525 l 988 525 l 988 764 l 679 764 l 679 801 q 448 599 597 677 q 93 486 298 520 l 15 671 q 344 769 227 708 q 505 926 461 830 l 77 926 l 62 1111 l 694 1111 m 1196 455 l 1196 62 l 394 62 l 394 0 l 1204 0 l 1219 -170 l 270 -170 q 201 -100 201 -170 l 201 224 l 995 224 l 995 285 l 201 285 l 201 455 l 1196 455 z "},"걹":{"ha":1296,"x_min":0,"x_max":0,"o":""},"걺":{"ha":1296,"x_min":15,"x_max":1196,"o":"m 694 1111 q 764 1042 764 1111 q 745 949 758 991 l 988 949 l 988 1157 l 1196 1157 l 1196 525 l 988 525 l 988 764 l 679 764 l 679 801 q 448 599 597 677 q 93 486 298 520 l 15 671 q 344 769 227 708 q 505 926 461 830 l 77 926 l 62 1111 l 694 1111 m 1196 455 l 1196 -170 l 741 -170 l 741 455 l 1196 455 m 1011 8 l 1011 278 l 926 278 l 926 8 l 1011 8 m 185 455 l 671 455 l 671 77 l 386 77 l 386 2 q 687 23 539 3 l 702 -139 q 514 -164 619 -157 q 255 -170 409 -170 q 185 -100 185 -170 l 185 224 l 478 224 l 478 285 l 185 285 l 185 455 z "},"걻":{"ha":1296,"x_min":0,"x_max":0,"o":""},"걼":{"ha":1296,"x_min":0,"x_max":0,"o":""},"걽":{"ha":1296,"x_min":0,"x_max":0,"o":""},"걾":{"ha":1296,"x_min":0,"x_max":0,"o":""},"걿":{"ha":1296,"x_min":0,"x_max":0,"o":""},"검":{"ha":1296,"x_min":15,"x_max":1196,"o":"m 694 1111 q 764 1042 764 1111 q 745 926 759 981 l 988 926 l 988 1157 l 1196 1157 l 1196 440 l 988 440 l 988 741 l 694 741 l 694 793 q 93 440 548 515 l 15 625 q 360 735 242 665 q 515 926 478 806 l 77 926 l 62 1111 l 694 1111 m 1196 370 l 1196 -162 l 270 -162 q 201 -93 201 -162 l 201 370 l 1196 370 m 988 23 l 988 185 l 409 185 l 409 23 l 988 23 z "},"겁":{"ha":1296,"x_min":15,"x_max":1196,"o":"m 694 1111 q 764 1042 764 1111 q 745 926 759 981 l 988 926 l 988 1157 l 1196 1157 l 1196 440 l 988 440 l 988 741 l 694 741 l 694 793 q 93 440 548 515 l 15 625 q 360 735 242 665 q 515 926 478 806 l 77 926 l 62 1111 l 694 1111 m 409 386 l 409 285 l 988 285 l 988 386 l 1196 386 l 1196 -162 l 270 -162 q 201 -93 201 -162 l 201 386 l 409 386 m 988 15 l 988 116 l 409 116 l 409 15 l 988 15 z "},"겂":{"ha":1296,"x_min":15,"x_max":1335,"o":"m 694 1111 q 764 1042 764 1111 q 745 926 759 981 l 988 926 l 988 1157 l 1196 1157 l 1196 440 l 988 440 l 988 741 l 694 741 l 694 793 q 93 440 548 515 l 15 625 q 360 735 242 665 q 515 926 478 806 l 77 926 l 62 1111 l 694 1111 m 363 386 l 363 285 l 502 285 l 502 386 l 679 386 l 679 -23 q 833 111 772 25 q 895 316 895 198 l 895 394 l 1096 394 l 1096 316 q 1164 108 1096 193 q 1335 -23 1231 23 l 1188 -177 q 997 5 1071 -105 q 904 -108 955 -60 q 802 -185 853 -156 l 679 -48 l 679 -162 l 255 -162 q 185 -93 185 -162 l 185 386 l 363 386 m 502 8 l 502 123 l 363 123 l 363 8 l 502 8 z "},"것":{"ha":1296,"x_min":15,"x_max":1289,"o":"m 694 1111 q 764 1042 764 1111 q 727 864 758 952 l 988 864 l 988 1157 l 1196 1157 l 1196 324 l 988 324 l 988 679 l 687 679 l 687 770 q 454 519 606 619 q 93 370 301 418 l 15 556 q 363 698 242 608 q 520 926 485 789 l 77 926 l 62 1111 l 694 1111 m 810 440 l 810 370 q 887 204 810 281 q 1073 73 963 127 q 1289 -8 1184 19 l 1188 -177 q 927 -69 1060 -140 q 708 110 793 2 q 491 -75 622 -3 q 231 -185 360 -147 l 131 -15 q 346 66 235 11 q 533 201 457 122 q 610 370 610 281 l 610 440 l 810 440 z "},"겄":{"ha":1296,"x_min":15,"x_max":1350,"o":"m 694 1111 q 764 1042 764 1111 q 739 903 758 968 l 988 903 l 988 1157 l 1196 1157 l 1196 394 l 988 394 l 988 718 l 671 718 l 671 744 q 438 515 586 603 q 93 394 289 426 l 15 586 q 360 708 239 625 q 517 926 481 790 l 77 926 l 62 1111 l 694 1111 m 85 -39 q 287 105 204 14 q 370 309 370 196 l 370 370 l 548 370 l 548 301 q 595 161 548 228 q 718 39 642 94 q 840 161 793 94 q 887 301 887 228 l 887 370 l 1065 370 l 1065 301 q 1151 105 1065 194 q 1350 -31 1238 15 l 1235 -177 q 974 48 1066 -93 q 850 -92 921 -29 q 718 -185 779 -154 q 585 -90 653 -150 q 465 45 517 -31 q 347 -90 415 -32 q 208 -185 279 -148 l 85 -39 z "},"겅":{"ha":1296,"x_min":15,"x_max":1211,"o":"m 694 1111 q 764 1042 764 1111 q 739 903 758 968 l 988 903 l 988 1157 l 1196 1157 l 1196 394 l 988 394 l 988 718 l 671 718 l 671 744 q 438 515 586 603 q 93 394 289 426 l 15 586 q 360 708 239 625 q 517 926 481 790 l 77 926 l 62 1111 l 694 1111 m 687 -185 q 305 -110 440 -185 q 170 100 170 -34 q 305 310 170 235 q 687 386 440 386 q 1075 310 938 386 q 1211 100 1211 235 q 1075 -110 1211 -34 q 687 -185 938 -185 m 687 0 q 909 27 830 0 q 988 100 988 54 q 909 174 988 147 q 687 201 830 201 q 471 174 549 201 q 394 100 394 147 q 471 27 394 54 q 687 0 549 0 z "},"겆":{"ha":1296,"x_min":15,"x_max":1296,"o":"m 694 1111 q 764 1042 764 1111 q 745 926 759 981 l 988 926 l 988 1157 l 1196 1157 l 1196 440 l 988 440 l 988 741 l 694 741 l 694 793 q 93 440 548 515 l 15 625 q 360 735 242 665 q 515 926 478 806 l 77 926 l 62 1111 l 694 1111 m 139 -15 q 404 59 275 8 q 588 185 534 110 l 224 185 l 224 370 l 1219 370 l 1219 185 l 847 185 q 1029 64 900 113 q 1296 -8 1157 15 l 1181 -177 q 721 49 860 -96 q 512 -96 639 -39 q 255 -185 384 -153 l 139 -15 z "},"겇":{"ha":1296,"x_min":0,"x_max":0,"o":""},"겈":{"ha":1296,"x_min":0,"x_max":0,"o":""},"겉":{"ha":1296,"x_min":15,"x_max":1227,"o":"m 694 1111 q 764 1042 764 1111 q 745 949 758 991 l 988 949 l 988 1157 l 1196 1157 l 1196 525 l 988 525 l 988 764 l 679 764 l 679 801 q 448 599 597 677 q 93 486 298 520 l 15 671 q 344 769 227 708 q 505 926 461 830 l 77 926 l 62 1111 l 694 1111 m 1204 455 l 1204 285 l 401 285 l 401 224 l 1196 224 l 1196 62 l 401 62 l 401 0 l 1211 0 l 1227 -170 l 270 -170 q 201 -100 201 -170 l 201 455 l 1204 455 z "},"겊":{"ha":1296,"x_min":15,"x_max":1235,"o":"m 694 1111 q 764 1042 764 1111 q 745 926 759 981 l 988 926 l 988 1157 l 1196 1157 l 1196 440 l 988 440 l 988 741 l 694 741 l 694 793 q 93 440 548 515 l 15 625 q 360 735 242 665 q 515 926 478 806 l 77 926 l 62 1111 l 694 1111 m 387 23 l 377 185 l 185 185 l 185 370 l 1204 370 l 1204 185 l 1028 185 l 1017 23 l 1219 23 l 1235 -162 l 162 -162 l 162 23 l 387 23 m 816 23 l 827 185 l 577 185 l 588 23 l 816 23 z "},"겋":{"ha":1296,"x_min":15,"x_max":1227,"o":"m 694 1111 q 764 1042 764 1111 q 745 949 758 991 l 988 949 l 988 1157 l 1196 1157 l 1196 525 l 988 525 l 988 764 l 679 764 l 679 801 q 448 599 597 677 q 93 486 298 520 l 15 671 q 344 769 227 708 q 505 926 461 830 l 77 926 l 62 1111 l 694 1111 m 718 -185 q 361 -131 483 -185 q 239 31 239 -77 q 361 193 239 139 q 718 247 483 247 q 1074 193 952 247 q 1196 31 1196 139 q 1074 -131 1196 -77 q 718 -185 952 -185 m 718 -23 q 910 -10 847 -23 q 972 31 972 3 q 910 72 972 59 q 718 85 847 85 q 525 72 588 85 q 463 31 463 59 q 525 -10 463 3 q 718 -23 588 -23 m 826 509 l 826 448 l 1227 448 l 1227 278 l 208 278 l 208 448 l 610 448 l 610 509 l 826 509 z "},"게":{"ha":1296,"x_min":-15,"x_max":1219,"o":"m 556 1065 q 617 995 617 1060 q 591 718 613 849 l 748 718 l 748 1157 l 941 1157 l 941 -162 l 748 -162 l 748 517 l 556 517 l 556 568 q 397 248 500 381 q 139 15 293 116 l -15 147 q 285 431 173 255 q 420 880 398 608 l 54 880 l 39 1065 l 556 1065 m 1219 1157 l 1219 -162 l 1026 -162 l 1026 1157 l 1219 1157 z "},"겍":{"ha":1296,"x_min":0,"x_max":1219,"o":"m 556 1111 q 617 1042 617 1106 q 600 903 613 972 l 748 903 l 748 1157 l 941 1157 l 941 394 l 748 394 l 748 718 l 556 718 l 556 758 q 375 517 492 610 q 93 370 258 424 l 0 532 q 407 926 349 639 l 54 926 l 39 1111 l 556 1111 m 1219 1157 l 1219 394 l 1026 394 l 1026 1157 l 1219 1157 m 1219 -170 l 1019 -170 l 1019 139 l 177 139 l 177 324 l 1219 324 l 1219 -170 z "},"겎":{"ha":1296,"x_min":0,"x_max":0,"o":""},"겏":{"ha":1296,"x_min":0,"x_max":0,"o":""},"겐":{"ha":1296,"x_min":0,"x_max":1242,"o":"m 556 1111 q 617 1042 617 1106 q 583 833 611 934 l 748 833 l 748 1157 l 941 1157 l 941 208 l 748 208 l 748 648 l 532 648 l 532 698 q 352 465 465 559 q 93 324 239 372 l 0 486 q 277 654 174 540 q 409 926 380 767 l 54 926 l 39 1111 l 556 1111 m 1219 1157 l 1219 208 l 1026 208 l 1026 1157 l 1219 1157 m 409 293 l 409 46 l 1227 46 l 1242 -147 l 270 -147 q 201 -77 201 -147 l 201 293 l 409 293 z "},"겑":{"ha":1296,"x_min":0,"x_max":0,"o":""},"겒":{"ha":1296,"x_min":0,"x_max":0,"o":""},"겓":{"ha":1296,"x_min":0,"x_max":0,"o":""},"겔":{"ha":1296,"x_min":0,"x_max":1242,"o":"m 617 1111 q 602 949 617 1022 l 748 949 l 748 1157 l 941 1157 l 941 509 l 748 509 l 748 764 l 556 764 l 556 802 q 375 584 492 668 q 93 440 258 500 l 0 602 q 262 735 162 656 q 398 926 363 813 l 46 926 l 46 1111 l 617 1111 m 1219 1157 l 1219 509 l 1026 509 l 1026 1157 l 1219 1157 m 1219 455 l 1219 62 l 394 62 l 394 0 l 1227 0 l 1242 -170 l 270 -170 q 201 -100 201 -170 l 201 224 l 1019 224 l 1019 285 l 201 285 l 201 455 l 1219 455 z "},"겕":{"ha":1296,"x_min":0,"x_max":0,"o":""},"겖":{"ha":1296,"x_min":0,"x_max":0,"o":""},"겗":{"ha":1296,"x_min":0,"x_max":0,"o":""},"겘":{"ha":1296,"x_min":0,"x_max":0,"o":""},"겙":{"ha":1296,"x_min":0,"x_max":0,"o":""},"겚":{"ha":1296,"x_min":0,"x_max":0,"o":""},"겛":{"ha":1296,"x_min":0,"x_max":0,"o":""},"겜":{"ha":1296,"x_min":0,"x_max":1219,"o":"m 556 1111 q 617 1042 617 1106 q 603 926 613 980 l 748 926 l 748 1157 l 941 1157 l 941 440 l 748 440 l 748 741 l 556 741 l 556 767 q 377 536 494 625 q 93 394 259 448 l 0 556 q 276 700 176 610 q 406 926 377 790 l 54 926 l 39 1111 l 556 1111 m 1219 1157 l 1219 440 l 1026 440 l 1026 1157 l 1219 1157 m 1219 370 l 1219 -162 l 270 -162 q 201 -93 201 -162 l 201 370 l 1219 370 m 1003 23 l 1003 185 l 409 185 l 409 23 l 1003 23 z "},"겝":{"ha":1296,"x_min":0,"x_max":1219,"o":"m 556 1111 q 617 1042 617 1106 q 603 926 613 980 l 748 926 l 748 1157 l 941 1157 l 941 440 l 748 440 l 748 741 l 556 741 l 556 767 q 377 536 494 625 q 93 394 259 448 l 0 556 q 276 700 176 610 q 406 926 377 790 l 54 926 l 39 1111 l 556 1111 m 1219 1157 l 1219 440 l 1026 440 l 1026 1157 l 1219 1157 m 409 386 l 409 285 l 1011 285 l 1011 386 l 1219 386 l 1219 -162 l 270 -162 q 201 -93 201 -162 l 201 386 l 409 386 m 1011 23 l 1011 108 l 409 108 l 409 23 l 1011 23 z "},"겞":{"ha":1296,"x_min":0,"x_max":0,"o":""},"겟":{"ha":1296,"x_min":0,"x_max":1304,"o":"m 556 1111 q 617 1042 617 1106 q 596 880 613 957 l 748 880 l 748 1150 l 941 1150 l 941 394 l 748 394 l 748 694 l 548 694 l 548 731 q 366 477 483 579 q 93 324 248 375 l 0 486 q 277 654 174 540 q 409 926 380 767 l 54 926 l 39 1111 l 556 1111 m 1219 1150 l 1219 316 l 1026 316 l 1026 1150 l 1219 1150 m 826 347 l 826 293 q 971 114 826 190 q 1304 -8 1117 39 l 1204 -177 q 944 -83 1077 -147 q 725 74 812 -20 q 505 -89 639 -23 q 247 -185 372 -154 l 147 -15 q 477 110 329 31 q 625 293 625 190 l 625 347 l 826 347 z "},"겠":{"ha":1296,"x_min":0,"x_max":1389,"o":"m 556 1111 q 617 1042 617 1106 q 600 903 613 972 l 748 903 l 748 1157 l 941 1157 l 941 394 l 748 394 l 748 718 l 556 718 l 556 758 q 375 517 492 610 q 93 370 258 424 l 0 532 q 407 926 349 639 l 54 926 l 39 1111 l 556 1111 m 1219 1157 l 1219 394 l 1026 394 l 1026 1157 l 1219 1157 m 77 -31 q 283 107 204 25 q 363 316 363 190 l 363 370 l 563 370 l 563 316 q 736 40 563 160 q 856 164 810 93 q 903 316 903 235 l 903 370 l 1103 370 l 1103 316 q 1184 109 1103 194 q 1389 -31 1265 23 l 1258 -177 q 1118 -85 1187 -142 q 998 49 1049 -28 q 868 -92 941 -29 q 733 -185 795 -154 q 600 -90 671 -150 q 472 46 528 -29 q 353 -90 421 -31 q 216 -185 284 -150 l 77 -31 z "},"겡":{"ha":1296,"x_min":0,"x_max":1242,"o":"m 556 1111 q 617 1042 617 1106 q 600 903 613 972 l 748 903 l 748 1157 l 941 1157 l 941 455 l 748 455 l 748 718 l 556 718 l 556 758 q 375 517 492 610 q 93 370 258 424 l 0 532 q 407 926 349 639 l 54 926 l 39 1111 l 556 1111 m 1219 1157 l 1219 417 l 1026 417 l 1026 1157 l 1219 1157 m 710 -185 q 317 -110 457 -185 q 177 100 177 -34 q 317 310 177 235 q 710 386 457 386 q 1103 310 963 386 q 1242 100 1242 235 q 1103 -110 1242 -34 q 710 -185 963 -185 m 710 0 q 921 27 847 0 q 995 100 995 54 q 921 174 995 147 q 710 201 847 201 q 498 174 573 201 q 424 100 424 147 q 498 27 424 54 q 710 0 573 0 z "},"겢":{"ha":1296,"x_min":0,"x_max":0,"o":""},"겣":{"ha":1296,"x_min":0,"x_max":0,"o":""},"겤":{"ha":1296,"x_min":0,"x_max":0,"o":""},"겥":{"ha":1296,"x_min":0,"x_max":0,"o":""},"겦":{"ha":1296,"x_min":0,"x_max":0,"o":""},"겧":{"ha":1296,"x_min":0,"x_max":0,"o":""},"겨":{"ha":1296,"x_min":15,"x_max":1196,"o":"m 671 1065 q 741 995 741 1065 q 731 880 739 938 l 988 880 l 988 1157 l 1196 1157 l 1196 -162 l 988 -162 l 988 278 l 579 278 l 579 400 q 154 15 435 159 l 15 162 q 374 451 244 272 q 529 880 505 631 l 77 880 l 62 1065 l 671 1065 m 988 478 l 988 679 l 694 679 q 622 478 665 568 l 988 478 z "},"격":{"ha":1296,"x_min":15,"x_max":1196,"o":"m 694 1111 q 764 1042 764 1111 l 762 1019 l 988 1019 l 988 1157 l 1196 1157 l 1196 394 l 988 394 l 988 556 l 579 556 l 579 623 q 367 476 491 534 q 93 394 242 418 l 15 586 q 360 708 239 625 q 517 926 481 790 l 77 926 l 62 1111 l 694 1111 m 1196 -170 l 988 -170 l 988 139 l 177 139 l 177 324 l 1196 324 l 1196 -170 m 988 741 l 988 833 l 716 833 q 670 741 696 784 l 988 741 z "},"겪":{"ha":1296,"x_min":15,"x_max":1196,"o":"m 694 1111 q 764 1042 764 1111 l 762 1019 l 988 1019 l 988 1157 l 1196 1157 l 1196 394 l 988 394 l 988 556 l 579 556 l 579 623 q 367 476 491 534 q 93 394 242 418 l 15 586 q 360 708 239 625 q 517 926 481 790 l 77 926 l 62 1111 l 694 1111 m 664 -170 l 455 -170 l 455 139 l 162 139 l 162 324 l 664 324 l 664 -170 m 1196 -170 l 988 -170 l 988 139 l 718 139 l 718 324 l 1196 324 l 1196 -170 m 988 741 l 988 833 l 716 833 q 670 741 696 784 l 988 741 z "},"겫":{"ha":1296,"x_min":0,"x_max":0,"o":""},"견":{"ha":1296,"x_min":15,"x_max":1227,"o":"m 694 1111 q 764 1042 764 1111 q 755 972 762 1008 l 988 972 l 988 1157 l 1196 1157 l 1196 162 l 988 162 l 988 509 l 548 509 l 548 591 q 93 370 377 435 l 15 556 q 363 698 242 608 q 520 926 485 789 l 77 926 l 62 1111 l 694 1111 m 417 293 l 417 46 l 1211 46 l 1227 -147 l 278 -147 q 208 -77 208 -147 l 208 293 l 417 293 m 988 694 l 988 787 l 696 787 q 639 694 673 741 l 988 694 z "},"겭":{"ha":1296,"x_min":0,"x_max":0,"o":""},"겮":{"ha":1296,"x_min":0,"x_max":0,"o":""},"겯":{"ha":1296,"x_min":15,"x_max":1219,"o":"m 694 1111 q 764 1042 764 1111 l 762 1019 l 988 1019 l 988 1157 l 1196 1157 l 1196 440 l 988 440 l 988 579 l 579 579 l 579 645 q 93 440 410 492 l 15 625 q 360 735 242 665 q 515 926 478 806 l 77 926 l 62 1111 l 694 1111 m 1196 370 l 1196 185 l 417 185 l 417 23 l 1204 23 l 1219 -162 l 270 -162 q 201 -93 201 -162 l 201 370 l 1196 370 m 988 764 l 988 833 l 715 833 q 677 764 702 806 l 988 764 z "},"결":{"ha":1296,"x_min":15,"x_max":1219,"o":"m 694 1111 q 764 1049 759 1111 l 988 1049 l 988 1157 l 1196 1157 l 1196 525 l 988 525 l 988 633 l 594 633 l 594 701 q 93 486 424 542 l 15 671 q 344 769 227 708 q 505 926 461 830 l 77 926 l 62 1111 l 694 1111 m 1196 455 l 1196 62 l 394 62 l 394 0 l 1204 0 l 1219 -170 l 270 -170 q 201 -100 201 -170 l 201 224 l 995 224 l 995 285 l 201 285 l 201 455 l 1196 455 m 988 802 l 988 880 l 721 880 q 681 802 701 835 l 988 802 z "},"겱":{"ha":1296,"x_min":0,"x_max":0,"o":""},"겲":{"ha":1296,"x_min":0,"x_max":0,"o":""},"겳":{"ha":1296,"x_min":0,"x_max":0,"o":""},"겴":{"ha":1296,"x_min":0,"x_max":0,"o":""},"겵":{"ha":1296,"x_min":0,"x_max":0,"o":""},"겶":{"ha":1296,"x_min":0,"x_max":0,"o":""},"겷":{"ha":1296,"x_min":15,"x_max":1273,"o":"m 694 1111 q 764 1049 759 1111 l 988 1049 l 988 1157 l 1196 1157 l 1196 525 l 988 525 l 988 633 l 594 633 l 594 701 q 93 486 424 542 l 15 671 q 344 769 227 708 q 505 926 461 830 l 77 926 l 62 1111 l 694 1111 m 1088 494 l 1088 424 l 1273 424 l 1273 255 l 710 255 l 710 424 l 887 424 l 887 494 l 1088 494 m 988 -185 q 802 -130 870 -185 q 733 23 733 -74 q 802 176 733 120 q 988 231 870 231 q 1180 176 1110 231 q 1250 23 1250 120 q 1180 -130 1250 -74 q 988 -185 1110 -185 m 988 -31 q 1043 -15 1022 -31 q 1065 23 1065 0 q 1043 62 1065 46 q 988 77 1022 77 q 932 62 954 77 q 910 23 910 46 q 932 -15 910 0 q 988 -31 954 -31 m 185 455 l 671 455 l 671 77 l 386 77 l 386 2 q 687 23 539 3 l 702 -139 q 514 -164 619 -157 q 255 -170 409 -170 q 185 -100 185 -170 l 185 224 l 478 224 l 478 285 l 185 285 l 185 455 m 988 802 l 988 880 l 721 880 q 681 802 701 835 l 988 802 z "},"겸":{"ha":1296,"x_min":15,"x_max":1196,"o":"m 694 1111 q 764 1042 764 1111 l 762 1019 l 988 1019 l 988 1157 l 1196 1157 l 1196 440 l 988 440 l 988 579 l 579 579 l 579 645 q 93 440 410 492 l 15 625 q 360 735 242 665 q 515 926 478 806 l 77 926 l 62 1111 l 694 1111 m 1196 370 l 1196 -162 l 270 -162 q 201 -93 201 -162 l 201 370 l 1196 370 m 988 23 l 988 185 l 409 185 l 409 23 l 988 23 m 988 764 l 988 833 l 715 833 q 677 764 702 806 l 988 764 z "},"겹":{"ha":1296,"x_min":15,"x_max":1196,"o":"m 694 1111 q 764 1042 764 1111 l 762 1019 l 988 1019 l 988 1157 l 1196 1157 l 1196 440 l 988 440 l 988 579 l 579 579 l 579 645 q 93 440 410 492 l 15 625 q 360 735 242 665 q 515 926 478 806 l 77 926 l 62 1111 l 694 1111 m 409 386 l 409 285 l 988 285 l 988 386 l 1196 386 l 1196 -162 l 270 -162 q 201 -93 201 -162 l 201 386 l 409 386 m 988 15 l 988 116 l 409 116 l 409 15 l 988 15 m 988 764 l 988 833 l 715 833 q 677 764 702 806 l 988 764 z "},"겺":{"ha":1296,"x_min":0,"x_max":0,"o":""},"겻":{"ha":1296,"x_min":15,"x_max":1289,"o":"m 694 1111 q 764 1042 764 1111 l 761 1011 l 988 1011 l 988 1157 l 1196 1157 l 1196 324 l 988 324 l 988 548 l 579 548 l 579 622 q 93 370 406 441 l 15 556 q 363 698 242 608 q 520 926 485 789 l 77 926 l 62 1111 l 694 1111 m 810 440 l 810 370 q 887 204 810 281 q 1073 73 963 127 q 1289 -8 1184 19 l 1188 -177 q 927 -69 1060 -140 q 708 110 793 2 q 491 -75 622 -3 q 231 -185 360 -147 l 131 -15 q 346 66 235 11 q 533 201 457 122 q 610 370 610 281 l 610 440 l 810 440 m 988 733 l 988 826 l 713 826 q 665 733 693 778 l 988 733 z "},"겼":{"ha":1296,"x_min":15,"x_max":1350,"o":"m 694 1111 q 764 1042 764 1111 l 762 1019 l 988 1019 l 988 1157 l 1196 1157 l 1196 394 l 988 394 l 988 556 l 579 556 l 579 623 q 367 476 491 534 q 93 394 242 418 l 15 586 q 360 708 239 625 q 517 926 481 790 l 77 926 l 62 1111 l 694 1111 m 85 -39 q 287 105 204 14 q 370 309 370 196 l 370 370 l 548 370 l 548 301 q 595 161 548 228 q 718 39 642 94 q 840 161 793 94 q 887 301 887 228 l 887 370 l 1065 370 l 1065 301 q 1151 105 1065 194 q 1350 -31 1238 15 l 1235 -177 q 974 48 1066 -93 q 850 -92 921 -29 q 718 -185 779 -154 q 585 -90 653 -150 q 465 45 517 -31 q 347 -90 415 -32 q 208 -185 279 -148 l 85 -39 m 988 741 l 988 833 l 716 833 q 670 741 696 784 l 988 741 z "},"경":{"ha":1296,"x_min":15,"x_max":1211,"o":"m 694 1111 q 764 1042 764 1111 l 762 1019 l 988 1019 l 988 1157 l 1196 1157 l 1196 394 l 988 394 l 988 556 l 579 556 l 579 623 q 367 476 491 534 q 93 394 242 418 l 15 586 q 360 708 239 625 q 517 926 481 790 l 77 926 l 62 1111 l 694 1111 m 687 -185 q 305 -110 440 -185 q 170 100 170 -34 q 305 310 170 235 q 687 386 440 386 q 1075 310 938 386 q 1211 100 1211 235 q 1075 -110 1211 -34 q 687 -185 938 -185 m 687 0 q 909 27 830 0 q 988 100 988 54 q 909 174 988 147 q 687 201 830 201 q 471 174 549 201 q 394 100 394 147 q 471 27 394 54 q 687 0 549 0 m 988 741 l 988 833 l 716 833 q 670 741 696 784 l 988 741 z "},"겾":{"ha":1296,"x_min":0,"x_max":0,"o":""},"겿":{"ha":1296,"x_min":15,"x_max":1296,"o":"m 694 1111 q 764 1042 764 1111 l 762 1019 l 988 1019 l 988 1157 l 1196 1157 l 1196 440 l 988 440 l 988 579 l 579 579 l 579 645 q 93 440 410 492 l 15 625 q 360 735 242 665 q 515 926 478 806 l 77 926 l 62 1111 l 694 1111 m 818 455 l 818 347 l 1219 347 l 1219 162 l 838 162 q 1006 52 884 91 q 1296 -15 1128 12 l 1165 -177 q 721 19 853 -113 q 270 -185 583 -120 l 139 -23 q 426 46 301 5 q 597 162 551 88 l 224 162 l 224 347 l 617 347 l 617 455 l 818 455 m 988 764 l 988 833 l 715 833 q 677 764 702 806 l 988 764 z "},"곀":{"ha":1296,"x_min":0,"x_max":0,"o":""},"곁":{"ha":1296,"x_min":15,"x_max":1227,"o":"m 694 1111 q 764 1049 759 1111 l 988 1049 l 988 1157 l 1196 1157 l 1196 525 l 988 525 l 988 633 l 594 633 l 594 701 q 93 486 424 542 l 15 671 q 344 769 227 708 q 505 926 461 830 l 77 926 l 62 1111 l 694 1111 m 1204 455 l 1204 285 l 401 285 l 401 224 l 1196 224 l 1196 62 l 401 62 l 401 0 l 1211 0 l 1227 -170 l 270 -170 q 201 -100 201 -170 l 201 455 l 1204 455 m 988 802 l 988 880 l 721 880 q 681 802 701 835 l 988 802 z "},"곂":{"ha":1296,"x_min":0,"x_max":0,"o":""},"곃":{"ha":1296,"x_min":0,"x_max":0,"o":""},"계":{"ha":1296,"x_min":-15,"x_max":1219,"o":"m 556 1065 q 617 995 617 1060 l 611 880 l 748 880 l 748 1157 l 941 1157 l 941 -162 l 748 -162 l 748 278 l 486 278 l 486 390 q 139 15 373 168 l -15 147 q 285 431 173 255 q 420 880 398 608 l 54 880 l 39 1065 l 556 1065 m 1219 1157 l 1219 -162 l 1026 -162 l 1026 1157 l 1219 1157 m 748 478 l 748 679 l 583 679 q 525 478 562 574 l 748 478 z "},"곅":{"ha":1296,"x_min":0,"x_max":0,"o":""},"곆":{"ha":1296,"x_min":0,"x_max":0,"o":""},"곇":{"ha":1296,"x_min":0,"x_max":0,"o":""},"곈":{"ha":1296,"x_min":0,"x_max":1242,"o":"m 556 1111 q 617 1042 617 1106 l 614 995 l 748 995 l 748 1157 l 941 1157 l 941 208 l 748 208 l 748 532 l 463 532 l 463 583 q 93 324 326 400 l 0 486 q 277 654 174 540 q 409 926 380 767 l 54 926 l 39 1111 l 556 1111 m 1219 1157 l 1219 208 l 1026 208 l 1026 1157 l 1219 1157 m 409 293 l 409 46 l 1227 46 l 1242 -147 l 270 -147 q 201 -77 201 -147 l 201 293 l 409 293 m 748 718 l 748 810 l 577 810 q 542 718 565 769 l 748 718 z "},"곉":{"ha":1296,"x_min":0,"x_max":0,"o":""},"곊":{"ha":1296,"x_min":0,"x_max":0,"o":""},"곋":{"ha":1296,"x_min":0,"x_max":0,"o":""},"곌":{"ha":1296,"x_min":0,"x_max":1242,"o":"m 617 1111 q 616 1049 617 1071 l 748 1049 l 748 1157 l 941 1157 l 941 509 l 748 509 l 748 633 l 486 633 l 486 691 q 319 546 417 605 q 93 440 221 486 l 0 602 q 262 735 162 656 q 398 926 363 813 l 46 926 l 46 1111 l 617 1111 m 1219 1157 l 1219 509 l 1026 509 l 1026 1157 l 1219 1157 m 1219 455 l 1219 62 l 394 62 l 394 0 l 1227 0 l 1242 -170 l 270 -170 q 201 -100 201 -170 l 201 224 l 1019 224 l 1019 285 l 201 285 l 201 455 l 1219 455 m 748 802 l 748 880 l 585 880 q 556 802 574 841 l 748 802 z "},"곍":{"ha":1296,"x_min":0,"x_max":0,"o":""},"곎":{"ha":1296,"x_min":0,"x_max":0,"o":""},"곏":{"ha":1296,"x_min":0,"x_max":0,"o":""},"곐":{"ha":1296,"x_min":0,"x_max":0,"o":""},"곑":{"ha":1296,"x_min":0,"x_max":0,"o":""},"곒":{"ha":1296,"x_min":0,"x_max":0,"o":""},"곓":{"ha":1296,"x_min":0,"x_max":0,"o":""},"곔":{"ha":1296,"x_min":0,"x_max":0,"o":""},"곕":{"ha":1296,"x_min":0,"x_max":1219,"o":"m 556 1111 q 617 1042 617 1106 l 616 1019 l 748 1019 l 748 1157 l 941 1157 l 941 440 l 748 440 l 748 579 l 486 579 l 486 647 q 320 496 418 557 q 93 394 222 435 l 0 556 q 276 700 176 610 q 406 926 377 790 l 54 926 l 39 1111 l 556 1111 m 1219 1157 l 1219 440 l 1026 440 l 1026 1157 l 1219 1157 m 409 386 l 409 285 l 1011 285 l 1011 386 l 1219 386 l 1219 -162 l 270 -162 q 201 -93 201 -162 l 201 386 l 409 386 m 1011 23 l 1011 108 l 409 108 l 409 23 l 1011 23 m 748 764 l 748 833 l 580 833 q 554 764 571 802 l 748 764 z "},"곖":{"ha":1296,"x_min":0,"x_max":0,"o":""},"곗":{"ha":1296,"x_min":0,"x_max":1304,"o":"m 556 1111 q 617 1042 617 1106 l 616 1019 l 748 1019 l 748 1150 l 941 1150 l 941 394 l 748 394 l 748 556 l 471 556 l 471 593 q 306 429 403 497 q 93 324 210 361 l 0 486 q 277 654 174 540 q 409 926 380 767 l 54 926 l 39 1111 l 556 1111 m 1219 1150 l 1219 316 l 1026 316 l 1026 1150 l 1219 1150 m 826 347 l 826 293 q 971 114 826 190 q 1304 -8 1117 39 l 1204 -177 q 944 -83 1077 -147 q 725 74 812 -20 q 505 -89 639 -23 q 247 -185 372 -154 l 147 -15 q 477 110 329 31 q 625 293 625 190 l 625 347 l 826 347 m 748 741 l 748 833 l 583 833 q 552 741 568 779 l 748 741 z "},"곘":{"ha":1296,"x_min":0,"x_max":1389,"o":"m 556 1111 q 617 1042 617 1106 l 616 1019 l 748 1019 l 748 1157 l 941 1157 l 941 394 l 748 394 l 748 556 l 471 556 l 471 614 q 93 370 341 451 l 0 532 q 407 926 349 639 l 54 926 l 39 1111 l 556 1111 m 1219 1157 l 1219 394 l 1026 394 l 1026 1157 l 1219 1157 m 77 -31 q 283 107 204 25 q 363 316 363 190 l 363 370 l 563 370 l 563 316 q 736 40 563 160 q 856 164 810 93 q 903 316 903 235 l 903 370 l 1103 370 l 1103 316 q 1184 109 1103 194 q 1389 -31 1265 23 l 1258 -177 q 1118 -85 1187 -142 q 998 49 1049 -28 q 868 -92 941 -29 q 733 -185 795 -154 q 600 -90 671 -150 q 472 46 528 -29 q 353 -90 421 -31 q 216 -185 284 -150 l 77 -31 m 748 741 l 748 833 l 582 833 q 548 741 569 789 l 748 741 z "},"곙":{"ha":1296,"x_min":0,"x_max":0,"o":""},"곚":{"ha":1296,"x_min":0,"x_max":0,"o":""},"곛":{"ha":1296,"x_min":0,"x_max":0,"o":""},"곜":{"ha":1296,"x_min":0,"x_max":0,"o":""},"곝":{"ha":1296,"x_min":0,"x_max":0,"o":""},"곞":{"ha":1296,"x_min":0,"x_max":0,"o":""},"곟":{"ha":1296,"x_min":0,"x_max":0,"o":""},"고":{"ha":1296,"x_min":46,"x_max":1258,"o":"m 1096 1088 q 1165 1019 1165 1088 q 1096 278 1154 606 l 887 309 q 960 903 957 619 l 139 903 l 123 1088 l 1096 1088 m 633 640 l 633 93 l 1242 93 l 1258 -93 l 46 -93 l 46 93 l 432 93 l 432 640 l 633 640 z "},"곡":{"ha":1296,"x_min":39,"x_max":1265,"o":"m 1096 1134 q 1165 1065 1165 1134 q 1150 910 1160 981 q 1119 710 1140 838 l 918 725 q 958 949 948 849 l 139 949 l 123 1134 l 1096 1134 m 471 610 l 471 795 l 687 795 l 687 610 l 1265 610 l 1265 424 l 39 424 l 39 610 l 471 610 m 1157 -170 l 957 -170 l 957 116 l 131 116 l 131 301 l 1157 301 l 1157 -170 z "},"곢":{"ha":1296,"x_min":0,"x_max":0,"o":""},"곣":{"ha":1296,"x_min":0,"x_max":0,"o":""},"곤":{"ha":1296,"x_min":39,"x_max":1265,"o":"m 1096 1134 q 1165 1065 1165 1134 q 1119 648 1154 869 l 918 664 q 960 949 949 818 l 139 949 l 123 1134 l 1096 1134 m 471 563 l 471 779 l 687 779 l 687 563 l 1265 563 l 1265 378 l 39 378 l 39 563 l 471 563 m 347 293 l 347 46 l 1165 46 l 1181 -147 l 216 -147 q 147 -77 147 -147 l 147 293 l 347 293 z "},"곥":{"ha":1296,"x_min":0,"x_max":0,"o":""},"곦":{"ha":1296,"x_min":0,"x_max":0,"o":""},"곧":{"ha":1296,"x_min":39,"x_max":1265,"o":"m 1096 1134 q 1165 1065 1165 1134 q 1152 940 1160 997 q 1127 795 1144 883 q 1124 765 1127 781 q 1119 733 1122 750 l 918 748 q 958 949 948 863 l 139 949 l 123 1134 l 1096 1134 m 471 633 l 471 810 l 687 810 l 687 633 l 1265 633 l 1265 448 l 39 448 l 39 633 l 471 633 m 1157 347 l 1157 162 l 340 162 l 340 23 l 1157 23 l 1173 -162 l 208 -162 q 139 -93 139 -162 l 139 347 l 1157 347 z "},"골":{"ha":1296,"x_min":39,"x_max":1265,"o":"m 1096 1134 q 1165 1065 1165 1134 q 1148 924 1160 998 q 1119 764 1136 849 l 918 779 q 955 949 946 875 l 139 949 l 123 1134 l 1096 1134 m 471 702 l 471 856 l 687 856 l 687 702 l 1265 702 l 1265 525 l 39 525 l 39 702 l 471 702 m 1157 448 l 1157 62 l 340 62 l 340 0 l 1165 0 l 1181 -170 l 208 -170 q 139 -100 139 -170 l 139 216 l 957 216 l 957 278 l 139 278 l 139 448 l 1157 448 z "},"곩":{"ha":1296,"x_min":0,"x_max":0,"o":""},"곪":{"ha":1296,"x_min":39,"x_max":1265,"o":"m 1096 1134 q 1165 1065 1165 1134 q 1148 924 1160 998 q 1119 764 1136 849 l 918 779 q 955 949 946 875 l 139 949 l 123 1134 l 1096 1134 m 471 702 l 471 856 l 687 856 l 687 702 l 1265 702 l 1265 525 l 39 525 l 39 702 l 471 702 m 1157 432 l 1157 -170 l 694 -170 l 694 432 l 1157 432 m 980 8 l 980 255 l 872 255 l 872 8 l 980 8 m 139 432 l 633 432 l 633 62 l 340 62 l 340 0 q 656 23 526 0 l 671 -139 q 474 -164 583 -157 q 208 -170 364 -170 q 139 -100 139 -170 l 139 216 l 440 216 l 440 278 l 139 278 l 139 432 z "},"곫":{"ha":1296,"x_min":0,"x_max":0,"o":""},"곬":{"ha":1296,"x_min":39,"x_max":1289,"o":"m 1096 1134 q 1165 1065 1165 1134 q 1148 924 1160 998 q 1119 764 1136 849 l 918 779 q 955 949 946 875 l 139 949 l 123 1134 l 1096 1134 m 471 702 l 471 856 l 687 856 l 687 702 l 1265 702 l 1265 525 l 39 525 l 39 702 l 471 702 m 1049 448 l 1049 347 q 1114 124 1049 210 q 1289 -23 1179 39 l 1142 -162 q 951 28 1020 -77 q 756 -170 877 -93 l 648 -62 l 656 -139 q 468 -164 573 -157 q 208 -170 363 -170 q 139 -100 139 -170 l 139 216 l 440 216 l 440 278 l 139 278 l 139 432 l 633 432 l 633 62 l 340 62 l 340 -6 q 640 15 492 -5 l 644 -14 q 792 133 736 46 q 849 347 849 219 l 849 448 l 1049 448 z "},"곭":{"ha":1296,"x_min":0,"x_max":0,"o":""},"곮":{"ha":1296,"x_min":0,"x_max":0,"o":""},"곯":{"ha":1296,"x_min":39,"x_max":1265,"o":"m 1096 1134 q 1165 1065 1165 1134 q 1148 924 1160 998 q 1119 764 1136 849 l 918 779 q 955 949 946 875 l 139 949 l 123 1134 l 1096 1134 m 471 702 l 471 856 l 687 856 l 687 702 l 1265 702 l 1265 525 l 39 525 l 39 702 l 471 702 m 1042 471 l 1042 409 l 1227 409 l 1227 247 l 664 247 l 664 409 l 841 409 l 841 471 l 1042 471 m 941 -193 q 756 -135 826 -193 q 687 15 687 -77 q 756 166 687 108 q 941 224 826 224 q 1133 167 1062 224 q 1204 15 1204 110 q 1133 -136 1204 -79 q 941 -193 1062 -193 m 941 -39 q 997 -23 975 -39 q 1019 15 1019 -8 q 997 54 1019 39 q 941 69 975 69 q 886 54 907 69 q 864 15 864 39 q 886 -23 864 -8 q 941 -39 907 -39 m 139 432 l 633 432 l 633 62 l 340 62 l 340 0 q 656 23 526 0 l 671 -139 q 474 -164 583 -157 q 208 -170 364 -170 q 139 -100 139 -170 l 139 216 l 440 216 l 440 278 l 139 278 l 139 432 z "},"곰":{"ha":1296,"x_min":39,"x_max":1265,"o":"m 1096 1134 q 1165 1065 1165 1134 q 1152 940 1160 997 q 1127 795 1144 883 q 1124 765 1127 781 q 1119 733 1122 750 l 918 748 q 958 949 948 863 l 139 949 l 123 1134 l 1096 1134 m 471 633 l 471 810 l 687 810 l 687 633 l 1265 633 l 1265 448 l 39 448 l 39 633 l 471 633 m 1157 347 l 1157 -162 l 208 -162 q 139 -93 139 -162 l 139 347 l 1157 347 m 957 23 l 957 162 l 340 162 l 340 23 l 957 23 z "},"곱":{"ha":1296,"x_min":39,"x_max":1265,"o":"m 1096 1134 q 1165 1065 1165 1134 q 1152 940 1160 997 q 1127 795 1144 883 q 1124 765 1127 781 q 1119 733 1122 750 l 918 748 q 958 949 948 863 l 139 949 l 123 1134 l 1096 1134 m 471 633 l 471 810 l 687 810 l 687 633 l 1265 633 l 1265 448 l 39 448 l 39 633 l 471 633 m 340 370 l 340 262 l 957 262 l 957 370 l 1157 370 l 1157 -162 l 208 -162 q 139 -93 139 -162 l 139 370 l 340 370 m 957 15 l 957 93 l 340 93 l 340 15 l 957 15 z "},"곲":{"ha":1296,"x_min":0,"x_max":0,"o":""},"곳":{"ha":1296,"x_min":39,"x_max":1265,"o":"m 1096 1134 q 1165 1065 1165 1134 q 1119 648 1154 869 l 918 664 q 960 949 949 818 l 139 949 l 123 1134 l 1096 1134 m 471 563 l 471 779 l 687 779 l 687 563 l 1265 563 l 1265 378 l 39 378 l 39 563 l 471 563 m 756 316 l 756 270 q 1242 -8 756 90 l 1142 -177 q 883 -106 1026 -164 q 648 42 739 -49 q 417 -113 557 -54 q 162 -185 276 -171 l 62 -15 q 276 35 165 -3 q 464 134 387 74 q 540 270 540 194 l 540 316 l 756 316 z "},"곴":{"ha":1296,"x_min":0,"x_max":0,"o":""},"공":{"ha":1296,"x_min":39,"x_max":1265,"o":"m 1096 1134 q 1165 1065 1165 1134 q 1152 940 1160 997 q 1127 795 1144 883 q 1124 765 1127 781 q 1119 733 1122 750 l 918 748 q 958 949 948 863 l 139 949 l 123 1134 l 1096 1134 m 471 633 l 471 810 l 687 810 l 687 633 l 1265 633 l 1265 448 l 39 448 l 39 633 l 471 633 m 648 -185 q 248 -113 389 -185 q 108 93 108 -40 q 248 298 108 225 q 648 370 389 370 q 1048 298 907 370 q 1188 93 1188 225 q 1048 -113 1188 -40 q 648 -185 907 -185 m 648 -8 q 870 19 792 -8 q 949 93 949 46 q 870 166 949 139 q 648 193 792 193 q 426 166 505 193 q 347 93 347 139 q 426 19 347 46 q 648 -8 505 -8 z "},"곶":{"ha":1296,"x_min":39,"x_max":1265,"o":"m 1096 1134 q 1165 1065 1165 1134 q 1152 940 1160 997 q 1127 795 1144 883 q 1124 765 1127 781 q 1119 733 1122 750 l 918 748 q 958 949 948 863 l 139 949 l 123 1134 l 1096 1134 m 471 633 l 471 810 l 687 810 l 687 633 l 1265 633 l 1265 448 l 39 448 l 39 633 l 471 633 m 62 -31 q 346 37 207 -12 q 526 162 485 86 l 131 162 l 131 347 l 1173 347 l 1173 162 l 772 162 q 951 42 813 88 q 1242 -23 1090 -5 l 1127 -177 q 651 5 796 -123 q 430 -123 563 -77 q 177 -185 296 -170 l 62 -31 z "},"곷":{"ha":1296,"x_min":0,"x_max":0,"o":""},"곸":{"ha":1296,"x_min":0,"x_max":0,"o":""},"곹":{"ha":1296,"x_min":39,"x_max":1265,"o":"m 1096 1134 q 1165 1065 1165 1134 q 1148 924 1160 998 q 1119 764 1136 849 l 918 779 q 955 949 946 875 l 139 949 l 123 1134 l 1096 1134 m 471 702 l 471 856 l 687 856 l 687 702 l 1265 702 l 1265 525 l 39 525 l 39 702 l 471 702 m 1165 448 l 1165 278 l 340 278 l 340 216 l 1157 216 l 1157 62 l 340 62 l 340 0 l 1173 0 l 1188 -170 l 208 -170 q 139 -100 139 -170 l 139 448 l 1165 448 z "},"곺":{"ha":1296,"x_min":0,"x_max":0,"o":""},"곻":{"ha":1296,"x_min":0,"x_max":0,"o":""},"과":{"ha":1296,"x_min":31,"x_max":1319,"o":"m 733 1065 q 802 995 802 1065 q 741 301 802 597 l 548 316 q 602 880 596 603 l 69 880 l 54 1065 l 733 1065 m 394 648 l 394 136 q 895 177 718 151 l 895 -8 q 556 -40 769 -26 q 170 -54 343 -54 l 31 -54 l 31 131 l 170 131 l 208 131 l 208 648 l 394 648 m 1150 1157 l 1150 694 l 1319 694 l 1319 494 l 1150 494 l 1150 -162 l 949 -162 l 949 1157 l 1150 1157 z "},"곽":{"ha":1296,"x_min":31,"x_max":1319,"o":"m 764 1111 q 833 1042 833 1111 q 795 679 823 869 l 594 694 q 623 926 617 809 l 69 926 l 54 1111 l 764 1111 m 432 833 l 432 583 q 895 625 721 593 l 895 440 q 583 405 772 417 q 185 394 394 394 l 31 394 l 31 579 l 185 579 l 231 579 l 231 833 l 432 833 m 1150 1157 l 1150 903 l 1319 903 l 1319 718 l 1150 718 l 1150 370 l 949 370 l 949 1157 l 1150 1157 m 1150 -170 l 949 -170 l 949 116 l 139 116 l 139 301 l 1150 301 l 1150 -170 z "},"곾":{"ha":1296,"x_min":0,"x_max":0,"o":""},"곿":{"ha":1296,"x_min":0,"x_max":0,"o":""},"관":{"ha":1296,"x_min":31,"x_max":1319,"o":"m 764 1111 q 833 1042 833 1111 q 833 988 830 1015 q 816 793 826 895 q 795 633 807 691 l 594 648 q 625 926 617 770 l 69 926 l 54 1111 l 764 1111 m 1150 1150 l 1150 903 l 1319 903 l 1319 718 l 1150 718 l 1150 208 l 949 208 l 949 1150 l 1150 1150 m 432 826 l 432 537 q 895 579 721 546 l 895 394 q 583 359 772 370 q 185 347 394 347 l 31 347 l 31 532 l 185 532 l 231 532 l 231 826 l 432 826 m 363 255 l 363 46 l 1165 46 l 1181 -147 l 231 -147 q 162 -77 162 -147 l 162 255 l 363 255 z "},"괁":{"ha":1296,"x_min":0,"x_max":0,"o":""},"괂":{"ha":1296,"x_min":0,"x_max":0,"o":""},"괃":{"ha":1296,"x_min":0,"x_max":0,"o":""},"괄":{"ha":1296,"x_min":31,"x_max":1327,"o":"m 764 1111 q 833 1042 833 1111 q 802 802 826 946 l 795 741 l 594 756 q 622 926 616 861 l 69 926 l 54 1111 l 764 1111 m 1150 1150 l 1150 949 l 1327 949 l 1327 764 l 1150 764 l 1150 486 l 949 486 l 949 1150 l 1150 1150 m 432 864 l 432 684 q 895 725 721 693 l 895 540 q 583 505 772 517 q 185 494 394 494 l 31 494 l 31 679 l 185 679 l 231 679 l 231 864 l 432 864 m 1150 440 l 1150 54 l 363 54 l 363 0 l 1157 0 l 1173 -170 l 231 -170 q 162 -100 162 -170 l 162 216 l 949 216 l 949 270 l 162 270 l 162 440 l 1150 440 z "},"괅":{"ha":1296,"x_min":0,"x_max":0,"o":""},"괆":{"ha":1296,"x_min":31,"x_max":1327,"o":"m 764 1111 q 833 1042 833 1111 q 802 802 826 946 l 795 741 l 594 756 q 622 926 616 861 l 69 926 l 54 1111 l 764 1111 m 1150 1150 l 1150 949 l 1327 949 l 1327 764 l 1150 764 l 1150 486 l 949 486 l 949 1150 l 1150 1150 m 432 864 l 432 684 q 895 725 721 693 l 895 540 q 583 505 772 517 q 185 494 394 494 l 31 494 l 31 679 l 185 679 l 231 679 l 231 864 l 432 864 m 1150 440 l 1150 -170 l 694 -170 l 694 440 l 1150 440 m 972 8 l 972 262 l 872 262 l 872 8 l 972 8 m 139 440 l 625 440 l 625 54 l 324 54 l 324 0 q 640 23 503 -2 l 656 -139 q 468 -164 573 -157 q 208 -170 363 -170 q 139 -100 139 -170 l 139 216 l 440 216 l 440 270 l 139 270 l 139 440 z "},"괇":{"ha":1296,"x_min":0,"x_max":0,"o":""},"괈":{"ha":1296,"x_min":0,"x_max":0,"o":""},"괉":{"ha":1296,"x_min":0,"x_max":0,"o":""},"괊":{"ha":1296,"x_min":0,"x_max":0,"o":""},"괋":{"ha":1296,"x_min":0,"x_max":0,"o":""},"괌":{"ha":1296,"x_min":31,"x_max":1327,"o":"m 764 1111 q 833 1042 833 1111 q 795 702 824 903 l 594 718 q 623 926 616 830 l 69 926 l 54 1111 l 764 1111 m 1150 1150 l 1150 926 l 1327 926 l 1327 741 l 1150 741 l 1150 401 l 949 401 l 949 1150 l 1150 1150 m 432 833 l 432 606 q 895 648 721 616 l 895 463 q 583 428 772 440 q 185 417 394 417 l 31 417 l 31 602 l 185 602 l 231 602 l 231 833 l 432 833 m 1150 324 l 1150 -162 l 231 -162 q 162 -93 162 -162 l 162 324 l 1150 324 m 949 23 l 949 139 l 363 139 l 363 23 l 949 23 z "},"괍":{"ha":1296,"x_min":31,"x_max":1327,"o":"m 764 1111 q 833 1042 833 1111 q 795 702 824 903 l 594 718 q 623 926 616 830 l 69 926 l 54 1111 l 764 1111 m 1150 1150 l 1150 926 l 1327 926 l 1327 741 l 1150 741 l 1150 401 l 949 401 l 949 1150 l 1150 1150 m 432 833 l 432 606 q 895 648 721 616 l 895 463 q 583 428 772 440 q 185 417 394 417 l 31 417 l 31 602 l 185 602 l 231 602 l 231 833 l 432 833 m 363 340 l 363 255 l 949 255 l 949 340 l 1150 340 l 1150 -162 l 231 -162 q 162 -93 162 -162 l 162 340 l 363 340 m 949 8 l 949 85 l 363 85 l 363 8 l 949 8 z "},"괎":{"ha":1296,"x_min":0,"x_max":0,"o":""},"괏":{"ha":1296,"x_min":31,"x_max":1319,"o":"m 764 1111 q 833 1042 833 1111 q 833 988 830 1015 q 816 793 826 895 q 795 633 807 691 l 594 648 q 625 926 617 770 l 69 926 l 54 1111 l 764 1111 m 1150 1150 l 1150 903 l 1319 903 l 1319 718 l 1150 718 l 1150 208 l 949 208 l 949 1150 l 1150 1150 m 432 826 l 432 537 q 895 579 721 546 l 895 394 q 583 359 772 370 q 185 347 394 347 l 31 347 l 31 532 l 185 532 l 231 532 l 231 826 l 432 826 m 748 301 l 748 255 q 825 131 748 187 q 1012 40 901 76 q 1227 -8 1123 5 l 1127 -177 q 872 -103 1005 -157 q 651 42 739 -48 q 427 -107 565 -49 q 170 -185 290 -165 l 69 -15 q 282 35 171 -3 q 471 130 394 73 q 548 255 548 187 l 548 301 l 748 301 z "},"괐":{"ha":1296,"x_min":31,"x_max":1319,"o":"m 764 1111 q 833 1042 833 1111 q 795 679 823 869 l 594 694 q 623 926 617 809 l 69 926 l 54 1111 l 764 1111 m 432 833 l 432 583 q 895 625 721 593 l 895 440 q 583 405 772 417 q 185 394 394 394 l 31 394 l 31 579 l 185 579 l 231 579 l 231 833 l 432 833 m 1150 1157 l 1150 903 l 1319 903 l 1319 718 l 1150 718 l 1150 370 l 949 370 l 949 1157 l 1150 1157 m 31 -39 q 221 85 140 0 q 301 278 301 170 l 301 324 l 502 324 l 502 278 q 546 148 502 208 q 662 39 590 88 q 781 150 736 90 q 826 278 826 210 l 826 324 l 1026 324 l 1026 278 q 1104 89 1026 170 q 1296 -31 1182 8 l 1157 -177 q 1028 -101 1091 -150 q 917 17 965 -52 q 794 -100 863 -49 q 664 -185 725 -151 q 412 15 505 -96 q 162 -185 324 -113 l 31 -39 z "},"광":{"ha":1296,"x_min":31,"x_max":1327,"o":"m 764 1111 q 833 1042 833 1111 q 795 702 824 903 l 594 718 q 623 926 616 830 l 69 926 l 54 1111 l 764 1111 m 1150 1150 l 1150 926 l 1327 926 l 1327 741 l 1150 741 l 1150 401 l 949 401 l 949 1150 l 1150 1150 m 432 833 l 432 606 q 895 648 721 616 l 895 463 q 583 428 772 440 q 185 417 394 417 l 31 417 l 31 602 l 185 602 l 231 602 l 231 833 l 432 833 m 648 -185 q 259 -114 395 -185 q 123 85 123 -43 q 259 284 123 213 q 648 355 395 355 q 1037 284 901 355 q 1173 85 1173 213 q 1037 -114 1173 -43 q 648 -185 901 -185 m 648 -8 q 878 15 799 -8 q 957 85 957 39 q 878 154 957 131 q 648 177 799 177 q 418 154 497 177 q 340 85 340 131 q 418 15 340 39 q 648 -8 497 -8 z "},"괒":{"ha":1296,"x_min":31,"x_max":1327,"o":"m 764 1111 q 833 1042 833 1111 q 795 702 824 903 l 594 718 q 623 926 616 830 l 69 926 l 54 1111 l 764 1111 m 1150 1150 l 1150 926 l 1327 926 l 1327 741 l 1150 741 l 1150 401 l 949 401 l 949 1150 l 1150 1150 m 432 833 l 432 606 q 895 648 721 616 l 895 463 q 583 428 772 440 q 185 417 394 417 l 31 417 l 31 602 l 185 602 l 231 602 l 231 833 l 432 833 m 77 -23 q 343 40 219 0 q 519 139 466 80 l 154 139 l 154 324 l 1157 324 l 1157 139 l 795 139 q 1242 -15 884 45 l 1119 -177 q 869 -111 995 -156 q 657 8 742 -66 q 448 -117 574 -69 q 201 -185 321 -165 l 77 -23 z "},"괓":{"ha":1296,"x_min":0,"x_max":0,"o":""},"괔":{"ha":1296,"x_min":0,"x_max":0,"o":""},"괕":{"ha":1296,"x_min":0,"x_max":0,"o":""},"괖":{"ha":1296,"x_min":0,"x_max":0,"o":""},"괗":{"ha":1296,"x_min":0,"x_max":0,"o":""},"괘":{"ha":1296,"x_min":31,"x_max":1227,"o":"m 625 1065 l 625 1062 q 671 995 671 1052 q 633 301 671 622 l 448 316 q 491 880 488 636 l 54 880 l 39 1065 l 625 1065 m 355 694 l 355 137 q 725 177 585 148 l 725 -8 q 458 -42 620 -29 q 147 -54 296 -54 l 31 -54 l 31 131 l 147 131 l 185 131 l 185 694 l 355 694 m 957 1157 l 957 687 l 1042 687 l 1042 1157 l 1227 1157 l 1227 -162 l 1042 -162 l 1042 478 l 957 478 l 957 -162 l 772 -162 l 772 1157 l 957 1157 z "},"괙":{"ha":1296,"x_min":0,"x_max":0,"o":""},"괚":{"ha":1296,"x_min":0,"x_max":0,"o":""},"괛":{"ha":1296,"x_min":0,"x_max":0,"o":""},"괜":{"ha":1296,"x_min":15,"x_max":1250,"o":"m 610 1111 q 671 1042 671 1106 q 660 838 671 949 q 633 640 650 727 l 440 656 q 477 934 469 773 l 54 934 l 39 1111 l 610 1111 m 957 1165 l 957 849 l 1042 849 l 1042 1165 l 1227 1165 l 1227 193 l 1042 193 l 1042 664 l 957 664 l 957 193 l 772 193 l 772 1165 l 957 1165 m 185 548 l 185 841 l 363 841 l 363 552 q 733 594 577 563 l 733 394 q 467 364 620 375 q 177 355 313 353 l 15 355 l 15 548 l 177 548 l 185 548 m 378 255 l 378 46 l 1235 46 l 1250 -147 l 247 -147 q 177 -77 177 -147 l 177 255 l 378 255 z "},"괝":{"ha":1296,"x_min":0,"x_max":0,"o":""},"괞":{"ha":1296,"x_min":0,"x_max":0,"o":""},"괟":{"ha":1296,"x_min":0,"x_max":0,"o":""},"괠":{"ha":1296,"x_min":15,"x_max":1250,"o":"m 610 1111 q 671 1042 671 1106 q 662 902 671 972 q 633 733 653 832 l 440 748 q 474 934 466 855 l 54 934 l 39 1111 l 610 1111 m 957 1150 l 957 949 l 1042 949 l 1042 1150 l 1227 1150 l 1227 486 l 1042 486 l 1042 764 l 957 764 l 957 486 l 772 486 l 772 1150 l 957 1150 m 363 864 l 363 676 q 733 718 577 687 l 733 525 q 470 497 623 508 q 177 486 316 486 l 15 486 l 15 671 l 177 671 l 185 671 l 185 864 l 363 864 m 1227 440 l 1227 54 l 386 54 l 386 0 l 1235 0 l 1250 -170 l 247 -170 q 177 -100 177 -170 l 177 216 l 1019 216 l 1019 270 l 177 270 l 177 440 l 1227 440 z "},"괡":{"ha":1296,"x_min":0,"x_max":0,"o":""},"괢":{"ha":1296,"x_min":15,"x_max":1227,"o":"m 610 1111 q 671 1042 671 1106 q 662 902 671 972 q 633 733 653 832 l 440 748 q 474 934 466 855 l 54 934 l 39 1111 l 610 1111 m 957 1150 l 957 949 l 1042 949 l 1042 1150 l 1227 1150 l 1227 486 l 1042 486 l 1042 764 l 957 764 l 957 486 l 772 486 l 772 1150 l 957 1150 m 363 864 l 363 676 q 733 718 577 687 l 733 525 q 470 497 623 508 q 177 486 316 486 l 15 486 l 15 671 l 177 671 l 185 671 l 185 864 l 363 864 m 1227 440 l 1227 -170 l 741 -170 l 741 440 l 1227 440 m 1049 8 l 1049 262 l 918 262 l 918 8 l 1049 8 m 154 440 l 671 440 l 671 54 l 340 54 l 340 0 q 687 23 549 -3 l 702 -139 q 503 -164 620 -157 q 224 -170 386 -170 q 154 -100 154 -170 l 154 216 l 478 216 l 478 270 l 154 270 l 154 440 z "},"괣":{"ha":1296,"x_min":0,"x_max":0,"o":""},"괤":{"ha":1296,"x_min":0,"x_max":0,"o":""},"괥":{"ha":1296,"x_min":0,"x_max":0,"o":""},"괦":{"ha":1296,"x_min":0,"x_max":0,"o":""},"괧":{"ha":1296,"x_min":0,"x_max":0,"o":""},"괨":{"ha":1296,"x_min":0,"x_max":0,"o":""},"괩":{"ha":1296,"x_min":15,"x_max":1227,"o":"m 610 1111 q 671 1042 671 1106 q 633 687 671 880 l 440 702 q 477 934 468 818 l 54 934 l 39 1111 l 610 1111 m 957 1157 l 957 926 l 1042 926 l 1042 1157 l 1227 1157 l 1227 401 l 1042 401 l 1042 741 l 957 741 l 957 401 l 772 401 l 772 1157 l 957 1157 m 185 602 l 185 833 l 363 833 l 363 606 q 733 648 577 617 l 733 455 q 470 427 623 438 q 177 417 316 417 l 15 417 l 15 602 l 177 602 l 185 602 m 378 340 l 378 255 l 1026 255 l 1026 340 l 1227 340 l 1227 -162 l 247 -162 q 177 -93 177 -162 l 177 340 l 378 340 m 1026 8 l 1026 85 l 378 85 l 378 8 l 1026 8 z "},"괪":{"ha":1296,"x_min":0,"x_max":0,"o":""},"괫":{"ha":1296,"x_min":0,"x_max":0,"o":""},"괬":{"ha":1296,"x_min":15,"x_max":1373,"o":"m 602 1111 q 671 1042 671 1111 q 660 853 671 955 q 633 664 650 752 l 440 679 q 477 934 468 787 l 54 934 l 39 1111 l 602 1111 m 185 579 l 185 833 l 363 833 l 363 583 q 733 625 577 594 l 733 432 q 470 404 623 415 q 177 394 316 394 l 15 394 l 15 579 l 177 579 l 185 579 m 957 1157 l 957 903 l 1042 903 l 1042 1157 l 1227 1157 l 1227 370 l 1042 370 l 1042 718 l 957 718 l 957 370 l 772 370 l 772 1157 l 957 1157 m 39 -39 q 247 88 162 9 q 332 278 332 167 l 332 324 l 532 324 l 532 278 q 710 37 532 145 q 887 278 887 148 l 887 324 l 1088 324 l 1088 278 q 1172 89 1088 167 q 1373 -31 1256 11 l 1242 -177 q 1100 -100 1170 -150 q 980 20 1029 -51 q 710 -185 880 -100 q 565 -93 633 -142 q 441 22 497 -45 q 177 -185 349 -110 l 39 -39 z "},"괭":{"ha":1296,"x_min":15,"x_max":1250,"o":"m 610 1111 q 671 1042 671 1106 q 633 687 671 880 l 440 702 q 477 934 468 818 l 54 934 l 39 1111 l 610 1111 m 957 1157 l 957 926 l 1042 926 l 1042 1157 l 1227 1157 l 1227 401 l 1042 401 l 1042 741 l 957 741 l 957 401 l 772 401 l 772 1157 l 957 1157 m 185 602 l 185 833 l 363 833 l 363 606 q 733 648 577 617 l 733 455 q 470 427 623 438 q 177 417 316 417 l 15 417 l 15 602 l 177 602 l 185 602 m 694 -185 q 284 -114 429 -185 q 139 85 139 -43 q 284 284 139 213 q 694 355 429 355 q 1105 284 960 355 q 1250 85 1250 213 q 1105 -114 1250 -43 q 694 -185 960 -185 m 694 -8 q 946 15 858 -8 q 1034 85 1034 39 q 946 154 1034 131 q 694 177 858 177 q 443 154 531 177 q 355 85 355 131 q 443 15 355 39 q 694 -8 531 -8 z "},"괮":{"ha":1296,"x_min":0,"x_max":0,"o":""},"괯":{"ha":1296,"x_min":0,"x_max":0,"o":""},"괰":{"ha":1296,"x_min":0,"x_max":0,"o":""},"괱":{"ha":1296,"x_min":0,"x_max":0,"o":""},"괲":{"ha":1296,"x_min":0,"x_max":0,"o":""},"괳":{"ha":1296,"x_min":0,"x_max":0,"o":""},"괴":{"ha":1296,"x_min":46,"x_max":1204,"o":"m 756 1065 q 826 995 826 1065 q 764 301 826 597 l 571 316 q 625 880 619 603 l 93 880 l 77 1065 l 756 1065 m 417 671 l 417 137 q 716 154 571 144 q 941 177 861 165 l 941 -8 q 591 -39 824 -25 q 185 -54 358 -54 l 46 -54 l 46 131 l 185 131 l 231 131 l 231 671 l 417 671 m 1204 1157 l 1204 -162 l 1003 -162 l 1003 1157 l 1204 1157 z "},"괵":{"ha":1296,"x_min":46,"x_max":1204,"o":"m 787 1111 q 856 1042 856 1111 q 818 679 846 869 l 617 694 q 647 926 640 809 l 93 926 l 77 1111 l 787 1111 m 1204 1157 l 1204 370 l 1003 370 l 1003 1157 l 1204 1157 m 255 579 l 255 833 l 455 833 l 455 583 q 941 625 769 594 l 941 440 q 614 406 819 418 q 201 394 409 394 l 46 394 l 46 579 l 201 579 l 255 579 m 1204 -170 l 1003 -170 l 1003 116 l 162 116 l 162 301 l 1204 301 l 1204 -170 z "},"괶":{"ha":1296,"x_min":0,"x_max":0,"o":""},"괷":{"ha":1296,"x_min":0,"x_max":0,"o":""},"괸":{"ha":1296,"x_min":46,"x_max":1219,"o":"m 787 1111 q 856 1042 856 1111 q 856 988 853 1015 q 840 793 849 895 q 818 633 830 691 l 617 648 q 648 926 640 770 l 93 926 l 77 1111 l 787 1111 m 1204 1157 l 1204 208 l 1003 208 l 1003 1157 l 1204 1157 m 455 826 l 455 537 q 941 579 769 548 l 941 394 q 614 360 819 372 q 201 347 409 347 l 46 347 l 46 532 l 201 532 l 255 532 l 255 826 l 455 826 m 386 255 l 386 46 l 1219 46 l 1219 -147 l 255 -147 q 185 -77 185 -147 l 185 255 l 386 255 z "},"괹":{"ha":1296,"x_min":0,"x_max":0,"o":""},"괺":{"ha":1296,"x_min":0,"x_max":0,"o":""},"괻":{"ha":1296,"x_min":0,"x_max":0,"o":""},"괼":{"ha":1296,"x_min":46,"x_max":1227,"o":"m 787 1111 q 856 1042 856 1111 q 826 802 849 946 l 818 741 l 617 756 q 645 926 639 861 l 93 926 l 77 1111 l 787 1111 m 1204 1157 l 1204 486 l 1003 486 l 1003 1157 l 1204 1157 m 455 864 l 455 668 q 941 710 785 682 l 941 532 q 614 498 819 511 q 201 486 409 486 l 46 486 l 46 664 l 201 664 l 255 664 l 255 864 l 455 864 m 1204 440 l 1204 54 l 401 54 l 401 0 l 1211 0 l 1227 -170 l 255 -170 q 185 -100 185 -170 l 185 216 l 980 216 l 980 270 l 185 270 l 185 440 l 1204 440 z "},"괽":{"ha":1296,"x_min":0,"x_max":0,"o":""},"괾":{"ha":1296,"x_min":0,"x_max":0,"o":""},"괿":{"ha":1296,"x_min":0,"x_max":0,"o":""},"굀":{"ha":1296,"x_min":0,"x_max":0,"o":""},"굁":{"ha":1296,"x_min":0,"x_max":0,"o":""},"굂":{"ha":1296,"x_min":0,"x_max":0,"o":""},"굃":{"ha":1296,"x_min":0,"x_max":0,"o":""},"굄":{"ha":1296,"x_min":46,"x_max":1204,"o":"m 787 1111 q 856 1042 856 1111 q 818 702 847 903 l 617 718 q 647 926 639 830 l 93 926 l 77 1111 l 787 1111 m 1204 1157 l 1204 394 l 1003 394 l 1003 1157 l 1204 1157 m 455 833 l 455 606 q 941 648 769 617 l 941 463 q 614 429 819 441 q 201 417 409 417 l 46 417 l 46 602 l 201 602 l 255 602 l 255 833 l 455 833 m 1204 324 l 1204 -162 l 255 -162 q 185 -93 185 -162 l 185 324 l 1204 324 m 1003 23 l 1003 139 l 386 139 l 386 23 l 1003 23 z "},"굅":{"ha":1296,"x_min":46,"x_max":1204,"o":"m 787 1111 q 856 1042 856 1111 q 818 702 847 903 l 617 718 q 647 926 639 830 l 93 926 l 77 1111 l 787 1111 m 1204 1157 l 1204 394 l 1003 394 l 1003 1157 l 1204 1157 m 455 833 l 455 606 q 941 648 769 617 l 941 463 q 614 429 819 441 q 201 417 409 417 l 46 417 l 46 602 l 201 602 l 255 602 l 255 833 l 455 833 m 386 340 l 386 255 l 1003 255 l 1003 340 l 1204 340 l 1204 -162 l 255 -162 q 185 -93 185 -162 l 185 340 l 386 340 m 1003 8 l 1003 85 l 386 85 l 386 8 l 1003 8 z "},"굆":{"ha":1296,"x_min":0,"x_max":0,"o":""},"굇":{"ha":1296,"x_min":46,"x_max":1265,"o":"m 787 1111 q 856 1042 856 1111 q 856 988 853 1015 q 840 793 849 895 q 818 633 830 691 l 617 648 q 648 926 640 770 l 93 926 l 77 1111 l 787 1111 m 1204 1157 l 1204 208 l 1003 208 l 1003 1157 l 1204 1157 m 455 826 l 455 537 q 941 579 769 548 l 941 394 q 614 360 819 372 q 201 347 409 347 l 46 347 l 46 532 l 201 532 l 255 532 l 255 826 l 455 826 m 787 301 l 787 255 q 863 131 787 187 q 1051 40 940 76 q 1265 -8 1162 5 l 1165 -177 q 910 -103 1043 -157 q 690 42 778 -48 q 466 -107 603 -49 q 208 -185 329 -165 l 108 -15 q 321 35 210 -3 q 509 130 432 73 q 586 255 586 187 l 586 301 l 787 301 z "},"굈":{"ha":1296,"x_min":0,"x_max":0,"o":""},"굉":{"ha":1296,"x_min":46,"x_max":1227,"o":"m 787 1111 q 856 1042 856 1111 q 818 702 847 903 l 617 718 q 647 926 639 830 l 93 926 l 77 1111 l 787 1111 m 1204 1157 l 1204 394 l 1003 394 l 1003 1157 l 1204 1157 m 455 833 l 455 606 q 941 648 769 617 l 941 463 q 614 429 819 441 q 201 417 409 417 l 46 417 l 46 602 l 201 602 l 255 602 l 255 833 l 455 833 m 694 -185 q 302 -114 441 -185 q 162 85 162 -43 q 302 284 162 213 q 694 355 441 355 q 1087 284 948 355 q 1227 85 1227 213 q 1087 -114 1227 -43 q 694 -185 948 -185 m 694 -8 q 929 15 847 -8 q 1011 85 1011 39 q 929 154 1011 131 q 694 177 847 177 q 460 154 542 177 q 378 85 378 131 q 460 15 378 39 q 694 -8 542 -8 z "},"굊":{"ha":1296,"x_min":0,"x_max":0,"o":""},"굋":{"ha":1296,"x_min":0,"x_max":0,"o":""},"굌":{"ha":1296,"x_min":0,"x_max":0,"o":""},"굍":{"ha":1296,"x_min":0,"x_max":0,"o":""},"굎":{"ha":1296,"x_min":0,"x_max":0,"o":""},"굏":{"ha":1296,"x_min":0,"x_max":0,"o":""},"교":{"ha":1296,"x_min":46,"x_max":1258,"o":"m 1096 1088 q 1165 1019 1165 1088 q 1096 278 1154 606 l 887 309 q 960 903 957 619 l 139 903 l 123 1088 l 1096 1088 m 463 625 l 463 93 l 602 93 l 602 625 l 795 625 l 795 93 l 1242 93 l 1258 -93 l 46 -93 l 46 93 l 270 93 l 270 625 l 463 625 z "},"굑":{"ha":1296,"x_min":0,"x_max":0,"o":""},"굒":{"ha":1296,"x_min":0,"x_max":0,"o":""},"굓":{"ha":1296,"x_min":0,"x_max":0,"o":""},"굔":{"ha":1296,"x_min":39,"x_max":1265,"o":"m 1096 1134 q 1165 1065 1165 1134 q 1119 648 1154 869 l 918 664 q 960 949 949 818 l 139 949 l 123 1134 l 1096 1134 m 278 563 l 278 826 l 463 826 l 463 563 l 625 563 l 625 826 l 810 826 l 810 563 l 1265 563 l 1265 378 l 39 378 l 39 563 l 278 563 m 347 293 l 347 46 l 1165 46 l 1181 -147 l 216 -147 q 147 -77 147 -147 l 147 293 l 347 293 z "},"굕":{"ha":1296,"x_min":0,"x_max":0,"o":""},"굖":{"ha":1296,"x_min":0,"x_max":0,"o":""},"굗":{"ha":1296,"x_min":0,"x_max":0,"o":""},"굘":{"ha":1296,"x_min":39,"x_max":1265,"o":"m 1096 1134 q 1165 1065 1165 1134 q 1148 924 1160 998 q 1119 764 1136 849 l 918 779 q 955 949 946 875 l 139 949 l 123 1134 l 1096 1134 m 278 702 l 278 887 l 463 887 l 463 702 l 625 702 l 625 887 l 810 887 l 810 702 l 1265 702 l 1265 525 l 39 525 l 39 702 l 278 702 m 1157 448 l 1157 62 l 340 62 l 340 0 l 1165 0 l 1181 -170 l 208 -170 q 139 -100 139 -170 l 139 216 l 957 216 l 957 278 l 139 278 l 139 448 l 1157 448 z "},"굙":{"ha":1296,"x_min":0,"x_max":0,"o":""},"굚":{"ha":1296,"x_min":0,"x_max":0,"o":""},"굛":{"ha":1296,"x_min":0,"x_max":0,"o":""},"굜":{"ha":1296,"x_min":0,"x_max":0,"o":""},"굝":{"ha":1296,"x_min":0,"x_max":0,"o":""},"굞":{"ha":1296,"x_min":0,"x_max":0,"o":""},"굟":{"ha":1296,"x_min":0,"x_max":0,"o":""},"굠":{"ha":1296,"x_min":39,"x_max":1265,"o":"m 1096 1134 q 1165 1065 1165 1134 q 1152 940 1160 997 q 1127 795 1144 883 q 1124 765 1127 781 q 1119 733 1122 750 l 918 748 q 958 949 948 863 l 139 949 l 123 1134 l 1096 1134 m 278 633 l 278 849 l 463 849 l 463 633 l 625 633 l 625 849 l 810 849 l 810 633 l 1265 633 l 1265 448 l 39 448 l 39 633 l 278 633 m 1157 347 l 1157 -162 l 208 -162 q 139 -93 139 -162 l 139 347 l 1157 347 m 957 23 l 957 162 l 340 162 l 340 23 l 957 23 z "},"굡":{"ha":1296,"x_min":39,"x_max":1265,"o":"m 1096 1134 q 1165 1065 1165 1134 q 1152 940 1160 997 q 1127 795 1144 883 q 1124 765 1127 781 q 1119 733 1122 750 l 918 748 q 958 949 948 863 l 139 949 l 123 1134 l 1096 1134 m 278 633 l 278 849 l 463 849 l 463 633 l 625 633 l 625 849 l 810 849 l 810 633 l 1265 633 l 1265 448 l 39 448 l 39 633 l 278 633 m 340 370 l 340 262 l 957 262 l 957 370 l 1157 370 l 1157 -162 l 208 -162 q 139 -93 139 -162 l 139 370 l 340 370 m 957 15 l 957 93 l 340 93 l 340 15 l 957 15 z "},"굢":{"ha":1296,"x_min":0,"x_max":0,"o":""},"굣":{"ha":1296,"x_min":39,"x_max":1265,"o":"m 1096 1134 q 1165 1065 1165 1134 q 1119 648 1154 869 l 918 664 q 960 949 949 818 l 139 949 l 123 1134 l 1096 1134 m 278 563 l 278 826 l 463 826 l 463 563 l 625 563 l 625 826 l 810 826 l 810 563 l 1265 563 l 1265 378 l 39 378 l 39 563 l 278 563 m 756 316 l 756 270 q 1242 -8 756 90 l 1142 -177 q 883 -106 1026 -164 q 648 42 739 -49 q 417 -113 557 -54 q 162 -185 276 -171 l 62 -15 q 276 35 165 -3 q 464 134 387 74 q 540 270 540 194 l 540 316 l 756 316 z "},"굤":{"ha":1296,"x_min":0,"x_max":0,"o":""},"굥":{"ha":1296,"x_min":39,"x_max":1265,"o":"m 1096 1134 q 1165 1065 1165 1134 q 1152 940 1160 997 q 1127 795 1144 883 q 1124 765 1127 781 q 1119 733 1122 750 l 918 748 q 958 949 948 863 l 139 949 l 123 1134 l 1096 1134 m 278 633 l 278 849 l 463 849 l 463 633 l 625 633 l 625 849 l 810 849 l 810 633 l 1265 633 l 1265 448 l 39 448 l 39 633 l 278 633 m 648 -185 q 248 -113 389 -185 q 108 93 108 -40 q 248 298 108 225 q 648 370 389 370 q 1048 298 907 370 q 1188 93 1188 225 q 1048 -113 1188 -40 q 648 -185 907 -185 m 648 -8 q 870 19 792 -8 q 949 93 949 46 q 870 166 949 139 q 648 193 792 193 q 426 166 505 193 q 347 93 347 139 q 426 19 347 46 q 648 -8 505 -8 z "},"굦":{"ha":1296,"x_min":0,"x_max":0,"o":""},"굧":{"ha":1296,"x_min":0,"x_max":0,"o":""},"굨":{"ha":1296,"x_min":0,"x_max":0,"o":""},"굩":{"ha":1296,"x_min":0,"x_max":0,"o":""},"굪":{"ha":1296,"x_min":0,"x_max":0,"o":""},"굫":{"ha":1296,"x_min":0,"x_max":0,"o":""},"구":{"ha":1296,"x_min":46,"x_max":1250,"o":"m 1080 1111 q 1150 1042 1150 1111 q 1096 540 1137 727 l 880 556 q 929 926 921 725 l 139 926 l 123 1111 l 1080 1111 m 1250 463 l 1250 278 l 748 278 l 748 -170 l 548 -170 l 548 278 l 46 278 l 46 463 l 1250 463 z "},"국":{"ha":1296,"x_min":39,"x_max":1265,"o":"m 1096 1134 q 1165 1065 1165 1134 q 1150 910 1160 981 q 1119 710 1140 838 l 918 725 q 958 949 948 849 l 139 949 l 123 1134 l 1096 1134 m 1265 640 l 1265 455 l 756 455 l 756 301 l 1157 301 l 1157 -170 l 957 -170 l 957 116 l 131 116 l 131 301 l 540 301 l 540 455 l 39 455 l 39 640 l 1265 640 z "},"굮":{"ha":1296,"x_min":0,"x_max":0,"o":""},"굯":{"ha":1296,"x_min":0,"x_max":0,"o":""},"군":{"ha":1296,"x_min":39,"x_max":1265,"o":"m 1096 1134 q 1165 1065 1165 1134 q 1119 648 1154 869 l 918 664 q 960 949 949 818 l 139 949 l 123 1134 l 1096 1134 m 1265 594 l 1265 409 l 772 409 l 772 185 l 556 185 l 556 409 l 39 409 l 39 594 l 1265 594 m 347 293 l 347 46 l 1165 46 l 1181 -147 l 216 -147 q 147 -77 147 -147 l 147 293 l 347 293 z "},"굱":{"ha":1296,"x_min":0,"x_max":0,"o":""},"굲":{"ha":1296,"x_min":0,"x_max":0,"o":""},"굳":{"ha":1296,"x_min":39,"x_max":1265,"o":"m 1096 1134 q 1165 1065 1165 1134 q 1152 940 1160 997 q 1127 795 1144 883 q 1124 765 1127 781 q 1119 733 1122 750 l 918 748 q 958 949 948 863 l 139 949 l 123 1134 l 1096 1134 m 1265 664 l 1265 478 l 756 478 l 756 347 l 1157 347 l 1157 162 l 340 162 l 340 23 l 1157 23 l 1173 -162 l 208 -162 q 139 -93 139 -162 l 139 347 l 540 347 l 540 478 l 39 478 l 39 664 l 1265 664 z "},"굴":{"ha":1296,"x_min":39,"x_max":1265,"o":"m 1096 1134 q 1165 1065 1165 1134 q 1148 924 1160 998 q 1119 764 1136 849 l 918 779 q 955 949 946 875 l 139 949 l 123 1134 l 1096 1134 m 1265 725 l 1265 548 l 756 548 l 756 448 l 1157 448 l 1157 62 l 340 62 l 340 0 l 1165 0 l 1181 -170 l 208 -170 q 139 -100 139 -170 l 139 216 l 957 216 l 957 278 l 139 278 l 139 448 l 540 448 l 540 548 l 39 548 l 39 725 l 1265 725 z "},"굵":{"ha":1296,"x_min":39,"x_max":1265,"o":"m 1096 1134 q 1165 1065 1165 1134 q 1148 924 1160 998 q 1119 764 1136 849 l 918 779 q 955 949 946 875 l 139 949 l 123 1134 l 1096 1134 m 1265 725 l 1265 548 l 756 548 l 756 448 l 1157 448 l 1157 -185 l 957 -185 l 957 262 l 694 262 l 694 401 l 633 401 l 633 62 l 340 62 l 340 -2 q 756 31 588 3 l 772 -131 q 535 -160 671 -151 q 208 -170 400 -168 q 139 -100 139 -170 l 139 216 l 440 216 l 440 278 l 139 278 l 139 448 l 540 448 l 540 548 l 39 548 l 39 725 l 1265 725 z "},"굶":{"ha":1296,"x_min":39,"x_max":1265,"o":"m 1096 1134 q 1165 1065 1165 1134 q 1148 924 1160 998 q 1119 764 1136 849 l 918 779 q 955 949 946 875 l 139 949 l 123 1134 l 1096 1134 m 1265 725 l 1265 548 l 756 548 l 756 432 l 1157 432 l 1157 -170 l 694 -170 l 694 401 l 633 401 l 633 62 l 340 62 l 340 0 q 656 23 526 0 l 671 -139 q 474 -164 583 -157 q 208 -170 364 -170 q 139 -100 139 -170 l 139 216 l 440 216 l 440 278 l 139 278 l 139 432 l 540 432 l 540 548 l 39 548 l 39 725 l 1265 725 m 980 8 l 980 255 l 872 255 l 872 8 l 980 8 z "},"굷":{"ha":1296,"x_min":0,"x_max":0,"o":""},"굸":{"ha":1296,"x_min":0,"x_max":0,"o":""},"굹":{"ha":1296,"x_min":0,"x_max":0,"o":""},"굺":{"ha":1296,"x_min":0,"x_max":0,"o":""},"굻":{"ha":1296,"x_min":39,"x_max":1265,"o":"m 1096 1134 q 1165 1065 1165 1134 q 1148 924 1160 998 q 1119 764 1136 849 l 918 779 q 955 949 946 875 l 139 949 l 123 1134 l 1096 1134 m 1265 725 l 1265 548 l 756 548 l 756 409 l 841 409 l 841 471 l 1042 471 l 1042 409 l 1227 409 l 1227 247 l 664 247 l 664 401 l 633 401 l 633 62 l 340 62 l 340 0 q 656 23 526 0 l 671 -139 q 474 -164 583 -157 q 208 -170 364 -170 q 139 -100 139 -170 l 139 216 l 440 216 l 440 278 l 139 278 l 139 432 l 540 432 l 540 548 l 39 548 l 39 725 l 1265 725 m 941 -193 q 756 -135 826 -193 q 687 15 687 -77 q 756 166 687 108 q 941 224 826 224 q 1133 167 1062 224 q 1204 15 1204 110 q 1133 -136 1204 -79 q 941 -193 1062 -193 m 941 -39 q 997 -23 975 -39 q 1019 15 1019 -8 q 997 54 1019 39 q 941 69 975 69 q 886 54 907 69 q 864 15 864 39 q 886 -23 864 -8 q 941 -39 907 -39 z "},"굼":{"ha":1296,"x_min":39,"x_max":1265,"o":"m 1096 1134 q 1165 1065 1165 1134 q 1152 940 1160 997 q 1127 795 1144 883 q 1124 765 1127 781 q 1119 733 1122 750 l 918 748 q 958 949 948 863 l 139 949 l 123 1134 l 1096 1134 m 1265 664 l 1265 478 l 756 478 l 756 347 l 1157 347 l 1157 -162 l 208 -162 q 139 -93 139 -162 l 139 347 l 540 347 l 540 478 l 39 478 l 39 664 l 1265 664 m 957 23 l 957 162 l 340 162 l 340 23 l 957 23 z "},"굽":{"ha":1296,"x_min":39,"x_max":1265,"o":"m 1096 1134 q 1165 1065 1165 1134 q 1152 940 1160 997 q 1127 795 1144 883 q 1124 765 1127 781 q 1119 733 1122 750 l 918 748 q 958 949 948 863 l 139 949 l 123 1134 l 1096 1134 m 1265 664 l 1265 478 l 756 478 l 756 324 l 540 324 l 540 478 l 39 478 l 39 664 l 1265 664 m 340 370 l 340 262 l 957 262 l 957 370 l 1157 370 l 1157 -162 l 208 -162 q 139 -93 139 -162 l 139 370 l 340 370 m 957 15 l 957 93 l 340 93 l 340 15 l 957 15 z "},"굾":{"ha":1296,"x_min":0,"x_max":0,"o":""},"굿":{"ha":1296,"x_min":39,"x_max":1265,"o":"m 1096 1134 q 1165 1065 1165 1134 q 1152 940 1160 997 q 1127 795 1144 883 q 1124 765 1127 781 q 1119 733 1122 750 l 918 748 q 958 949 948 863 l 139 949 l 123 1134 l 1096 1134 m 1265 664 l 1265 478 l 756 478 l 756 340 l 540 340 l 540 478 l 39 478 l 39 664 l 1265 664 m 756 301 l 756 255 q 894 96 756 157 q 1242 -15 1032 35 l 1142 -177 q 878 -103 1019 -157 q 648 39 738 -48 q 421 -108 559 -51 q 162 -185 282 -165 l 62 -23 q 277 33 167 -6 q 464 130 387 73 q 540 255 540 187 l 540 301 l 756 301 z "},"궀":{"ha":1296,"x_min":0,"x_max":0,"o":""},"궁":{"ha":1296,"x_min":39,"x_max":1265,"o":"m 1096 1134 q 1165 1065 1165 1134 q 1152 940 1160 997 q 1127 795 1144 883 q 1124 765 1127 781 q 1119 733 1122 750 l 918 748 q 958 949 948 863 l 139 949 l 123 1134 l 1096 1134 m 1265 664 l 1265 478 l 756 478 l 756 367 q 1077 282 966 352 q 1188 93 1188 211 q 1048 -113 1188 -40 q 648 -185 907 -185 q 248 -113 389 -185 q 108 93 108 -40 q 219 282 108 211 q 540 367 330 352 l 540 478 l 39 478 l 39 664 l 1265 664 m 648 -8 q 870 19 792 -8 q 949 93 949 46 q 870 166 949 139 q 648 193 792 193 q 426 166 505 193 q 347 93 347 139 q 426 19 347 46 q 648 -8 505 -8 z "},"궂":{"ha":1296,"x_min":39,"x_max":1265,"o":"m 1096 1134 q 1165 1065 1165 1134 q 1152 940 1160 997 q 1127 795 1144 883 q 1124 765 1127 781 q 1119 733 1122 750 l 918 748 q 958 949 948 863 l 139 949 l 123 1134 l 1096 1134 m 1265 671 l 1265 494 l 756 494 l 756 378 l 540 378 l 540 494 l 39 494 l 39 671 l 1265 671 m 62 -31 q 346 37 207 -12 q 526 162 485 86 l 131 162 l 131 347 l 1173 347 l 1173 162 l 772 162 q 951 42 813 88 q 1242 -23 1090 -5 l 1127 -177 q 651 5 796 -123 q 430 -123 563 -77 q 177 -185 296 -170 l 62 -31 z "},"궃":{"ha":1296,"x_min":39,"x_max":1265,"o":"m 1096 1134 q 1165 1065 1165 1134 q 1148 924 1160 998 q 1119 764 1136 849 l 918 779 q 955 949 946 875 l 139 949 l 123 1134 l 1096 1134 m 1265 725 l 1265 563 l 756 563 l 756 440 l 540 440 l 540 563 l 39 563 l 39 725 l 1265 725 m 756 409 l 756 324 l 1173 324 l 1173 139 l 779 139 q 955 39 829 74 q 1242 -15 1082 5 l 1127 -177 q 870 -120 1002 -162 q 651 -2 739 -79 q 433 -126 565 -82 q 177 -185 301 -170 l 62 -23 q 344 34 219 -3 q 517 139 469 71 l 131 139 l 131 324 l 540 324 l 540 409 l 756 409 z "},"궄":{"ha":1296,"x_min":0,"x_max":0,"o":""},"궅":{"ha":1296,"x_min":0,"x_max":0,"o":""},"궆":{"ha":1296,"x_min":0,"x_max":0,"o":""},"궇":{"ha":1296,"x_min":0,"x_max":0,"o":""},"궈":{"ha":1296,"x_min":46,"x_max":1204,"o":"m 756 1111 q 826 1042 826 1111 q 779 594 812 787 l 586 602 q 628 926 619 762 l 93 926 l 77 1111 l 756 1111 m 1003 231 l 1003 1157 l 1204 1157 l 1204 -162 l 1003 -162 l 1003 46 l 648 46 l 648 231 l 1003 231 m 193 509 q 605 523 392 509 q 941 556 818 537 l 941 370 q 537 333 789 347 l 509 -162 l 309 -162 l 336 326 l 193 324 l 46 324 l 46 509 l 193 509 z "},"궉":{"ha":1296,"x_min":46,"x_max":1204,"o":"m 787 1111 q 856 1042 856 1111 q 810 756 844 901 l 602 772 q 640 926 627 844 l 93 926 l 77 1111 l 787 1111 m 1204 1157 l 1204 278 l 1003 278 l 1003 324 l 664 324 l 664 502 l 1003 502 l 1003 1157 l 1204 1157 m 208 710 q 597 724 390 710 q 926 756 804 738 l 926 571 q 526 534 785 549 l 509 278 l 301 278 l 318 526 l 208 525 l 46 525 l 46 710 l 208 710 m 1204 -170 l 1003 -170 l 1003 54 l 154 54 l 154 231 l 1204 231 l 1204 -170 z "},"궊":{"ha":1296,"x_min":0,"x_max":0,"o":""},"궋":{"ha":1296,"x_min":0,"x_max":0,"o":""},"권":{"ha":1296,"x_min":46,"x_max":1227,"o":"m 787 1111 q 856 1042 856 1111 q 810 733 844 890 l 602 748 q 642 926 630 838 l 93 926 l 77 1111 l 787 1111 m 1204 1157 l 1204 139 l 1003 139 l 1003 262 l 664 262 l 664 440 l 1003 440 l 1003 1157 l 1204 1157 m 208 671 q 597 685 390 671 q 926 718 804 699 l 926 532 q 523 495 785 511 l 509 278 l 301 278 l 315 488 l 208 486 l 46 486 l 46 671 l 208 671 m 386 231 l 386 46 l 1211 46 l 1227 -147 l 255 -147 q 185 -77 185 -147 l 185 231 l 386 231 z "},"궍":{"ha":1296,"x_min":0,"x_max":0,"o":""},"궎":{"ha":1296,"x_min":0,"x_max":0,"o":""},"궏":{"ha":1296,"x_min":0,"x_max":0,"o":""},"궐":{"ha":1296,"x_min":46,"x_max":1227,"o":"m 787 1111 q 856 1042 856 1111 q 810 802 846 944 l 602 818 q 634 926 625 889 l 93 926 l 77 1111 l 787 1111 m 1003 571 l 1003 1157 l 1204 1157 l 1204 394 l 1003 394 l 1003 417 l 664 417 l 664 571 l 1003 571 m 208 756 q 598 769 392 755 q 926 802 804 782 l 926 625 q 523 588 782 600 l 509 394 l 301 394 l 315 580 l 208 579 l 46 579 l 46 756 l 208 756 m 1204 355 l 1204 23 l 370 23 l 370 -15 l 1211 -15 l 1227 -170 l 247 -170 q 177 -100 177 -170 l 177 162 l 995 162 l 995 201 l 177 201 l 177 355 l 1204 355 z "},"궑":{"ha":1296,"x_min":0,"x_max":0,"o":""},"궒":{"ha":1296,"x_min":0,"x_max":0,"o":""},"궓":{"ha":1296,"x_min":0,"x_max":0,"o":""},"궔":{"ha":1296,"x_min":0,"x_max":0,"o":""},"궕":{"ha":1296,"x_min":0,"x_max":0,"o":""},"궖":{"ha":1296,"x_min":0,"x_max":0,"o":""},"궗":{"ha":1296,"x_min":0,"x_max":0,"o":""},"궘":{"ha":1296,"x_min":0,"x_max":0,"o":""},"궙":{"ha":1296,"x_min":0,"x_max":0,"o":""},"궚":{"ha":1296,"x_min":0,"x_max":0,"o":""},"궛":{"ha":1296,"x_min":0,"x_max":0,"o":""},"궜":{"ha":1296,"x_min":39,"x_max":1350,"o":"m 787 1111 q 856 1042 856 1111 q 810 756 844 901 l 602 772 q 640 926 627 844 l 93 926 l 77 1111 l 787 1111 m 1204 1157 l 1204 278 l 1003 278 l 1003 324 l 664 324 l 664 502 l 1003 502 l 1003 1157 l 1204 1157 m 208 710 q 597 724 390 710 q 926 756 804 738 l 926 571 q 526 534 785 549 l 509 278 l 301 278 l 318 526 l 208 525 l 46 525 l 46 710 l 208 710 m 39 -39 q 254 78 168 12 q 340 231 340 144 l 340 262 l 517 262 l 517 231 q 698 25 517 120 q 872 231 872 122 l 872 262 l 1049 262 l 1049 231 q 1137 78 1049 144 q 1350 -31 1225 12 l 1235 -177 q 958 11 1049 -106 q 694 -185 869 -97 q 435 9 523 -94 q 318 -102 384 -59 q 162 -185 252 -145 l 39 -39 z "},"궝":{"ha":1296,"x_min":46,"x_max":1235,"o":"m 787 1111 q 856 1042 856 1111 q 810 779 844 914 l 602 795 q 637 926 627 867 l 93 926 l 77 1111 l 787 1111 m 1204 1157 l 1204 324 l 1003 324 l 1003 355 l 664 355 l 664 525 l 1003 525 l 1003 1157 l 1204 1157 m 208 718 q 597 731 390 718 q 926 764 804 745 l 926 579 q 523 542 785 557 l 509 324 l 301 324 l 315 534 l 208 532 l 46 532 l 46 718 l 208 718 m 687 -185 q 270 -129 401 -185 q 139 54 139 -73 q 270 237 139 181 q 687 293 401 293 q 1103 237 972 293 q 1235 54 1235 181 q 1103 -129 1235 -73 q 687 -185 972 -185 m 687 -15 q 938 2 858 -15 q 1019 54 1019 19 q 938 106 1019 90 q 687 123 858 123 q 435 106 515 123 q 355 54 355 90 q 435 2 355 19 q 687 -15 515 -15 z "},"궞":{"ha":1296,"x_min":0,"x_max":0,"o":""},"궟":{"ha":1296,"x_min":0,"x_max":0,"o":""},"궠":{"ha":1296,"x_min":0,"x_max":0,"o":""},"궡":{"ha":1296,"x_min":0,"x_max":0,"o":""},"궢":{"ha":1296,"x_min":0,"x_max":0,"o":""},"궣":{"ha":1296,"x_min":0,"x_max":0,"o":""},"궤":{"ha":1296,"x_min":31,"x_max":1227,"o":"m 594 1111 q 664 1042 664 1111 q 617 625 650 790 l 417 640 q 463 926 455 826 l 54 926 l 39 1111 l 594 1111 m 772 231 l 772 1157 l 965 1157 l 965 -162 l 772 -162 l 772 46 l 532 46 l 532 231 l 772 231 m 131 509 q 446 522 292 509 q 718 556 600 535 l 718 370 q 452 335 602 346 l 424 -162 l 224 -162 l 258 326 l 131 324 l 31 324 l 31 509 l 131 509 m 1227 1157 l 1227 -162 l 1034 -162 l 1034 1157 l 1227 1157 z "},"궥":{"ha":1296,"x_min":0,"x_max":0,"o":""},"궦":{"ha":1296,"x_min":0,"x_max":0,"o":""},"궧":{"ha":1296,"x_min":0,"x_max":0,"o":""},"궨":{"ha":1296,"x_min":0,"x_max":0,"o":""},"궩":{"ha":1296,"x_min":0,"x_max":0,"o":""},"궪":{"ha":1296,"x_min":0,"x_max":0,"o":""},"궫":{"ha":1296,"x_min":0,"x_max":0,"o":""},"궬":{"ha":1296,"x_min":0,"x_max":0,"o":""},"궭":{"ha":1296,"x_min":0,"x_max":0,"o":""},"궮":{"ha":1296,"x_min":0,"x_max":0,"o":""},"궯":{"ha":1296,"x_min":0,"x_max":0,"o":""},"궰":{"ha":1296,"x_min":0,"x_max":0,"o":""},"궱":{"ha":1296,"x_min":0,"x_max":0,"o":""},"궲":{"ha":1296,"x_min":0,"x_max":0,"o":""},"궳":{"ha":1296,"x_min":0,"x_max":0,"o":""},"궴":{"ha":1296,"x_min":0,"x_max":0,"o":""},"궵":{"ha":1296,"x_min":0,"x_max":0,"o":""},"궶":{"ha":1296,"x_min":0,"x_max":0,"o":""},"궷":{"ha":1296,"x_min":23,"x_max":1265,"o":"m 594 1111 q 664 1042 664 1111 q 644 898 659 977 q 617 756 630 819 l 424 772 q 461 934 451 849 l 54 934 l 39 1111 l 594 1111 m 1227 1157 l 1227 208 l 1034 208 l 1034 1157 l 1227 1157 m 965 1157 l 965 270 l 772 270 l 772 324 l 532 324 l 532 502 l 772 502 l 772 1157 l 965 1157 m 139 702 q 733 748 514 702 l 733 571 q 443 534 613 546 l 417 247 l 224 247 l 248 526 l 139 525 l 23 525 l 23 702 l 139 702 m 787 255 l 787 208 q 930 66 787 116 q 1265 -8 1073 17 l 1165 -177 q 904 -111 1034 -156 q 688 11 773 -66 q 471 -117 602 -71 q 208 -185 341 -164 l 108 -15 q 440 63 293 9 q 586 208 586 116 l 586 255 l 787 255 z "},"궸":{"ha":1296,"x_min":23,"x_max":1366,"o":"m 594 1111 q 664 1042 664 1111 q 644 898 659 977 q 617 756 630 819 l 424 772 q 461 934 451 849 l 54 934 l 39 1111 l 594 1111 m 1227 1157 l 1227 278 l 1065 278 l 1065 231 q 1366 -31 1065 82 l 1258 -177 q 974 12 1066 -103 q 710 -185 886 -97 q 441 11 532 -97 q 322 -101 390 -57 q 162 -185 253 -145 l 39 -39 q 259 79 171 14 q 347 231 347 144 l 347 262 l 525 262 l 525 231 q 704 25 525 122 q 887 231 887 123 l 887 278 l 772 278 l 772 324 l 532 324 l 532 502 l 772 502 l 772 1157 l 965 1157 l 965 278 l 1034 278 l 1034 1157 l 1227 1157 m 139 702 q 733 748 514 702 l 733 571 q 443 534 613 546 l 417 278 l 224 278 l 250 526 l 139 525 l 23 525 l 23 702 l 139 702 z "},"궹":{"ha":1296,"x_min":0,"x_max":0,"o":""},"궺":{"ha":1296,"x_min":0,"x_max":0,"o":""},"궻":{"ha":1296,"x_min":0,"x_max":0,"o":""},"궼":{"ha":1296,"x_min":0,"x_max":0,"o":""},"궽":{"ha":1296,"x_min":0,"x_max":0,"o":""},"궾":{"ha":1296,"x_min":0,"x_max":0,"o":""},"궿":{"ha":1296,"x_min":0,"x_max":0,"o":""},"귀":{"ha":1296,"x_min":46,"x_max":1204,"o":"m 756 1111 q 826 1042 826 1111 q 779 594 812 787 l 586 602 q 628 926 619 762 l 93 926 l 77 1111 l 756 1111 m 185 486 q 603 500 389 486 q 941 532 818 514 l 941 347 q 559 312 787 326 l 532 -162 l 332 -162 l 358 304 l 185 301 l 46 301 l 46 486 l 185 486 m 1204 1157 l 1204 -162 l 1003 -162 l 1003 1157 l 1204 1157 z "},"귁":{"ha":1296,"x_min":46,"x_max":1204,"o":"m 787 1111 q 856 1042 856 1111 q 810 741 844 884 l 602 756 q 642 934 630 832 l 93 934 l 77 1111 l 787 1111 m 208 687 q 597 701 390 687 q 926 733 804 715 l 926 548 q 571 514 804 529 l 556 301 l 347 301 l 363 505 l 208 502 l 46 502 l 46 687 l 208 687 m 1204 1157 l 1204 301 l 1003 301 l 1003 1157 l 1204 1157 m 1204 -170 l 1003 -170 l 1003 77 l 154 77 l 154 255 l 1204 255 l 1204 -170 z "},"귂":{"ha":1296,"x_min":0,"x_max":0,"o":""},"귃":{"ha":1296,"x_min":0,"x_max":0,"o":""},"귄":{"ha":1296,"x_min":46,"x_max":1227,"o":"m 787 1111 q 856 1042 856 1111 q 810 710 844 878 l 602 725 q 644 926 633 823 l 93 926 l 77 1111 l 787 1111 m 1204 1157 l 1204 139 l 1003 139 l 1003 1157 l 1204 1157 m 208 648 q 597 662 390 648 q 926 694 804 676 l 926 509 q 560 474 785 488 l 548 278 l 340 278 l 352 465 l 208 463 l 46 463 l 46 648 l 208 648 m 386 231 l 386 46 l 1211 46 l 1227 -147 l 255 -147 q 185 -77 185 -147 l 185 231 l 386 231 z "},"귅":{"ha":1296,"x_min":0,"x_max":0,"o":""},"귆":{"ha":1296,"x_min":0,"x_max":0,"o":""},"귇":{"ha":1296,"x_min":0,"x_max":0,"o":""},"귈":{"ha":1296,"x_min":46,"x_max":1227,"o":"m 787 1111 q 856 1042 856 1111 q 810 787 846 926 l 602 802 q 639 934 628 873 l 93 934 l 77 1111 l 787 1111 m 208 725 q 601 738 395 724 q 926 772 807 752 l 926 586 q 566 554 815 569 l 556 424 l 347 424 l 356 543 l 208 540 l 46 540 l 46 725 l 208 725 m 1204 1157 l 1204 424 l 1003 424 l 1003 1157 l 1204 1157 m 1204 394 l 1204 39 l 370 39 l 370 -8 l 1211 -8 l 1227 -170 l 247 -170 q 177 -100 177 -170 l 177 185 l 995 185 l 995 231 l 177 231 l 177 394 l 1204 394 z "},"귉":{"ha":1296,"x_min":0,"x_max":0,"o":""},"귊":{"ha":1296,"x_min":0,"x_max":0,"o":""},"귋":{"ha":1296,"x_min":0,"x_max":0,"o":""},"귌":{"ha":1296,"x_min":0,"x_max":0,"o":""},"귍":{"ha":1296,"x_min":0,"x_max":0,"o":""},"귎":{"ha":1296,"x_min":0,"x_max":0,"o":""},"귏":{"ha":1296,"x_min":0,"x_max":0,"o":""},"귐":{"ha":1296,"x_min":46,"x_max":1204,"o":"m 787 1111 q 856 1042 856 1111 q 810 764 843 897 l 602 779 q 640 934 628 850 l 93 934 l 77 1111 l 787 1111 m 1204 1157 l 1204 347 l 1003 347 l 1003 1157 l 1204 1157 m 208 694 q 597 708 390 694 q 926 741 804 722 l 926 556 q 568 522 806 537 l 556 347 l 347 347 l 360 512 l 208 509 l 46 509 l 46 694 l 208 694 m 1204 293 l 1204 -162 l 247 -162 q 177 -93 177 -162 l 177 293 l 1204 293 m 1003 15 l 1003 116 l 378 116 l 378 15 l 1003 15 z "},"귑":{"ha":1296,"x_min":46,"x_max":1204,"o":"m 787 1111 q 856 1042 856 1111 q 810 764 843 897 l 602 779 q 640 934 628 850 l 93 934 l 77 1111 l 787 1111 m 1204 1157 l 1204 347 l 1003 347 l 1003 1157 l 1204 1157 m 208 694 q 597 708 390 694 q 926 741 804 722 l 926 556 q 568 522 806 537 l 556 347 l 347 347 l 360 512 l 208 509 l 46 509 l 46 694 l 208 694 m 378 316 l 378 216 l 1003 216 l 1003 316 l 1204 316 l 1204 -162 l 247 -162 q 177 -93 177 -162 l 177 316 l 378 316 m 1003 -8 l 1003 62 l 378 62 l 378 -8 l 1003 -8 z "},"귒":{"ha":1296,"x_min":0,"x_max":0,"o":""},"귓":{"ha":1296,"x_min":46,"x_max":1273,"o":"m 787 1111 q 856 1042 856 1111 q 810 741 844 884 l 602 756 q 642 934 630 832 l 93 934 l 77 1111 l 787 1111 m 208 664 q 597 677 390 664 q 926 710 804 691 l 926 525 q 478 486 759 498 l 463 247 l 255 247 l 270 478 l 208 478 l 46 478 l 46 664 l 208 664 m 1204 1165 l 1204 201 l 1003 201 l 1003 1165 l 1204 1165 m 795 347 l 795 293 q 872 148 795 215 q 1062 41 949 82 q 1273 -8 1174 0 l 1173 -177 q 919 -102 1056 -162 q 694 59 782 -42 q 470 -107 606 -45 q 216 -185 333 -170 l 116 -15 q 327 35 215 -8 q 517 146 440 79 q 594 293 594 213 l 594 347 l 795 347 z "},"귔":{"ha":1296,"x_min":0,"x_max":0,"o":""},"귕":{"ha":1296,"x_min":46,"x_max":1235,"o":"m 787 1111 q 856 1042 856 1111 q 810 764 843 897 l 602 779 q 640 934 628 850 l 93 934 l 77 1111 l 787 1111 m 1204 1157 l 1204 347 l 1003 347 l 1003 1157 l 1204 1157 m 208 694 q 597 708 390 694 q 926 741 804 722 l 926 556 q 568 522 806 537 l 556 347 l 347 347 l 360 512 l 208 509 l 46 509 l 46 694 l 208 694 m 687 -185 q 271 -126 403 -185 q 139 62 139 -66 q 271 249 139 190 q 687 309 403 309 q 1103 249 971 309 q 1235 62 1235 190 q 1103 -126 1235 -66 q 687 -185 971 -185 m 687 -15 q 940 3 861 -15 q 1019 62 1019 22 q 940 120 1019 102 q 687 139 861 139 q 434 120 512 139 q 355 62 355 102 q 434 3 355 22 q 687 -15 512 -15 z "},"귖":{"ha":1296,"x_min":0,"x_max":0,"o":""},"귗":{"ha":1296,"x_min":0,"x_max":0,"o":""},"귘":{"ha":1296,"x_min":0,"x_max":0,"o":""},"귙":{"ha":1296,"x_min":0,"x_max":0,"o":""},"귚":{"ha":1296,"x_min":0,"x_max":0,"o":""},"귛":{"ha":1296,"x_min":0,"x_max":0,"o":""},"규":{"ha":1296,"x_min":46,"x_max":1250,"o":"m 1080 1111 q 1150 1042 1150 1111 q 1096 540 1137 727 l 880 556 q 929 926 921 725 l 139 926 l 123 1111 l 1080 1111 m 1250 463 l 1250 278 l 972 278 l 972 -170 l 779 -170 l 779 278 l 517 278 l 517 -170 l 324 -170 l 324 278 l 46 278 l 46 463 l 1250 463 z "},"귝":{"ha":1296,"x_min":0,"x_max":0,"o":""},"귞":{"ha":1296,"x_min":0,"x_max":0,"o":""},"귟":{"ha":1296,"x_min":0,"x_max":0,"o":""},"균":{"ha":1296,"x_min":39,"x_max":1265,"o":"m 1096 1134 q 1165 1065 1165 1134 q 1119 648 1154 869 l 918 664 q 960 949 949 818 l 139 949 l 123 1134 l 1096 1134 m 1265 594 l 1265 409 l 988 409 l 988 185 l 787 185 l 787 409 l 617 409 l 617 185 l 417 185 l 417 409 l 39 409 l 39 594 l 1265 594 m 347 293 l 347 46 l 1165 46 l 1181 -147 l 216 -147 q 147 -77 147 -147 l 147 293 l 347 293 z "},"귡":{"ha":1296,"x_min":0,"x_max":0,"o":""},"귢":{"ha":1296,"x_min":0,"x_max":0,"o":""},"귣":{"ha":1296,"x_min":0,"x_max":0,"o":""},"귤":{"ha":1296,"x_min":39,"x_max":1265,"o":"m 1096 1134 q 1165 1065 1165 1134 q 1148 924 1160 998 q 1119 764 1136 849 l 918 779 q 955 949 946 875 l 139 949 l 123 1134 l 1096 1134 m 1265 725 l 1265 548 l 988 548 l 988 448 l 1157 448 l 1157 62 l 340 62 l 340 0 l 1165 0 l 1181 -170 l 208 -170 q 139 -100 139 -170 l 139 216 l 957 216 l 957 278 l 139 278 l 139 448 l 309 448 l 309 548 l 39 548 l 39 725 l 1265 725 m 787 448 l 787 548 l 509 548 l 509 448 l 787 448 z "},"귥":{"ha":1296,"x_min":0,"x_max":0,"o":""},"귦":{"ha":1296,"x_min":0,"x_max":0,"o":""},"귧":{"ha":1296,"x_min":0,"x_max":0,"o":""},"귨":{"ha":1296,"x_min":0,"x_max":0,"o":""},"귩":{"ha":1296,"x_min":0,"x_max":0,"o":""},"귪":{"ha":1296,"x_min":0,"x_max":0,"o":""},"귫":{"ha":1296,"x_min":0,"x_max":0,"o":""},"귬":{"ha":1296,"x_min":39,"x_max":1265,"o":"m 1096 1134 q 1165 1065 1165 1134 q 1152 940 1160 997 q 1127 795 1144 883 q 1124 765 1127 781 q 1119 733 1122 750 l 918 748 q 958 949 948 863 l 139 949 l 123 1134 l 1096 1134 m 1265 664 l 1265 478 l 957 478 l 957 347 l 1157 347 l 1157 -162 l 208 -162 q 139 -93 139 -162 l 139 347 l 340 347 l 340 478 l 39 478 l 39 664 l 1265 664 m 957 23 l 957 162 l 340 162 l 340 23 l 957 23 m 756 347 l 756 478 l 540 478 l 540 347 l 756 347 z "},"귭":{"ha":1296,"x_min":39,"x_max":1265,"o":"m 1096 1134 q 1165 1065 1165 1134 q 1152 940 1160 997 q 1127 795 1144 883 q 1124 765 1127 781 q 1119 733 1122 750 l 918 748 q 958 949 948 863 l 139 949 l 123 1134 l 1096 1134 m 1265 664 l 1265 478 l 957 478 l 957 370 l 1157 370 l 1157 -162 l 208 -162 q 139 -93 139 -162 l 139 370 l 340 370 l 340 478 l 39 478 l 39 664 l 1265 664 m 957 15 l 957 93 l 340 93 l 340 15 l 957 15 m 957 262 l 957 324 l 756 324 l 756 478 l 540 478 l 540 324 l 340 324 l 340 262 l 957 262 z "},"귮":{"ha":1296,"x_min":0,"x_max":0,"o":""},"귯":{"ha":1296,"x_min":0,"x_max":0,"o":""},"귰":{"ha":1296,"x_min":0,"x_max":0,"o":""},"귱":{"ha":1296,"x_min":0,"x_max":0,"o":""},"귲":{"ha":1296,"x_min":0,"x_max":0,"o":""},"귳":{"ha":1296,"x_min":0,"x_max":0,"o":""},"귴":{"ha":1296,"x_min":0,"x_max":0,"o":""},"귵":{"ha":1296,"x_min":0,"x_max":0,"o":""},"귶":{"ha":1296,"x_min":0,"x_max":0,"o":""},"귷":{"ha":1296,"x_min":0,"x_max":0,"o":""},"그":{"ha":1296,"x_min":46,"x_max":1258,"o":"m 1096 1088 q 1165 1019 1165 1088 q 1096 278 1154 606 l 887 309 q 960 903 957 619 l 139 903 l 123 1088 l 1096 1088 m 1242 116 l 1258 -69 l 46 -69 l 46 116 l 1242 116 z "},"극":{"ha":1296,"x_min":39,"x_max":1265,"o":"m 1096 1134 q 1165 1065 1165 1134 q 1150 910 1160 981 q 1119 710 1140 838 l 918 725 q 958 949 948 849 l 139 949 l 123 1134 l 1096 1134 m 1265 625 l 1265 440 l 39 440 l 39 625 l 1265 625 m 1157 -170 l 957 -170 l 957 116 l 131 116 l 131 301 l 1157 301 l 1157 -170 z "},"귺":{"ha":1296,"x_min":0,"x_max":0,"o":""},"귻":{"ha":1296,"x_min":0,"x_max":0,"o":""},"근":{"ha":1296,"x_min":39,"x_max":1265,"o":"m 1096 1134 q 1165 1065 1165 1134 q 1119 648 1154 869 l 918 664 q 960 949 949 818 l 139 949 l 123 1134 l 1096 1134 m 1265 579 l 1265 394 l 39 394 l 39 579 l 1265 579 m 347 293 l 347 46 l 1165 46 l 1181 -147 l 216 -147 q 147 -77 147 -147 l 147 293 l 347 293 z "},"귽":{"ha":1296,"x_min":0,"x_max":0,"o":""},"귾":{"ha":1296,"x_min":0,"x_max":0,"o":""},"귿":{"ha":1296,"x_min":39,"x_max":1265,"o":"m 1096 1134 q 1165 1065 1165 1134 q 1152 940 1160 997 q 1127 795 1144 883 q 1124 765 1127 781 q 1119 733 1122 750 l 918 748 q 958 949 948 863 l 139 949 l 123 1134 l 1096 1134 m 1265 648 l 1265 463 l 39 463 l 39 648 l 1265 648 m 1157 347 l 1157 162 l 340 162 l 340 23 l 1157 23 l 1173 -162 l 208 -162 q 139 -93 139 -162 l 139 347 l 1157 347 z "},"글":{"ha":1296,"x_min":39,"x_max":1265,"o":"m 1096 1134 q 1165 1065 1165 1134 q 1148 924 1160 998 q 1119 764 1136 849 l 918 779 q 955 949 946 875 l 139 949 l 123 1134 l 1096 1134 m 1265 718 l 1265 540 l 39 540 l 39 718 l 1265 718 m 1157 448 l 1157 62 l 340 62 l 340 0 l 1165 0 l 1181 -170 l 208 -170 q 139 -100 139 -170 l 139 216 l 957 216 l 957 278 l 139 278 l 139 448 l 1157 448 z "},"긁":{"ha":1296,"x_min":39,"x_max":1265,"o":"m 1096 1134 q 1165 1065 1165 1134 q 1148 924 1160 998 q 1119 764 1136 849 l 918 779 q 955 949 946 875 l 139 949 l 123 1134 l 1096 1134 m 1265 718 l 1265 540 l 39 540 l 39 718 l 1265 718 m 139 448 l 633 448 l 633 62 l 340 62 l 340 -2 q 756 31 588 3 l 772 -131 q 535 -160 671 -151 q 208 -170 400 -168 q 139 -100 139 -170 l 139 216 l 440 216 l 440 278 l 139 278 l 139 448 m 1157 -185 l 957 -185 l 957 262 l 694 262 l 694 448 l 1157 448 l 1157 -185 z "},"긂":{"ha":1296,"x_min":39,"x_max":1265,"o":"m 1096 1134 q 1165 1065 1165 1134 q 1148 924 1160 998 q 1119 764 1136 849 l 918 779 q 955 949 946 875 l 139 949 l 123 1134 l 1096 1134 m 1265 718 l 1265 540 l 39 540 l 39 718 l 1265 718 m 1157 432 l 1157 -170 l 694 -170 l 694 432 l 1157 432 m 980 8 l 980 255 l 872 255 l 872 8 l 980 8 m 139 432 l 633 432 l 633 62 l 340 62 l 340 0 q 656 23 526 0 l 671 -139 q 474 -164 583 -157 q 208 -170 364 -170 q 139 -100 139 -170 l 139 216 l 440 216 l 440 278 l 139 278 l 139 432 z "},"긃":{"ha":1296,"x_min":0,"x_max":0,"o":""},"긄":{"ha":1296,"x_min":0,"x_max":0,"o":""},"긅":{"ha":1296,"x_min":0,"x_max":0,"o":""},"긆":{"ha":1296,"x_min":0,"x_max":0,"o":""},"긇":{"ha":1296,"x_min":39,"x_max":1265,"o":"m 1096 1134 q 1165 1065 1165 1134 q 1148 924 1160 998 q 1119 764 1136 849 l 918 779 q 955 949 946 875 l 139 949 l 123 1134 l 1096 1134 m 1265 718 l 1265 540 l 39 540 l 39 718 l 1265 718 m 1042 471 l 1042 409 l 1227 409 l 1227 247 l 664 247 l 664 409 l 841 409 l 841 471 l 1042 471 m 941 -193 q 756 -135 826 -193 q 687 15 687 -77 q 756 166 687 108 q 941 224 826 224 q 1133 167 1062 224 q 1204 15 1204 110 q 1133 -136 1204 -79 q 941 -193 1062 -193 m 941 -39 q 997 -23 975 -39 q 1019 15 1019 -8 q 997 54 1019 39 q 941 69 975 69 q 886 54 907 69 q 864 15 864 39 q 886 -23 864 -8 q 941 -39 907 -39 m 139 432 l 633 432 l 633 62 l 340 62 l 340 0 q 656 23 526 0 l 671 -139 q 474 -164 583 -157 q 208 -170 364 -170 q 139 -100 139 -170 l 139 216 l 440 216 l 440 278 l 139 278 l 139 432 z "},"금":{"ha":1296,"x_min":39,"x_max":1265,"o":"m 1096 1134 q 1165 1065 1165 1134 q 1152 940 1160 997 q 1127 795 1144 883 q 1124 765 1127 781 q 1119 733 1122 750 l 918 748 q 958 949 948 863 l 139 949 l 123 1134 l 1096 1134 m 1265 648 l 1265 463 l 39 463 l 39 648 l 1265 648 m 1157 347 l 1157 -162 l 208 -162 q 139 -93 139 -162 l 139 347 l 1157 347 m 957 23 l 957 162 l 340 162 l 340 23 l 957 23 z "},"급":{"ha":1296,"x_min":39,"x_max":1265,"o":"m 1096 1134 q 1165 1065 1165 1134 q 1152 940 1160 997 q 1127 795 1144 883 q 1124 765 1127 781 q 1119 733 1122 750 l 918 748 q 958 949 948 863 l 139 949 l 123 1134 l 1096 1134 m 1265 648 l 1265 463 l 39 463 l 39 648 l 1265 648 m 340 370 l 340 262 l 957 262 l 957 370 l 1157 370 l 1157 -162 l 208 -162 q 139 -93 139 -162 l 139 370 l 340 370 m 957 15 l 957 93 l 340 93 l 340 15 l 957 15 z "},"긊":{"ha":1296,"x_min":0,"x_max":0,"o":""},"긋":{"ha":1296,"x_min":39,"x_max":1265,"o":"m 1096 1134 q 1165 1065 1165 1134 q 1119 648 1154 869 l 918 664 q 960 949 949 818 l 139 949 l 123 1134 l 1096 1134 m 1265 579 l 1265 394 l 39 394 l 39 579 l 1265 579 m 756 316 l 756 270 q 1242 -8 756 90 l 1142 -177 q 883 -106 1026 -164 q 648 42 739 -49 q 417 -113 557 -54 q 162 -185 276 -171 l 62 -15 q 276 35 165 -3 q 464 134 387 74 q 540 270 540 194 l 540 316 l 756 316 z "},"긌":{"ha":1296,"x_min":0,"x_max":0,"o":""},"긍":{"ha":1296,"x_min":39,"x_max":1265,"o":"m 1096 1134 q 1165 1065 1165 1134 q 1152 940 1160 997 q 1127 795 1144 883 q 1124 765 1127 781 q 1119 733 1122 750 l 918 748 q 958 949 948 863 l 139 949 l 123 1134 l 1096 1134 m 1265 648 l 1265 463 l 39 463 l 39 648 l 1265 648 m 648 -185 q 248 -113 389 -185 q 108 93 108 -40 q 248 298 108 225 q 648 370 389 370 q 1048 298 907 370 q 1188 93 1188 225 q 1048 -113 1188 -40 q 648 -185 907 -185 m 648 -8 q 870 19 792 -8 q 949 93 949 46 q 870 166 949 139 q 648 193 792 193 q 426 166 505 193 q 347 93 347 139 q 426 19 347 46 q 648 -8 505 -8 z "},"긎":{"ha":1296,"x_min":0,"x_max":0,"o":""},"긏":{"ha":1296,"x_min":39,"x_max":1265,"o":"m 1096 1134 q 1165 1065 1165 1134 q 1148 924 1160 998 q 1119 764 1136 849 l 918 779 q 955 949 946 875 l 139 949 l 123 1134 l 1096 1134 m 1265 718 l 1265 540 l 39 540 l 39 718 l 1265 718 m 756 455 l 756 347 l 1173 347 l 1173 162 l 779 162 q 961 47 829 91 q 1242 -15 1094 3 l 1127 -177 q 871 -117 1003 -162 q 651 9 739 -73 q 431 -122 565 -74 q 177 -185 298 -170 l 62 -23 q 338 42 205 -5 q 519 162 471 90 l 131 162 l 131 347 l 540 347 l 540 455 l 756 455 z "},"긐":{"ha":1296,"x_min":0,"x_max":0,"o":""},"긑":{"ha":1296,"x_min":39,"x_max":1265,"o":"m 1096 1134 q 1165 1065 1165 1134 q 1148 924 1160 998 q 1119 764 1136 849 l 918 779 q 955 949 946 875 l 139 949 l 123 1134 l 1096 1134 m 1265 718 l 1265 540 l 39 540 l 39 718 l 1265 718 m 1165 448 l 1165 278 l 340 278 l 340 216 l 1157 216 l 1157 62 l 340 62 l 340 0 l 1173 0 l 1188 -170 l 208 -170 q 139 -100 139 -170 l 139 448 l 1165 448 z "},"긒":{"ha":1296,"x_min":0,"x_max":0,"o":""},"긓":{"ha":1296,"x_min":39,"x_max":1265,"o":"m 1096 1134 q 1165 1065 1165 1134 q 1148 924 1160 998 q 1119 764 1136 849 l 918 779 q 955 949 946 875 l 139 949 l 123 1134 l 1096 1134 m 1265 718 l 1265 540 l 39 540 l 39 718 l 1265 718 m 648 -185 q 267 -134 395 -185 q 139 15 139 -83 q 267 165 139 114 q 648 216 395 216 q 1029 165 901 216 q 1157 15 1157 114 q 1029 -134 1157 -83 q 648 -185 901 -185 m 648 -39 q 893 -26 821 -39 q 965 15 965 -14 q 893 57 965 45 q 648 69 821 69 q 410 57 481 69 q 340 15 340 45 q 410 -26 340 -14 q 648 -39 481 -39 m 748 471 l 748 401 l 1196 401 l 1196 247 l 108 247 l 108 401 l 548 401 l 548 471 l 748 471 z "},"긔":{"ha":1296,"x_min":46,"x_max":1204,"o":"m 756 1042 q 826 972 826 1042 q 764 278 826 574 l 571 293 q 625 856 619 580 l 93 856 l 77 1042 l 756 1042 m 177 154 q 583 169 350 154 q 926 201 815 184 l 926 15 q 583 -16 815 -2 q 177 -31 350 -31 l 46 -31 l 46 154 l 177 154 m 1204 1157 l 1204 -162 l 1003 -162 l 1003 1157 l 1204 1157 z "},"긕":{"ha":1296,"x_min":0,"x_max":0,"o":""},"긖":{"ha":1296,"x_min":0,"x_max":0,"o":""},"긗":{"ha":1296,"x_min":0,"x_max":0,"o":""},"긘":{"ha":1296,"x_min":46,"x_max":1219,"o":"m 787 1111 q 856 1042 856 1111 q 856 988 853 1015 q 840 793 849 895 q 818 633 830 691 l 617 648 q 648 926 640 770 l 93 926 l 77 1111 l 787 1111 m 1204 1157 l 1204 208 l 1003 208 l 1003 1157 l 1204 1157 m 201 548 q 617 560 414 548 q 941 594 819 573 l 941 409 q 614 375 819 387 q 201 363 409 363 l 46 363 l 46 548 l 201 548 m 386 255 l 386 46 l 1219 46 l 1219 -147 l 255 -147 q 185 -77 185 -147 l 185 255 l 386 255 z "},"긙":{"ha":1296,"x_min":0,"x_max":0,"o":""},"긚":{"ha":1296,"x_min":0,"x_max":0,"o":""},"긛":{"ha":1296,"x_min":0,"x_max":0,"o":""},"긜":{"ha":1296,"x_min":0,"x_max":0,"o":""},"긝":{"ha":1296,"x_min":0,"x_max":0,"o":""},"긞":{"ha":1296,"x_min":0,"x_max":0,"o":""},"긟":{"ha":1296,"x_min":0,"x_max":0,"o":""},"긠":{"ha":1296,"x_min":0,"x_max":0,"o":""},"긡":{"ha":1296,"x_min":0,"x_max":0,"o":""},"긢":{"ha":1296,"x_min":0,"x_max":0,"o":""},"긣":{"ha":1296,"x_min":0,"x_max":0,"o":""},"긤":{"ha":1296,"x_min":0,"x_max":0,"o":""},"긥":{"ha":1296,"x_min":0,"x_max":0,"o":""},"긦":{"ha":1296,"x_min":0,"x_max":0,"o":""},"긧":{"ha":1296,"x_min":0,"x_max":0,"o":""},"긨":{"ha":1296,"x_min":0,"x_max":0,"o":""},"긩":{"ha":1296,"x_min":46,"x_max":1227,"o":"m 787 1111 q 856 1042 856 1111 q 818 702 847 903 l 617 718 q 647 926 639 830 l 93 926 l 77 1111 l 787 1111 m 1204 1157 l 1204 394 l 1003 394 l 1003 1157 l 1204 1157 m 201 602 q 617 614 414 602 q 941 648 819 627 l 941 463 q 614 429 819 441 q 201 417 409 417 l 46 417 l 46 602 l 201 602 m 694 -185 q 302 -114 441 -185 q 162 85 162 -43 q 302 284 162 213 q 694 355 441 355 q 1087 284 948 355 q 1227 85 1227 213 q 1087 -114 1227 -43 q 694 -185 948 -185 m 694 -8 q 929 15 847 -8 q 1011 85 1011 39 q 929 154 1011 131 q 694 177 847 177 q 460 154 542 177 q 378 85 378 131 q 460 15 378 39 q 694 -8 542 -8 z "},"긪":{"ha":1296,"x_min":0,"x_max":0,"o":""},"긫":{"ha":1296,"x_min":0,"x_max":0,"o":""},"긬":{"ha":1296,"x_min":0,"x_max":0,"o":""},"긭":{"ha":1296,"x_min":0,"x_max":0,"o":""},"긮":{"ha":1296,"x_min":0,"x_max":0,"o":""},"긯":{"ha":1296,"x_min":0,"x_max":0,"o":""},"기":{"ha":1296,"x_min":39,"x_max":1196,"o":"m 694 1065 q 764 995 764 1065 q 600 396 747 636 q 177 15 454 156 l 39 162 q 397 451 267 272 q 552 880 528 631 l 100 880 l 85 1065 l 694 1065 m 1196 1157 l 1196 -162 l 988 -162 l 988 1157 l 1196 1157 z "},"긱":{"ha":1296,"x_min":39,"x_max":1196,"o":"m 718 1111 q 787 1042 787 1111 q 584 607 764 773 q 116 394 404 441 l 39 586 q 383 708 262 625 q 540 926 505 790 l 100 926 l 85 1111 l 718 1111 m 1196 1157 l 1196 394 l 988 394 l 988 1157 l 1196 1157 m 1196 -170 l 988 -170 l 988 139 l 208 139 l 208 324 l 1196 324 l 1196 -170 z "},"긲":{"ha":1296,"x_min":0,"x_max":0,"o":""},"긳":{"ha":1296,"x_min":0,"x_max":0,"o":""},"긴":{"ha":1296,"x_min":39,"x_max":1227,"o":"m 718 1111 q 787 1042 787 1111 q 586 606 765 775 q 116 370 407 437 l 39 556 q 387 698 265 608 q 543 926 508 789 l 100 926 l 85 1111 l 718 1111 m 1196 1157 l 1196 162 l 988 162 l 988 1157 l 1196 1157 m 440 293 l 440 46 l 1211 46 l 1227 -147 l 301 -147 q 231 -77 231 -147 l 231 293 l 440 293 z "},"긵":{"ha":1296,"x_min":0,"x_max":0,"o":""},"긶":{"ha":1296,"x_min":0,"x_max":0,"o":""},"긷":{"ha":1296,"x_min":39,"x_max":1219,"o":"m 718 1111 q 787 1042 787 1111 q 590 633 765 778 q 116 440 414 489 l 39 625 q 383 735 265 665 q 539 926 502 806 l 100 926 l 85 1111 l 718 1111 m 1196 1157 l 1196 440 l 988 440 l 988 1157 l 1196 1157 m 1196 370 l 1196 185 l 440 185 l 440 23 l 1204 23 l 1219 -162 l 301 -162 q 231 -93 231 -162 l 231 370 l 1196 370 z "},"길":{"ha":1296,"x_min":39,"x_max":1219,"o":"m 718 1111 q 787 1042 787 1111 q 583 672 759 809 q 116 486 407 535 l 39 671 q 367 769 250 708 q 528 926 485 830 l 100 926 l 85 1111 l 718 1111 m 1196 1157 l 1196 525 l 988 525 l 988 1157 l 1196 1157 m 231 455 l 1196 455 l 1196 62 l 432 62 l 432 0 l 1204 0 l 1219 -170 l 301 -170 q 231 -100 231 -170 l 231 224 l 995 224 l 995 285 l 231 285 l 231 455 z "},"긹":{"ha":1296,"x_min":0,"x_max":0,"o":""},"긺":{"ha":1296,"x_min":39,"x_max":1196,"o":"m 718 1111 q 787 1042 787 1111 q 583 672 759 809 q 116 486 407 535 l 39 671 q 367 769 250 708 q 528 926 485 830 l 100 926 l 85 1111 l 718 1111 m 1196 1157 l 1196 525 l 988 525 l 988 1157 l 1196 1157 m 1196 455 l 1196 -170 l 741 -170 l 741 455 l 1196 455 m 1011 8 l 1011 278 l 926 278 l 926 8 l 1011 8 m 185 455 l 671 455 l 671 77 l 386 77 l 386 2 q 687 23 539 3 l 702 -139 q 514 -164 619 -157 q 255 -170 409 -170 q 185 -100 185 -170 l 185 224 l 478 224 l 478 285 l 185 285 l 185 455 z "},"긻":{"ha":1296,"x_min":0,"x_max":0,"o":""},"긼":{"ha":1296,"x_min":0,"x_max":0,"o":""},"긽":{"ha":1296,"x_min":0,"x_max":0,"o":""},"긾":{"ha":1296,"x_min":0,"x_max":0,"o":""},"긿":{"ha":1296,"x_min":0,"x_max":0,"o":""},"김":{"ha":1296,"x_min":15,"x_max":1196,"o":"m 694 1111 q 764 1042 764 1111 q 566 633 742 778 q 93 440 390 489 l 15 625 q 360 735 242 665 q 515 926 478 806 l 77 926 l 62 1111 l 694 1111 m 1196 1157 l 1196 440 l 988 440 l 988 1157 l 1196 1157 m 1196 370 l 1196 -162 l 301 -162 q 231 -93 231 -162 l 231 370 l 1196 370 m 988 23 l 988 185 l 440 185 l 440 23 l 988 23 z "},"깁":{"ha":1296,"x_min":15,"x_max":1196,"o":"m 694 1111 q 764 1042 764 1111 q 566 633 742 778 q 93 440 390 489 l 15 625 q 360 735 242 665 q 515 926 478 806 l 77 926 l 62 1111 l 694 1111 m 1196 1157 l 1196 440 l 988 440 l 988 1157 l 1196 1157 m 440 386 l 440 285 l 988 285 l 988 386 l 1196 386 l 1196 -162 l 301 -162 q 231 -93 231 -162 l 231 386 l 440 386 m 988 23 l 988 108 l 440 108 l 440 23 l 988 23 z "},"깂":{"ha":1296,"x_min":0,"x_max":0,"o":""},"깃":{"ha":1296,"x_min":39,"x_max":1289,"o":"m 718 1111 q 787 1042 787 1111 q 586 606 765 775 q 116 370 407 437 l 39 556 q 387 698 265 608 q 543 926 508 789 l 100 926 l 85 1111 l 718 1111 m 1196 1157 l 1196 324 l 988 324 l 988 1157 l 1196 1157 m 810 440 l 810 370 q 887 204 810 281 q 1073 73 963 127 q 1289 -8 1184 19 l 1188 -177 q 927 -69 1060 -140 q 708 110 793 2 q 491 -75 622 -3 q 231 -185 360 -147 l 131 -15 q 346 66 235 11 q 533 201 457 122 q 610 370 610 281 l 610 440 l 810 440 z "},"깄":{"ha":1296,"x_min":39,"x_max":1350,"o":"m 718 1111 q 787 1042 787 1111 q 584 607 764 773 q 116 394 404 441 l 39 586 q 383 708 262 625 q 540 926 505 790 l 100 926 l 85 1111 l 718 1111 m 1196 1157 l 1196 394 l 988 394 l 988 1157 l 1196 1157 m 85 -39 q 287 105 204 14 q 370 309 370 196 l 370 370 l 548 370 l 548 301 q 595 161 548 228 q 718 39 642 94 q 840 161 793 94 q 887 301 887 228 l 887 370 l 1065 370 l 1065 301 q 1151 105 1065 194 q 1350 -31 1238 15 l 1235 -177 q 974 48 1066 -93 q 850 -92 921 -29 q 718 -185 779 -154 q 585 -90 653 -150 q 465 45 517 -31 q 347 -90 415 -32 q 208 -185 279 -148 l 85 -39 z "},"깅":{"ha":1296,"x_min":39,"x_max":1227,"o":"m 718 1111 q 787 1042 787 1111 q 584 607 764 773 q 116 394 404 441 l 39 586 q 383 708 262 625 q 540 926 505 790 l 100 926 l 85 1111 l 718 1111 m 1196 1157 l 1196 394 l 988 394 l 988 1157 l 1196 1157 m 718 -185 q 338 -110 468 -185 q 208 100 208 -35 q 338 311 208 236 q 718 386 468 386 q 1095 310 963 386 q 1227 100 1227 235 q 1095 -110 1227 -34 q 718 -185 963 -185 m 718 0 q 922 27 849 0 q 995 100 995 54 q 922 174 995 147 q 718 201 849 201 q 504 174 576 201 q 432 100 432 148 q 504 26 432 52 q 718 0 576 0 z "},"깆":{"ha":1296,"x_min":15,"x_max":1296,"o":"m 694 1111 q 764 1042 764 1111 q 566 633 742 778 q 93 440 390 489 l 15 625 q 360 735 242 665 q 515 926 478 806 l 77 926 l 62 1111 l 694 1111 m 1196 1157 l 1196 440 l 988 440 l 988 1157 l 1196 1157 m 139 -15 q 404 59 275 8 q 588 185 534 110 l 224 185 l 224 370 l 1219 370 l 1219 185 l 847 185 q 1029 64 900 113 q 1296 -8 1157 15 l 1181 -177 q 721 49 860 -96 q 512 -96 639 -39 q 255 -185 384 -153 l 139 -15 z "},"깇":{"ha":1296,"x_min":0,"x_max":0,"o":""},"깈":{"ha":1296,"x_min":0,"x_max":0,"o":""},"깉":{"ha":1296,"x_min":0,"x_max":0,"o":""},"깊":{"ha":1296,"x_min":15,"x_max":1235,"o":"m 694 1111 q 764 1042 764 1111 q 566 633 742 778 q 93 440 390 489 l 15 625 q 360 735 242 665 q 515 926 478 806 l 77 926 l 62 1111 l 694 1111 m 1196 1157 l 1196 440 l 988 440 l 988 1157 l 1196 1157 m 403 23 l 392 185 l 224 185 l 224 370 l 1204 370 l 1204 185 l 1051 185 l 1040 23 l 1219 23 l 1235 -162 l 201 -162 l 201 23 l 403 23 m 840 23 l 850 185 l 593 185 l 603 23 l 840 23 z "},"깋":{"ha":1296,"x_min":0,"x_max":0,"o":""},"까":{"ha":1296,"x_min":-8,"x_max":1312,"o":"m 448 1065 q 377 495 448 750 q 170 62 307 239 l -8 162 q 175 478 106 296 q 256 880 244 660 l 69 880 l 54 1065 l 448 1065 m 787 1065 q 849 995 849 1060 q 775 413 843 679 q 571 -23 708 147 l 394 85 q 573 435 502 222 q 656 880 645 648 l 486 880 l 486 1065 l 787 1065 m 1157 1157 l 1157 694 l 1312 694 l 1312 494 l 1157 494 l 1157 -162 l 957 -162 l 957 1157 l 1157 1157 z "},"깍":{"ha":1296,"x_min":0,"x_max":1319,"o":"m 440 1111 q 370 725 440 877 q 162 463 301 573 l 0 571 q 239 926 198 702 l 69 926 l 54 1111 l 440 1111 m 779 1111 l 779 1110 q 833 1042 833 1102 q 571 409 810 625 l 394 517 q 543 688 477 582 q 633 926 610 793 l 478 926 l 478 1111 l 779 1111 m 1157 1157 l 1157 903 l 1319 903 l 1319 718 l 1157 718 l 1157 394 l 957 394 l 957 1157 l 1157 1157 m 1157 -170 l 957 -170 l 957 139 l 139 139 l 139 324 l 1157 324 l 1157 -170 z "},"깎":{"ha":1296,"x_min":0,"x_max":1319,"o":"m 440 1111 q 370 725 440 877 q 162 463 301 573 l 0 571 q 239 926 198 702 l 69 926 l 54 1111 l 440 1111 m 779 1111 l 779 1110 q 833 1042 833 1102 q 571 409 810 625 l 394 517 q 543 688 477 582 q 633 926 610 793 l 478 926 l 478 1111 l 779 1111 m 1157 1157 l 1157 903 l 1319 903 l 1319 718 l 1157 718 l 1157 394 l 957 394 l 957 1157 l 1157 1157 m 617 -170 l 409 -170 l 409 139 l 108 139 l 108 324 l 617 324 l 617 -170 m 1157 -170 l 957 -170 l 957 139 l 671 139 l 671 324 l 1157 324 l 1157 -170 z "},"깏":{"ha":1296,"x_min":0,"x_max":0,"o":""},"깐":{"ha":1296,"x_min":0,"x_max":1319,"o":"m 440 1111 q 162 432 440 650 l 0 540 q 152 697 86 597 q 239 926 218 796 l 69 926 l 54 1111 l 440 1111 m 764 1111 q 833 1042 833 1111 q 755 653 823 823 q 571 378 687 483 l 394 486 q 542 666 475 549 q 633 926 610 782 l 478 926 l 478 1111 l 764 1111 m 1157 1157 l 1157 849 l 1319 849 l 1319 664 l 1157 664 l 1157 224 l 957 224 l 957 1157 l 1157 1157 m 370 293 l 370 46 l 1181 46 l 1196 -147 l 231 -147 q 162 -77 162 -147 l 162 293 l 370 293 z "},"깑":{"ha":1296,"x_min":0,"x_max":0,"o":""},"깒":{"ha":1296,"x_min":0,"x_max":0,"o":""},"깓":{"ha":1296,"x_min":0,"x_max":0,"o":""},"깔":{"ha":1296,"x_min":0,"x_max":1327,"o":"m 440 1111 q 409 869 440 966 q 319 702 378 772 q 162 556 261 633 l 0 664 q 152 783 96 727 q 233 926 208 840 l 69 926 l 54 1111 l 440 1111 m 764 1111 q 833 1042 833 1111 q 758 731 823 858 q 571 502 693 605 l 394 610 q 542 751 481 676 q 628 926 603 826 l 478 926 l 478 1111 l 764 1111 m 1157 1157 l 1157 949 l 1327 949 l 1327 764 l 1157 764 l 1157 525 l 957 525 l 957 1157 l 1157 1157 m 1157 455 l 1157 62 l 363 62 l 363 0 l 1165 0 l 1181 -170 l 231 -170 q 162 -100 162 -170 l 162 224 l 957 224 l 957 285 l 162 285 l 162 455 l 1157 455 z "},"깕":{"ha":1296,"x_min":0,"x_max":0,"o":""},"깖":{"ha":1296,"x_min":0,"x_max":1327,"o":"m 440 1111 q 409 869 440 966 q 319 702 378 772 q 162 556 261 633 l 0 664 q 152 783 96 727 q 233 926 208 840 l 69 926 l 54 1111 l 440 1111 m 764 1111 q 833 1042 833 1111 q 758 731 823 858 q 571 502 693 605 l 394 610 q 542 751 481 676 q 628 926 603 826 l 478 926 l 478 1111 l 764 1111 m 1157 1157 l 1157 949 l 1327 949 l 1327 764 l 1157 764 l 1157 525 l 957 525 l 957 1157 l 1157 1157 m 1157 455 l 1157 -170 l 687 -170 l 687 455 l 1157 455 m 972 8 l 972 278 l 872 278 l 872 8 l 972 8 m 116 455 l 617 455 l 617 62 l 301 62 l 301 0 q 640 23 495 -2 l 656 -139 q 456 -164 568 -157 q 185 -170 344 -170 q 116 -100 116 -170 l 116 224 l 432 224 l 432 285 l 116 285 l 116 455 z "},"깗":{"ha":1296,"x_min":0,"x_max":0,"o":""},"깘":{"ha":1296,"x_min":0,"x_max":0,"o":""},"깙":{"ha":1296,"x_min":0,"x_max":0,"o":""},"깚":{"ha":1296,"x_min":0,"x_max":0,"o":""},"깛":{"ha":1296,"x_min":0,"x_max":0,"o":""},"깜":{"ha":1296,"x_min":0,"x_max":1327,"o":"m 440 1111 q 372 738 440 880 q 162 486 304 597 l 0 594 q 154 734 93 656 q 238 926 216 812 l 69 926 l 54 1111 l 440 1111 m 779 1111 l 779 1110 q 833 1042 833 1102 q 757 687 823 833 q 571 432 691 540 l 394 540 q 544 702 478 605 q 633 926 610 799 l 478 926 l 478 1111 l 779 1111 m 1157 1157 l 1157 926 l 1327 926 l 1327 741 l 1157 741 l 1157 455 l 957 455 l 957 1157 l 1157 1157 m 1157 370 l 1157 -162 l 231 -162 q 162 -93 162 -162 l 162 370 l 1157 370 m 949 23 l 949 185 l 370 185 l 370 23 l 949 23 z "},"깝":{"ha":1296,"x_min":0,"x_max":1327,"o":"m 440 1111 q 372 738 440 880 q 162 486 304 597 l 0 594 q 154 734 93 656 q 238 926 216 812 l 69 926 l 54 1111 l 440 1111 m 779 1111 l 779 1110 q 833 1042 833 1102 q 757 687 823 833 q 571 432 691 540 l 394 540 q 544 702 478 605 q 633 926 610 799 l 478 926 l 478 1111 l 779 1111 m 1157 1157 l 1157 926 l 1327 926 l 1327 741 l 1157 741 l 1157 455 l 957 455 l 957 1157 l 1157 1157 m 370 386 l 370 285 l 949 285 l 949 386 l 1157 386 l 1157 -162 l 231 -162 q 162 -93 162 -162 l 162 386 l 370 386 m 949 23 l 949 108 l 370 108 l 370 23 l 949 23 z "},"깞":{"ha":1296,"x_min":0,"x_max":0,"o":""},"깟":{"ha":1296,"x_min":0,"x_max":1319,"o":"m 440 1111 q 162 432 440 650 l 0 540 q 152 697 86 597 q 239 926 218 796 l 69 926 l 54 1111 l 440 1111 m 764 1111 q 833 1042 833 1111 q 755 653 823 823 q 571 378 687 483 l 394 486 q 542 666 475 549 q 633 926 610 782 l 478 926 l 478 1111 l 764 1111 m 1157 1157 l 1157 903 l 1319 903 l 1319 718 l 1157 718 l 1157 324 l 957 324 l 957 1157 l 1157 1157 m 802 347 l 802 301 q 1296 -8 802 96 l 1188 -177 q 918 -94 1054 -150 q 693 56 782 -39 q 466 -100 603 -42 q 201 -185 329 -159 l 93 -15 q 436 101 285 25 q 586 301 586 177 l 586 347 l 802 347 z "},"깠":{"ha":1296,"x_min":0,"x_max":1327,"o":"m 440 1111 q 370 725 440 877 q 162 463 301 573 l 0 571 q 239 926 198 702 l 69 926 l 54 1111 l 440 1111 m 779 1111 l 779 1110 q 833 1042 833 1102 q 571 409 810 625 l 394 517 q 543 688 477 582 q 633 926 610 793 l 478 926 l 478 1111 l 779 1111 m 1157 1157 l 1157 903 l 1319 903 l 1319 718 l 1157 718 l 1157 394 l 957 394 l 957 1157 l 1157 1157 m 15 -31 q 221 107 142 25 q 301 316 301 190 l 301 370 l 502 370 l 502 316 q 674 40 502 160 q 795 164 748 93 q 841 316 841 235 l 841 370 l 1042 370 l 1042 316 q 1123 109 1042 194 q 1327 -31 1204 23 l 1196 -177 q 1056 -85 1125 -142 q 937 49 988 -28 q 806 -92 880 -29 q 671 -185 733 -154 q 538 -90 610 -150 q 410 46 466 -29 q 291 -90 360 -31 q 154 -185 222 -150 l 15 -31 z "},"깡":{"ha":1296,"x_min":0,"x_max":1319,"o":"m 440 1111 q 370 725 440 877 q 162 463 301 573 l 0 571 q 239 926 198 702 l 69 926 l 54 1111 l 440 1111 m 779 1111 l 779 1110 q 833 1042 833 1102 q 571 409 810 625 l 394 517 q 543 688 477 582 q 633 926 610 793 l 478 926 l 478 1111 l 779 1111 m 1157 1157 l 1157 903 l 1319 903 l 1319 718 l 1157 718 l 1157 394 l 957 394 l 957 1157 l 1157 1157 m 664 -185 q 282 -110 417 -185 q 147 100 147 -34 q 282 310 147 235 q 664 386 417 386 q 1052 310 915 386 q 1188 100 1188 235 q 1052 -110 1188 -34 q 664 -185 915 -185 m 664 0 q 886 27 807 0 q 965 100 965 54 q 886 174 965 147 q 664 201 807 201 q 448 174 526 201 q 370 100 370 147 q 448 27 370 54 q 664 0 526 0 z "},"깢":{"ha":1296,"x_min":0,"x_max":0,"o":""},"깣":{"ha":1296,"x_min":0,"x_max":0,"o":""},"깤":{"ha":1296,"x_min":0,"x_max":0,"o":""},"깥":{"ha":1296,"x_min":0,"x_max":1327,"o":"m 440 1111 q 409 869 440 966 q 319 702 378 772 q 162 556 261 633 l 0 664 q 152 783 96 727 q 233 926 208 840 l 69 926 l 54 1111 l 440 1111 m 764 1111 q 833 1042 833 1111 q 758 731 823 858 q 571 502 693 605 l 394 610 q 542 751 481 676 q 628 926 603 826 l 478 926 l 478 1111 l 764 1111 m 1157 1157 l 1157 949 l 1327 949 l 1327 764 l 1157 764 l 1157 525 l 957 525 l 957 1157 l 1157 1157 m 1165 455 l 1165 285 l 363 285 l 363 224 l 1157 224 l 1157 62 l 363 62 l 363 0 l 1173 0 l 1188 -170 l 231 -170 q 162 -100 162 -170 l 162 455 l 1165 455 z "},"깦":{"ha":1296,"x_min":0,"x_max":0,"o":""},"깧":{"ha":1296,"x_min":0,"x_max":0,"o":""},"깨":{"ha":1296,"x_min":-46,"x_max":1242,"o":"m 355 1065 q 302 501 349 742 q 131 62 255 259 l -46 147 q 170 872 150 451 l 31 872 l 15 1065 l 355 1065 m 648 1065 q 718 995 718 1065 q 654 420 705 664 q 478 -23 602 176 l 301 62 q 463 423 404 218 q 532 872 522 628 l 394 872 l 394 1065 l 648 1065 m 980 1157 l 980 687 l 1065 687 l 1065 1157 l 1242 1157 l 1242 -162 l 1065 -162 l 1065 478 l 980 478 l 980 -162 l 802 -162 l 802 1157 l 980 1157 z "},"깩":{"ha":1296,"x_min":-23,"x_max":1242,"o":"m 355 1111 q 303 748 355 895 q 147 478 252 602 l -23 571 q 103 729 52 647 q 171 926 153 812 l 31 926 l 15 1111 l 355 1111 m 648 1111 q 718 1042 718 1111 q 650 677 707 832 q 494 409 594 522 l 324 502 q 528 926 495 687 l 394 926 l 394 1111 l 648 1111 m 980 1157 l 980 903 l 1065 903 l 1065 1157 l 1242 1157 l 1242 394 l 1065 394 l 1065 718 l 980 718 l 980 394 l 802 394 l 802 1157 l 980 1157 m 1242 -170 l 1049 -170 l 1049 147 l 162 147 l 162 324 l 1242 324 l 1242 -170 z "},"깪":{"ha":1296,"x_min":0,"x_max":0,"o":""},"깫":{"ha":1296,"x_min":0,"x_max":0,"o":""},"깬":{"ha":1296,"x_min":-23,"x_max":1265,"o":"m 355 1111 q 147 432 355 677 l -23 525 q 101 696 48 596 q 173 926 154 796 l 31 926 l 15 1111 l 355 1111 m 648 1111 q 718 1042 718 1111 q 648 647 705 821 q 494 363 591 472 l 324 455 q 451 654 394 531 q 528 926 509 776 l 394 926 l 394 1111 l 648 1111 m 980 1157 l 980 849 l 1065 849 l 1065 1157 l 1242 1157 l 1242 208 l 1065 208 l 1065 664 l 980 664 l 980 208 l 802 208 l 802 1157 l 980 1157 m 394 293 l 394 46 l 1250 46 l 1265 -147 l 255 -147 q 185 -77 185 -147 l 185 293 l 394 293 z "},"깭":{"ha":1296,"x_min":0,"x_max":0,"o":""},"깮":{"ha":1296,"x_min":0,"x_max":0,"o":""},"깯":{"ha":1296,"x_min":-23,"x_max":1265,"o":"m 355 1111 q 304 763 355 898 q 147 502 253 628 l -23 594 q 105 746 57 674 q 171 926 153 818 l 31 926 l 15 1111 l 355 1111 m 648 1111 q 718 1042 718 1111 q 651 691 707 835 q 494 432 596 546 l 324 525 q 455 702 401 608 q 528 926 509 796 l 394 926 l 394 1111 l 648 1111 m 980 1157 l 980 926 l 1065 926 l 1065 1157 l 1242 1157 l 1242 455 l 1065 455 l 1065 741 l 980 741 l 980 455 l 802 455 l 802 1157 l 980 1157 m 255 -162 q 185 -93 185 -162 l 185 370 l 1242 370 l 1242 185 l 394 185 l 394 23 l 1250 23 l 1265 -162 l 255 -162 z "},"깰":{"ha":1296,"x_min":-23,"x_max":1265,"o":"m 355 1111 q 331 880 355 977 q 263 708 307 782 q 147 548 219 634 l -23 640 q 67 734 37 701 q 126 816 97 767 q 168 926 154 864 l 31 926 l 15 1111 l 355 1111 m 648 1111 q 718 1042 718 1111 q 652 720 707 852 q 494 478 597 588 l 324 571 q 454 735 403 656 q 525 926 505 815 l 394 926 l 394 1111 l 648 1111 m 980 1157 l 980 949 l 1065 949 l 1065 1157 l 1242 1157 l 1242 525 l 1065 525 l 1065 764 l 980 764 l 980 525 l 802 525 l 802 1157 l 980 1157 m 1242 455 l 1242 62 l 386 62 l 386 0 l 1250 0 l 1265 -170 l 255 -170 q 185 -100 185 -170 l 185 224 l 1042 224 l 1042 285 l 185 285 l 185 455 l 1242 455 z "},"깱":{"ha":1296,"x_min":0,"x_max":0,"o":""},"깲":{"ha":1296,"x_min":0,"x_max":0,"o":""},"깳":{"ha":1296,"x_min":0,"x_max":0,"o":""},"깴":{"ha":1296,"x_min":0,"x_max":0,"o":""},"깵":{"ha":1296,"x_min":0,"x_max":0,"o":""},"깶":{"ha":1296,"x_min":0,"x_max":0,"o":""},"깷":{"ha":1296,"x_min":0,"x_max":0,"o":""},"깸":{"ha":1296,"x_min":-23,"x_max":1242,"o":"m 355 1111 q 304 763 355 898 q 147 502 253 628 l -23 594 q 105 746 57 674 q 171 926 153 818 l 31 926 l 15 1111 l 355 1111 m 648 1111 q 718 1042 718 1111 q 651 691 707 835 q 494 432 596 546 l 324 525 q 455 702 401 608 q 528 926 509 796 l 394 926 l 394 1111 l 648 1111 m 980 1157 l 980 926 l 1065 926 l 1065 1157 l 1242 1157 l 1242 455 l 1065 455 l 1065 741 l 980 741 l 980 455 l 802 455 l 802 1157 l 980 1157 m 255 -162 q 185 -93 185 -162 l 185 370 l 1242 370 l 1242 -162 l 255 -162 m 386 23 l 1042 23 l 1042 185 l 386 185 l 386 23 z "},"깹":{"ha":1296,"x_min":-23,"x_max":1242,"o":"m 355 1111 q 304 763 355 898 q 147 502 253 628 l -23 594 q 105 746 57 674 q 171 926 153 818 l 31 926 l 15 1111 l 355 1111 m 648 1111 q 718 1042 718 1111 q 651 691 707 835 q 494 432 596 546 l 324 525 q 455 702 401 608 q 528 926 509 796 l 394 926 l 394 1111 l 648 1111 m 980 1157 l 980 926 l 1065 926 l 1065 1157 l 1242 1157 l 1242 455 l 1065 455 l 1065 741 l 980 741 l 980 455 l 802 455 l 802 1157 l 980 1157 m 394 386 l 394 285 l 1034 285 l 1034 386 l 1242 386 l 1242 -162 l 255 -162 q 185 -93 185 -162 l 185 386 l 394 386 m 1034 23 l 1034 108 l 394 108 l 394 23 l 1034 23 z "},"깺":{"ha":1296,"x_min":0,"x_max":0,"o":""},"깻":{"ha":1296,"x_min":-23,"x_max":1319,"o":"m 355 1111 q 147 432 355 677 l -23 525 q 101 696 48 596 q 173 926 154 796 l 31 926 l 15 1111 l 355 1111 m 648 1111 q 718 1042 718 1111 q 648 647 705 821 q 494 363 591 472 l 324 455 q 451 654 394 531 q 528 926 509 776 l 394 926 l 394 1111 l 648 1111 m 980 1157 l 980 903 l 1065 903 l 1065 1157 l 1242 1157 l 1242 340 l 1065 340 l 1065 718 l 980 718 l 980 417 l 802 417 l 802 1157 l 980 1157 m 826 347 l 826 301 q 1319 -8 826 96 l 1211 -177 q 941 -94 1077 -150 q 716 56 806 -39 q 489 -100 627 -42 q 224 -185 352 -159 l 116 -15 q 459 101 309 25 q 610 301 610 177 l 610 347 l 826 347 z "},"깼":{"ha":1296,"x_min":-23,"x_max":1412,"o":"m 355 1111 q 303 748 355 895 q 147 478 252 602 l -23 571 q 103 729 52 647 q 171 926 153 812 l 31 926 l 15 1111 l 355 1111 m 648 1111 q 718 1042 718 1111 q 650 677 707 832 q 494 409 594 522 l 324 502 q 528 926 495 687 l 394 926 l 394 1111 l 648 1111 m 980 1157 l 980 903 l 1065 903 l 1065 1157 l 1242 1157 l 1242 394 l 1065 394 l 1065 718 l 980 718 l 980 394 l 802 394 l 802 1157 l 980 1157 m 54 -31 q 262 100 177 20 q 347 293 347 179 l 347 363 l 548 363 l 548 293 q 733 34 548 145 q 867 150 815 85 q 918 293 918 215 l 918 363 l 1119 363 l 1119 293 q 1200 103 1119 179 q 1412 -31 1281 28 l 1273 -177 q 1011 43 1103 -88 q 874 -90 952 -29 q 733 -185 796 -151 q 590 -89 664 -147 q 457 42 515 -31 q 185 -185 363 -97 l 54 -31 z "},"깽":{"ha":1296,"x_min":-23,"x_max":1258,"o":"m 355 1111 q 303 748 355 895 q 147 478 252 602 l -23 571 q 103 729 52 647 q 171 926 153 812 l 31 926 l 15 1111 l 355 1111 m 648 1111 q 718 1042 718 1111 q 650 677 707 832 q 494 409 594 522 l 324 502 q 528 926 495 687 l 394 926 l 394 1111 l 648 1111 m 980 1157 l 980 903 l 1065 903 l 1065 1157 l 1242 1157 l 1242 417 l 1065 417 l 1065 718 l 980 718 l 980 455 l 802 455 l 802 1157 l 980 1157 m 710 -185 q 311 -110 452 -185 q 170 100 170 -34 q 311 310 170 235 q 710 386 452 386 q 1116 310 974 386 q 1258 100 1258 235 q 1116 -110 1258 -34 q 710 -185 974 -185 m 710 0 q 949 27 864 0 q 1034 100 1034 54 q 949 174 1034 147 q 710 201 864 201 q 477 174 560 201 q 394 100 394 147 q 477 27 394 54 q 710 0 560 0 z "},"깾":{"ha":1296,"x_min":0,"x_max":0,"o":""},"깿":{"ha":1296,"x_min":0,"x_max":0,"o":""},"꺀":{"ha":1296,"x_min":0,"x_max":0,"o":""},"꺁":{"ha":1296,"x_min":0,"x_max":0,"o":""},"꺂":{"ha":1296,"x_min":0,"x_max":0,"o":""},"꺃":{"ha":1296,"x_min":0,"x_max":0,"o":""},"꺄":{"ha":1296,"x_min":-8,"x_max":1319,"o":"m 448 1065 q 377 495 448 750 q 170 62 307 239 l -8 162 q 175 478 106 296 q 256 880 244 660 l 69 880 l 54 1065 l 448 1065 m 787 1065 q 849 995 849 1060 q 775 413 843 679 q 571 -23 708 147 l 394 85 q 573 435 502 222 q 656 880 645 648 l 486 880 l 486 1065 l 787 1065 m 1157 1157 l 1157 880 l 1319 880 l 1319 679 l 1157 679 l 1157 478 l 1319 478 l 1319 278 l 1157 278 l 1157 -162 l 957 -162 l 957 1157 l 1157 1157 z "},"꺅":{"ha":1296,"x_min":0,"x_max":1327,"o":"m 440 1111 q 370 725 440 877 q 162 463 301 573 l 0 571 q 239 926 198 702 l 69 926 l 54 1111 l 440 1111 m 779 1111 l 779 1110 q 833 1042 833 1102 q 571 409 810 625 l 394 517 q 543 688 477 582 q 633 926 610 793 l 478 926 l 478 1111 l 779 1111 m 1157 1157 l 1157 1019 l 1327 1019 l 1327 833 l 1157 833 l 1157 741 l 1327 741 l 1327 556 l 1157 556 l 1157 394 l 957 394 l 957 1157 l 1157 1157 m 1157 -170 l 957 -170 l 957 139 l 139 139 l 139 324 l 1157 324 l 1157 -170 z "},"꺆":{"ha":1296,"x_min":0,"x_max":1327,"o":"m 440 1111 q 370 725 440 877 q 162 463 301 573 l 0 571 q 239 926 198 702 l 69 926 l 54 1111 l 440 1111 m 779 1111 l 779 1110 q 833 1042 833 1102 q 571 409 810 625 l 394 517 q 543 688 477 582 q 633 926 610 793 l 478 926 l 478 1111 l 779 1111 m 1157 1157 l 1157 1019 l 1327 1019 l 1327 833 l 1157 833 l 1157 741 l 1327 741 l 1327 556 l 1157 556 l 1157 394 l 957 394 l 957 1157 l 1157 1157 m 617 -170 l 409 -170 l 409 139 l 108 139 l 108 324 l 617 324 l 617 -170 m 1157 -170 l 957 -170 l 957 139 l 671 139 l 671 324 l 1157 324 l 1157 -170 z "},"꺇":{"ha":1296,"x_min":0,"x_max":0,"o":""},"꺈":{"ha":1296,"x_min":0,"x_max":0,"o":""},"꺉":{"ha":1296,"x_min":0,"x_max":0,"o":""},"꺊":{"ha":1296,"x_min":0,"x_max":0,"o":""},"꺋":{"ha":1296,"x_min":0,"x_max":0,"o":""},"꺌":{"ha":1296,"x_min":0,"x_max":1327,"o":"m 440 1111 q 409 869 440 966 q 319 702 378 772 q 162 556 261 633 l 0 664 q 152 783 96 727 q 233 926 208 840 l 69 926 l 54 1111 l 440 1111 m 764 1111 q 833 1042 833 1111 q 758 731 823 858 q 571 502 693 605 l 394 610 q 542 751 481 676 q 628 926 603 826 l 478 926 l 478 1111 l 764 1111 m 1157 1157 l 1157 1049 l 1327 1049 l 1327 880 l 1157 880 l 1157 802 l 1327 802 l 1327 633 l 1157 633 l 1157 525 l 957 525 l 957 1157 l 1157 1157 m 1157 455 l 1157 62 l 363 62 l 363 0 l 1165 0 l 1181 -170 l 231 -170 q 162 -100 162 -170 l 162 224 l 957 224 l 957 285 l 162 285 l 162 455 l 1157 455 z "},"꺍":{"ha":1296,"x_min":0,"x_max":1327,"o":"m 440 1111 q 409 869 440 966 q 319 702 378 772 q 162 556 261 633 l 0 664 q 152 783 96 727 q 233 926 208 840 l 69 926 l 54 1111 l 440 1111 m 764 1111 q 833 1042 833 1111 q 758 731 823 858 q 571 502 693 605 l 394 610 q 542 751 481 676 q 628 926 603 826 l 478 926 l 478 1111 l 764 1111 m 1157 1157 l 1157 1049 l 1327 1049 l 1327 880 l 1157 880 l 1157 802 l 1327 802 l 1327 633 l 1157 633 l 1157 525 l 957 525 l 957 1157 l 1157 1157 m 116 455 l 625 455 l 625 62 l 309 62 l 309 -2 q 756 31 573 0 l 772 -131 q 185 -170 590 -167 q 116 -100 116 -170 l 116 224 l 432 224 l 432 285 l 116 285 l 116 455 m 1157 -185 l 957 -185 l 957 255 l 687 255 l 687 455 l 1157 455 l 1157 -185 z "},"꺎":{"ha":1296,"x_min":0,"x_max":0,"o":""},"꺏":{"ha":1296,"x_min":0,"x_max":0,"o":""},"꺐":{"ha":1296,"x_min":0,"x_max":0,"o":""},"꺑":{"ha":1296,"x_min":0,"x_max":0,"o":""},"꺒":{"ha":1296,"x_min":0,"x_max":0,"o":""},"꺓":{"ha":1296,"x_min":0,"x_max":0,"o":""},"꺔":{"ha":1296,"x_min":0,"x_max":0,"o":""},"꺕":{"ha":1296,"x_min":0,"x_max":0,"o":""},"꺖":{"ha":1296,"x_min":0,"x_max":0,"o":""},"꺗":{"ha":1296,"x_min":0,"x_max":0,"o":""},"꺘":{"ha":1296,"x_min":0,"x_max":0,"o":""},"꺙":{"ha":1296,"x_min":0,"x_max":0,"o":""},"꺚":{"ha":1296,"x_min":0,"x_max":0,"o":""},"꺛":{"ha":1296,"x_min":0,"x_max":0,"o":""},"꺜":{"ha":1296,"x_min":0,"x_max":0,"o":""},"꺝":{"ha":1296,"x_min":0,"x_max":0,"o":""},"꺞":{"ha":1296,"x_min":0,"x_max":0,"o":""},"꺟":{"ha":1296,"x_min":0,"x_max":0,"o":""},"꺠":{"ha":1296,"x_min":-46,"x_max":1242,"o":"m 355 1065 q 302 501 349 742 q 131 62 255 259 l -46 147 q 170 872 150 451 l 31 872 l 15 1065 l 355 1065 m 648 1065 q 718 995 718 1065 q 654 420 705 664 q 478 -23 602 176 l 301 62 q 463 423 404 218 q 532 872 522 628 l 394 872 l 394 1065 l 648 1065 m 980 1157 l 980 880 l 1065 880 l 1065 1157 l 1242 1157 l 1242 -162 l 1065 -162 l 1065 278 l 980 278 l 980 -162 l 802 -162 l 802 1157 l 980 1157 m 1065 463 l 1065 694 l 980 694 l 980 463 l 1065 463 z "},"꺡":{"ha":1296,"x_min":0,"x_max":0,"o":""},"꺢":{"ha":1296,"x_min":0,"x_max":0,"o":""},"꺣":{"ha":1296,"x_min":0,"x_max":0,"o":""}}}
